<?xml version="1.0" encoding="UTF-8"?>
<svg version="1.1" xmlns="http://www.w3.org/2000/svg" width="3300" height="1558">
<path d="M0 0 C1.40934814 0.31348389 1.40934814 0.31348389 2.84716797 0.63330078 C33.2093437 7.61100858 63.09122617 21.47660774 85.88671875 43.0078125 C87.82133632 44.83157398 89.81900095 46.50417695 91.875 48.1875 C121.13497195 73.84896734 137.80084727 114.90501014 141 153 C141.37297842 159.64118168 141.39013751 166.28769717 141.375 172.9375 C141.37418427 174.28986755 141.37418427 174.28986755 141.37335205 175.66955566 C141.33339616 190.10929611 140.45324092 203.92506634 137 218 C136.68651611 219.32620361 136.68651611 219.32620361 136.36669922 220.67919922 C125.68027577 264.80972542 97.28155115 304.89369661 61 332 C60.47083984 332.40557129 59.94167969 332.81114258 59.39648438 333.22900391 C28.80243798 356.67693244 -5.83009652 373.9820933 -42 387 C-43.03189453 387.37721191 -44.06378906 387.75442383 -45.12695312 388.14306641 C-72.20828283 397.9602612 -105.96428528 410 -135 410 C-134.505 517.415 -134.505 517.415 -134 627 C-129.38 614.79 -124.76 602.58 -120 590 C-99.5069612 540.88445247 -76.97099038 493.95479962 -40 455 C-39.13568359 454.05640625 -39.13568359 454.05640625 -38.25390625 453.09375 C-13.14497689 426.54465761 25.44454895 408.4852874 61.87963867 406.82299805 C63.22565167 406.79695074 64.57178758 406.77674171 65.91796875 406.76171875 C66.64905853 406.75187958 67.38014832 406.74204041 68.13339233 406.73190308 C101.98983538 406.37006343 133.7318605 411.91995949 160 435 C160.80566406 435.66257812 161.61132812 436.32515625 162.44140625 437.0078125 C193.71822248 463.53681782 205.09359218 505.79263268 208.35005426 545.06819969 C209.31172454 557.72670962 209.29291678 570.37821384 209.28710938 583.06616211 C209.29205055 585.79085873 209.29997913 588.51554474 209.30781555 591.24023438 C209.32310888 597.0560162 209.33164435 602.87177423 209.33552551 608.68757439 C209.34133449 617.11425324 209.36001634 625.54086892 209.38196605 633.96751947 C209.4175033 647.67112563 209.44589547 661.3747354 209.46826172 675.07836914 C209.46959671 675.89471935 209.4709317 676.71106956 209.47230715 677.55215765 C209.48308633 684.1773387 209.49351209 690.80252029 209.5039072 697.42770195 C209.51302286 703.22987774 209.52227449 709.03205329 209.53173828 714.83422852 C209.53373439 716.06041034 209.53373439 716.06041034 209.53577083 717.31136351 C209.55826104 730.9797239 209.58847483 744.64805692 209.62413073 758.31638914 C209.645672 766.71544221 209.6603814 775.11445274 209.66596949 783.51353187 C209.67024207 789.26909735 209.68154578 795.02462219 209.69819343 800.78016507 C209.70751901 804.08973755 209.71263602 807.39917006 209.71113014 810.70876503 C208.74651491 846.2485526 208.74651491 846.2485526 224 877 C233.87089526 884.70962081 243.80979597 885.79583715 256 885 C293.155597 880.30125819 323.37278085 854.76237507 347.625 827.88671875 C349.83956706 824.84798042 351.17655168 822.3116367 350.66381836 818.50244141 C350.39190674 817.62765137 350.11999512 816.75286133 349.83984375 815.8515625 C349.54311768 814.85866211 349.2463916 813.86576172 348.94067383 812.84277344 C348.60962646 811.7809082 348.2785791 810.71904297 347.9375 809.625 C347.26855693 807.35299379 346.60458786 805.07951784 345.9453125 802.8046875 C345.44692871 801.08717285 345.44692871 801.08717285 344.93847656 799.33496094 C336.66804142 769.94522523 333.76818735 739.48808052 333.75 709.0625 C333.74898788 707.5365773 333.74898788 707.5365773 333.74795532 705.97982788 C333.83114128 626.70361309 358.60581574 545.59076278 411 485 C411.70511719 484.16597656 412.41023437 483.33195312 413.13671875 482.47265625 C425.08901383 468.73573558 438.1607116 455.59771824 453 445 C453.61907227 444.55253418 454.23814453 444.10506836 454.87597656 443.64404297 C490.63894871 417.9309869 531.15741659 402.05697523 575 397 C575.77811035 396.9057373 576.5562207 396.81147461 577.35791016 396.71435547 C586.4245093 395.74324435 595.51665918 395.75641524 604.625 395.75 C605.91990356 395.74898788 605.91990356 395.74898788 607.2409668 395.74795532 C621.67452572 395.76580873 635.75746163 396.49524343 650 399 C650.93553711 399.16097168 651.87107422 399.32194336 652.83496094 399.48779297 C696.75773652 407.33599231 737.37839556 427.61597853 770 458 C771.37075183 459.19240122 772.74557863 460.38013883 774.125 461.5625 C780.96350936 467.53415606 787.1748763 474.04378432 793 481 C793.83917969 481.98871094 794.67835937 482.97742188 795.54296875 483.99609375 C809.31418814 500.52536781 821.23655945 518.8347278 831 538 C831.4738916 538.9286084 831.9477832 539.8572168 832.43603516 540.81396484 C852 579.5336577 852 579.5336577 852 590 C868.20387542 582.28592101 883.07797051 573.34499128 897 562 C898.02609375 561.17886719 899.0521875 560.35773437 900.109375 559.51171875 C908.12187441 552.9571419 915.47907534 545.73061501 922.8125 538.4375 C923.30055115 537.95471588 923.78860229 537.47193176 924.29144287 536.97451782 C930.99045273 530.33147166 937.14555249 523.40071085 943 516 C943.95297481 514.830846 944.90716778 513.66268241 945.86328125 512.49609375 C959.69174523 495.22705501 971.90814569 476.62416895 980.0625 456 C985.84793315 441.54586331 995.80806196 433.24974755 1009.9453125 427.16015625 C1034.46152823 417.84901038 1066.01640239 416.25294104 1090.4296875 426.83203125 C1101.0722223 431.77673146 1109.30907534 436.85420794 1114 448 C1114.91935499 451.77323152 1115.13503671 455.30399812 1115.15821838 459.18196106 C1115.1680072 460.42571503 1115.17779602 461.66946899 1115.18788147 462.95091248 C1115.19378484 464.32119713 1115.19959534 465.69148218 1115.20532227 467.06176758 C1115.21490679 468.51076534 1115.22491721 469.95976033 1115.23532104 471.40875244 C1115.26231395 475.33599935 1115.28335384 479.26325821 1115.30332303 483.19054627 C1115.32521728 487.29719348 1115.35258912 491.40380409 1115.37937927 495.51042175 C1115.42925969 503.28404002 1115.47421575 511.05767865 1115.51740164 518.83133668 C1115.56681379 527.68257802 1115.62171715 536.53378263 1115.67708123 545.38498843 C1115.79082987 563.58995817 1115.89768437 581.79496259 1116 600 C1116.35682358 599.11015915 1116.71364716 598.2203183 1117.08128357 597.30351257 C1118.43877465 593.92145778 1119.80177802 590.54164522 1121.16624451 587.16239929 C1121.74994581 585.71471905 1122.33225805 584.26647776 1122.91300964 582.81761169 C1138.56925345 543.77239987 1158.89673251 504.8152244 1188 474 C1189.08825807 472.73338134 1190.17168185 471.46259154 1191.25 470.1875 C1220.27820539 436.99320958 1262.23261104 410.53237047 1307 407 C1346.39373905 404.72763956 1382.09978612 416.0244247 1411.78417969 442.18237305 C1437.62542207 465.50460838 1452.22831832 497.54243927 1456.6875 531.6875 C1456.80706055 532.59387207 1456.92662109 533.50024414 1457.04980469 534.43408203 C1459.33360395 553.60144653 1459.15004168 572.98124541 1459.15771484 592.25073242 C1459.16239524 594.92409967 1459.1674761 597.59746315 1459.17311096 600.27082825 C1459.18452703 605.98516365 1459.19282742 611.69949626 1459.19923019 617.41383934 C1459.20966286 626.46441401 1459.23024927 635.51495336 1459.25234985 644.56550598 C1459.25982551 647.67617691 1459.26723975 650.78684799 1459.27463722 653.89751911 C1459.27648779 654.67444522 1459.27833835 655.45137133 1459.280245 656.25184065 C1459.30108547 665.05485326 1459.31995794 673.85786968 1459.33789062 682.66088867 C1459.3403479 683.86513566 1459.3403479 683.86513566 1459.34285481 685.09371088 C1459.36916662 698.11672691 1459.38780409 711.13974574 1459.40448253 724.16277715 C1459.42195472 737.59036919 1459.45084439 751.01790631 1459.4893719 764.44545442 C1459.51263337 772.697681 1459.52675385 780.94981809 1459.52869953 789.20207772 C1459.53082268 794.86051987 1459.54386562 800.51887305 1459.56517886 806.17727514 C1459.57709769 809.4302657 1459.58277368 812.68304707 1459.57846642 815.93606186 C1459.07154531 848.7972271 1459.07154531 848.7972271 1474 877 C1483.31485818 884.68526096 1494.30199983 885.88939389 1506 885 C1535.56355304 881.22191016 1560.04710147 864.28560877 1581 844 C1581.78890625 843.34 1582.5778125 842.68 1583.390625 842 C1585.24049585 840.14206952 1585.24049585 840.14206952 1584.9453125 837.80078125 C1583.63279611 833.91204468 1582.27825097 830.04445068 1580.875 826.1875 C1570.50576895 796.91694947 1563.80333452 766.94984189 1561 736 C1560.9057373 734.9672998 1560.81147461 733.93459961 1560.71435547 732.87060547 C1559.87890256 722.62547191 1559.75685311 712.39803888 1559.75 702.125 C1559.74898788 700.74871933 1559.74898788 700.74871933 1559.74795532 699.34463501 C1559.8089573 646.66344432 1569.46344103 591.89858245 1592.87304688 544.29492188 C1594.05921108 541.87942285 1595.20965744 539.44866068 1596.359375 537.015625 C1607.37794147 514.00919458 1621.67385627 492.15088633 1639.38671875 473.73046875 C1641.59772628 471.4203129 1643.68898549 469.06751155 1645.75 466.625 C1649.18135262 462.67524159 1652.99281272 459.35196732 1657 456 C1658.29357422 454.87464844 1658.29357422 454.87464844 1659.61328125 453.7265625 C1701.78872047 417.54357405 1755.04362704 401.65842394 1810.21142578 405.20654297 C1845.60180451 408.18057162 1879.81565064 420.20834141 1908 442 C1908.90492188 442.68191406 1909.80984375 443.36382813 1910.7421875 444.06640625 C1937.40778268 464.91621138 1956.12589193 492.49623748 1968 524 C1968.24298828 524.63534668 1968.48597656 525.27069336 1968.73632812 525.92529297 C1973.01742438 537.29581144 1975.64041795 549.10612091 1978 561 C1978.16806152 561.82193848 1978.33612305 562.64387695 1978.50927734 563.49072266 C1983.84313954 590.70171086 1983.39754212 621.31513684 1976 648 C1975.65509521 649.31121826 1975.65509521 649.31121826 1975.30322266 650.64892578 C1970.37398314 669.26003181 1963.08662993 687.04425902 1954 704 C1953.68063477 704.60005859 1953.36126953 705.20011719 1953.03222656 705.81835938 C1927.36815442 753.60303787 1883.12358326 791.46897955 1831.23046875 807.53125 C1798.26910829 817.13801647 1763.58276743 816.36024978 1730.7109375 806.98828125 C1727.15688716 805.87132696 1727.15688716 805.87132696 1724 806 C1732.962357 827.09939087 1743.15210218 845.20844452 1759 862 C1759.68449219 862.74894531 1760.36898437 863.49789062 1761.07421875 864.26953125 C1783.63728866 888.08378803 1817.45407477 900.12675722 1849.76171875 901.203125 C1921.88787768 902.34833201 1986.77230308 863.3735391 2037.22460938 814.74804688 C2047.79870347 804.33681012 2057.12175875 792.88567557 2066.0625 781.0625 C2066.53300781 780.44270264 2067.00351563 779.82290527 2067.48828125 779.18432617 C2068.43416738 777.92092504 2069.36675394 776.64745386 2070.28555471 775.36422038 C2071.49800942 773.6922451 2072.7462231 772.04592925 2074.01863068 770.41911435 C2079.6754506 762.75974747 2081.14663555 757.25994892 2080.94184875 747.84197998 C2080.94656746 746.57147018 2080.95128616 745.30096037 2080.95614785 743.99195027 C2080.96810903 740.49920954 2080.93067251 737.00854866 2080.88454783 733.5161581 C2080.84356299 729.73709137 2080.84943299 725.95805112 2080.84953308 722.17880249 C2080.84351521 715.64057439 2080.80864515 709.10302179 2080.75414467 702.56502533 C2080.6755863 693.10374351 2080.64455406 683.64275773 2080.62540462 674.18119064 C2080.59330986 658.81656626 2080.52770552 643.45228442 2080.4387207 628.08789062 C2080.35254394 613.18883721 2080.27463253 598.28980269 2080.21313477 583.390625 C2080.20933677 582.47233228 2080.20553877 581.55403956 2080.20162568 580.60791978 C2080.16053177 570.57965727 2080.12344328 560.55138723 2080.09180737 550.52309036 C2080.08902167 549.64146524 2080.08623597 548.75984013 2080.08336585 547.8514991 C2080.07230135 544.32693291 2080.06130844 540.80236664 2080.05085888 537.27779856 C2080.02023627 526.96889947 2079.97708829 516.66023951 2079.91107854 506.35150316 C2079.87006515 499.88810218 2079.83895978 493.42470617 2079.81560145 486.96121737 C2079.80164776 483.23354778 2079.78254572 479.5060803 2079.75004959 475.77852249 C2079.7148359 471.73567086 2079.70292296 467.69307822 2079.69306946 463.65008545 C2079.67177623 461.88802674 2079.67177623 461.88802674 2079.65005285 460.09037089 C2079.65957076 450.12541342 2081.69894963 443.47447032 2088.63671875 436.10546875 C2105.55717722 421.03087848 2132.51367253 419.07892501 2154.12109375 420.21484375 C2172.38736657 421.53529721 2193.66781283 425.33450815 2207 439 C2211.13308894 444.74103039 2213.12317501 449.06315153 2213.13307858 456.2322607 C2213.13731962 457.5461068 2213.14156067 458.85995289 2213.14593023 460.2136125 C2213.14562453 461.68057058 2213.14523133 463.14752865 2213.14476013 464.61448669 C2213.14789295 466.16612227 2213.15146754 467.71775701 2213.15544754 469.26939064 C2213.16516391 473.54519808 2213.16869907 477.82099216 2213.17129052 482.09680903 C2213.17517942 486.70455035 2213.18481757 491.31227982 2213.19384766 495.92001343 C2213.20880231 503.91171973 2213.22034035 511.90342509 2213.22979546 519.89513969 C2213.24366897 531.47168011 2213.26485894 543.0481987 2213.28822399 554.62472344 C2213.32617092 573.43446214 2213.36112253 592.24420482 2213.39282227 611.05395508 C2213.39472276 612.18045536 2213.39662325 613.30695565 2213.39858133 614.46759231 C2213.42536172 630.42229779 2213.44924672 646.37700632 2213.47196633 662.33171804 C2213.47356363 663.45306407 2213.47516094 664.57441011 2213.47680664 665.72973633 C2213.47840011 666.84971142 2213.47999357 667.96968651 2213.48163532 669.12360024 C2213.50846389 687.84133311 2213.54289321 706.559043 2213.58346039 725.2767511 C2213.60815785 736.81213597 2213.62652776 748.34749617 2213.636616 759.88290323 C2213.64404432 767.80424149 2213.65862644 775.72554665 2213.67868023 783.64686292 C2213.68999804 788.20824928 2213.6982105 792.76958245 2213.69767189 797.33098412 C2211.80454576 836.66996837 2211.80454576 836.66996837 2226.25 871.6875 C2234.03570526 878.23457033 2242.03543917 879.71744838 2252 879 C2277.09934345 874.47137228 2297.72904912 849.58168537 2312 830 C2312.47211914 829.36690918 2312.94423828 828.73381836 2313.43066406 828.08154297 C2321.38852816 817.39683999 2328.19838274 806.2281216 2334.59912109 794.55078125 C2335.88948008 792.20123949 2337.20240573 789.86584586 2338.51953125 787.53125 C2377.12717662 717.91485046 2392.46691538 633.69599227 2407.453125 480.41796875 C2407.48969208 479.46343811 2407.52625916 478.50890747 2407.56393433 477.52545166 C2407.73968793 472.92644324 2407.89363659 468.32911512 2408.00244141 463.72802734 C2408.3221685 453.39821138 2409.32898554 445.77376836 2416.03515625 437.484375 C2435.17295959 421.11215018 2461.76951173 418.78595786 2485.9921875 420.53125 C2503.60156978 422.05958619 2523.66802821 426.2413009 2535.9375 440.0625 C2539.48378072 445.11326345 2541.36808574 449.03538573 2541.43026543 455.25582886 C2541.44963118 456.49712429 2541.46899694 457.73841972 2541.48894954 459.01733017 C2541.49531944 460.38508708 2541.50134055 461.75284564 2541.50704956 463.12060547 C2541.52368903 464.57693978 2541.54153514 466.03326072 2541.56048512 467.4895668 C2541.60829099 471.47998629 2541.6369494 475.47034251 2541.66180316 479.46096277 C2541.68533726 482.88530754 2541.71952569 486.30951589 2541.75347611 489.73377073 C2542.14955904 530.00514833 2542.14801389 570.28008494 2542.13530231 610.55299956 C2542.13296825 618.12095585 2542.13274834 625.6889099 2542.13381577 633.25686646 C2542.133969 634.35608388 2542.13412223 635.4553013 2542.13428011 636.58782834 C2542.1346 638.82445375 2542.13492422 641.06107916 2542.1352527 643.29770458 C2542.13806711 664.00158569 2542.13488464 684.70546228 2542.12945233 705.40934265 C2542.12498295 722.98464864 2542.12576933 740.55994803 2542.13037109 758.13525391 C2542.13578083 778.80453601 2542.13779801 799.47381421 2542.13475883 820.14309692 C2542.13444045 822.36661784 2542.13412607 824.59013875 2542.13381577 826.81365967 C2542.13358435 828.4525142 2542.13358435 828.4525142 2542.13334826 830.12447691 C2542.13250244 837.64412249 2542.13392102 845.16376546 2542.13629532 852.68341064 C2542.15070258 902.4648057 2541.92566919 952.22638521 2541 1002 C2541.7741541 1002.05493999 2542.5483082 1002.10987999 2543.34592152 1002.16648483 C2546.89005573 1002.4194041 2550.43391621 1002.67598188 2553.9777832 1002.93261719 C2555.19554695 1003.0189743 2556.4133107 1003.10533142 2557.66797638 1003.19430542 C2566.26857019 1003.82070211 2574.69428666 1004.7309137 2583.1875 1006.25 C2584.42959229 1006.46615967 2585.67168457 1006.68231934 2586.95141602 1006.9050293 C2639.28225565 1016.30066427 2695.03524249 1038.2219858 2726.84619141 1083.24829102 C2743.50188363 1107.6912666 2750.97139823 1136.30463574 2746.38671875 1165.8359375 C2743.69229772 1179.10237382 2736.85133257 1191.85577616 2728 1202 C2727.236875 1202.9590625 2726.47375 1203.918125 2725.6875 1204.90625 C2713.79795859 1219.14872072 2693.62291583 1229.2066622 2675.53125 1232.44140625 C2671.66155054 1232.67209987 2667.95231442 1231.87239466 2664.69921875 1229.73046875 C2661.03893707 1226.00287155 2659.16771534 1221.01334162 2657.046875 1216.30664062 C2655.0109486 1211.82076548 2652.87330745 1207.38250286 2650.75 1202.9375 C2650.27965332 1201.95177002 2649.80930664 1200.96604004 2649.32470703 1199.95043945 C2634.5168346 1169.04847066 2617.14031111 1140.41027336 2594 1115 C2593.33097656 1114.2471875 2592.66195312 1113.494375 2591.97265625 1112.71875 C2580.19021881 1100.13706626 2564.33252965 1089.54722978 2547.74462891 1084.89257812 C2546.48212311 1084.53683716 2545.21961731 1084.18109619 2543.91885376 1083.8145752 C2542.95563202 1083.54576538 2541.99241028 1083.27695557 2541 1083 C2540.99761165 1083.60055678 2540.99522329 1084.20111357 2540.99276257 1084.81986904 C2540.93314851 1099.55802677 2540.85731243 1114.29603747 2540.76428509 1129.03401852 C2540.71966965 1136.16174257 2540.68018051 1143.28942044 2540.65356445 1150.41723633 C2540.63030219 1156.64318109 2540.59660267 1162.86897538 2540.55129844 1169.09480006 C2540.52773806 1172.37924452 2540.51033108 1175.66351767 2540.50238609 1178.94804192 C2540.3643855 1230.83104419 2529.46585275 1285.42490141 2498 1328 C2497.23300781 1329.04929687 2496.46601563 1330.09859375 2495.67578125 1331.1796875 C2489.92914242 1338.91032572 2483.65301943 1346.04285601 2477 1353 C2476.12601563 1353.92683594 2475.25203125 1354.85367187 2474.3515625 1355.80859375 C2440.18749914 1391.12481761 2387.57584482 1414.82256637 2338.44360352 1416.17700195 C2336.8387866 1416.20309789 2335.23386526 1416.22328508 2333.62890625 1416.23828125 C2332.75748489 1416.24812042 2331.88606354 1416.25795959 2330.98823547 1416.26809692 C2311.67475548 1416.44115428 2292.91482286 1416.38831402 2274 1412 C2272.9579541 1411.75862305 2271.9159082 1411.51724609 2270.84228516 1411.26855469 C2255.90741335 1407.67768123 2241.84985116 1402.62127835 2228 1396 C2227.31260742 1395.67418945 2226.62521484 1395.34837891 2225.91699219 1395.01269531 C2187.25189243 1376.38472663 2157.17918486 1342.56731702 2142.78515625 1302.296875 C2140.0376845 1294.30052374 2137.81068082 1286.25684491 2136 1278 C2135.83628906 1277.29842773 2135.67257813 1276.59685547 2135.50390625 1275.87402344 C2130.12275553 1251.95903335 2130.1931702 1221.81760023 2136 1198 C2136.23106445 1197.03143066 2136.46212891 1196.06286133 2136.70019531 1195.06494141 C2140.13072108 1181.05588241 2144.54543666 1167.89655694 2151 1155 C2151.31549805 1154.35417969 2151.63099609 1153.70835938 2151.95605469 1153.04296875 C2159.5607439 1137.5656531 2169.52446969 1123.82258948 2181 1111 C2181.49145508 1110.44683105 2181.98291016 1109.89366211 2182.48925781 1109.32373047 C2188.94245314 1102.08826677 2195.57521628 1095.25696059 2203 1089 C2203.49709473 1088.57460937 2203.99418945 1088.14921875 2204.50634766 1087.7109375 C2250.44820942 1048.6233614 2308.66932449 1025.1003149 2366.625 1010.625 C2367.4456897 1010.41962616 2368.26637939 1010.21425232 2369.11193848 1010.00265503 C2378.37473316 1007.70043932 2387.66732939 1005.59980078 2397.0234375 1003.7109375 C2397.87733063 1003.53793121 2398.73122375 1003.36492493 2399.61099243 1003.18667603 C2400.40371552 1003.03016571 2401.1964386 1002.8736554 2402.01318359 1002.71240234 C2402.71204681 1002.57426117 2403.41091003 1002.43612 2404.13095093 1002.29379272 C2406 1002 2406 1002 2409 1002 C2408.505 903.495 2408.505 903.495 2408 803 C2404.37 811.91 2400.74 820.82 2397 830 C2393.41399068 838.04767209 2389.79371734 846.05174634 2386 854 C2385.26209229 855.55170898 2385.26209229 855.55170898 2384.50927734 857.13476562 C2367.3888637 892.8957063 2346.42019064 926.22115127 2319 955 C2318.20335938 955.84949219 2317.40671875 956.69898438 2316.5859375 957.57421875 C2291.94004151 983.14333235 2258.6493373 1000.66860143 2222.83544922 1001.35327148 C2209.98821381 1001.4297943 2197.57785302 1000.6539899 2185 998 C2184.33258789 997.86078125 2183.66517578 997.7215625 2182.97753906 997.578125 C2153.74088928 991.21528736 2128.74079286 974.87373123 2112 950 C2109.0924026 945.4598366 2106.47684613 940.7870941 2104 936 C2103.69465332 935.40993164 2103.38930664 934.81986328 2103.07470703 934.21191406 C2096.51455498 921.31576891 2091.99368469 907.74025186 2088.625 893.6875 C2088.45718018 892.98834473 2088.28936035 892.28918945 2088.11645508 891.56884766 C2087.30384735 887.98600625 2086.81520295 884.67461827 2087 881 C2086.34 881 2085.68 881 2085 881 C2084.76152344 881.52722656 2084.52304688 882.05445313 2084.27734375 882.59765625 C2078.55348348 893.36271456 2070.04350525 902.91376552 2062 912 C2061.55543457 912.50241211 2061.11086914 913.00482422 2060.65283203 913.52246094 C2050.2339775 925.2241631 2039.39443099 936.37758828 2027 946 C2025.7574362 946.9943216 2024.51527575 947.98914738 2023.2734375 948.984375 C1986.82372392 977.87599795 1943.67269965 995.30377161 1898 1003 C1897.04029297 1003.16661133 1896.08058594 1003.33322266 1895.09179688 1003.50488281 C1862.20895305 1008.93291206 1824.81299168 1008.82811092 1792 1003 C1790.83645996 1002.79600586 1789.67291992 1002.59201172 1788.47412109 1002.38183594 C1739.12028934 993.46270338 1692.47993955 973.73654085 1655.47265625 939.28515625 C1653.40139901 937.37096117 1651.29085299 935.55412389 1649.125 933.75 C1640.1303649 925.92374018 1632.00242884 916.62515673 1625 907 C1623.66590963 908.62437855 1622.33278126 910.24954718 1621 911.875 C1620.17113281 912.885625 1619.34226562 913.89625 1618.48828125 914.9375 C1616.35669993 917.5609847 1614.26840456 920.21144217 1612.1875 922.875 C1600.72359182 937.22191084 1587.54863422 950.79388068 1573 962 C1572.47132324 962.41572266 1571.94264648 962.83144531 1571.39794922 963.25976562 C1534.51741357 992.14791365 1490.64746055 1005.69423168 1443.97265625 1000.7890625 C1429.08580398 998.96915391 1414.57284721 995.46241282 1401 989 C1400.32130859 988.68047363 1399.64261719 988.36094727 1398.94335938 988.03173828 C1367.15303027 972.80911709 1346.00312255 945.85080043 1334.375 912.875 C1332.54466704 907.16035914 1331.07540653 901.42778681 1329.8125 895.5625 C1329.65765137 894.84884277 1329.50280273 894.13518555 1329.34326172 893.39990234 C1328.84350098 890.94025294 1328.4191809 888.47475147 1328 886 C1327.82976004 885.03184955 1327.65952007 884.06369909 1327.48412132 883.06621075 C1325.41951884 869.34553441 1325.71723933 855.5431375 1325.74196196 841.70247591 C1325.74654236 837.87492578 1325.73943167 834.04739465 1325.73365784 830.21984863 C1325.72506895 823.60287567 1325.72320595 816.98592943 1325.72560501 810.3689518 C1325.72871778 800.78802998 1325.71701166 791.20716662 1325.70105521 781.62625959 C1325.67515664 766.05903181 1325.655104 750.49180399 1325.64160156 734.92456055 C1325.64079119 733.99497495 1325.63998082 733.06538936 1325.6391459 732.10763451 C1325.62791653 718.90642581 1325.62264054 705.70522133 1325.61975877 692.50400849 C1325.61945279 691.10826574 1325.61945279 691.10826574 1325.61914062 689.68432617 C1325.61894069 688.75497638 1325.61874075 687.82562659 1325.61853476 686.86811469 C1325.61479737 671.35131316 1325.59568619 655.83457548 1325.56404626 640.31780595 C1325.5451791 630.76455186 1325.53914078 621.21146186 1325.54986344 611.65819433 C1325.55619896 605.11202265 1325.54809596 598.56596845 1325.52880932 592.01982252 C1325.51816656 588.24898369 1325.51390911 584.47843048 1325.52728081 580.70759392 C1325.54166643 576.60957948 1325.52492851 572.51225454 1325.50552368 568.41426086 C1325.51921067 566.64895908 1325.51921067 566.64895908 1325.53317416 564.84799463 C1325.42799727 553.38434076 1322.85835633 541.7355682 1315 533 C1308.10414977 526.84630406 1297.69602935 524.3121158 1288.58203125 524.72265625 C1264.85651506 527.27108537 1247.04775688 537.54953679 1230 554 C1229.35417969 554.59425781 1228.70835938 555.18851563 1228.04296875 555.80078125 C1199.20187426 583.02083062 1182.35402652 625.70517364 1169 662 C1168.76087891 662.64970764 1168.52175781 663.29941528 1168.27539062 663.96881104 C1137.96895065 746.66245805 1122.59708786 834.78642685 1111.5078125 921.86328125 C1111.38074921 922.85494293 1111.25368591 923.84660461 1111.12277222 924.86831665 C1110.45112667 930.17857667 1109.83479786 935.49013417 1109.28027344 940.81396484 C1109.15844696 941.93949265 1109.03662048 943.06502045 1108.91110229 944.22465515 C1108.68067977 946.36994824 1108.46248326 948.51660532 1108.25906372 950.66462708 C1107.41619839 958.39390107 1105.5444563 965.10400692 1099.75 970.6875 C1099.22921875 971.20699219 1098.7084375 971.72648437 1098.171875 972.26171875 C1092.52641318 976.78011895 1086.60980473 979.89387967 1079.75 982.125 C1078.98131592 982.37652832 1078.21263184 982.62805664 1077.4206543 982.88720703 C1052.03817644 990.77466315 1021.8559032 990.77597965 997.83984375 978.3671875 C990.0182005 973.67209613 983.49282704 968.07912174 981 959 C980.5473113 954.19338152 980.58334102 949.39059731 980.60127258 944.56715393 C980.59583044 943.0844288 980.58907776 941.601708 980.58113068 940.11899418 C980.56311812 936.05299547 980.56366086 931.98717952 980.56726015 927.92115033 C980.56788419 923.53333599 980.5512621 919.14558287 980.53674316 914.75779724 C980.51395373 907.15844329 980.50207145 899.55913519 980.49761391 891.95974922 C980.49115327 880.97234827 980.46821738 869.98503021 980.44127061 858.99766266 C980.39799742 841.17106085 980.3680337 823.34446254 980.34643555 805.51782227 C980.32542746 788.20172409 980.29815384 770.88565446 980.26245117 753.56958008 C980.25915293 751.96832205 980.25915293 751.96832205 980.25578807 750.33471537 C980.24471846 744.97931209 980.23352564 739.62390907 980.22227156 734.26850617 C980.12907892 689.84569597 980.05748443 645.42286979 980 601 C979.17707458 601.96208878 978.35414917 602.92417755 977.50628662 603.91542053 C976.41534689 605.1898085 975.32438288 606.46417569 974.23339844 607.73852539 C973.42181778 608.68754604 973.42181778 608.68754604 972.59384155 609.65573883 C968.88592326 613.98555258 965.14100358 618.2704932 961.25 622.4375 C960.70617676 623.02112305 960.16235352 623.60474609 959.60205078 624.20605469 C956.22846157 627.78942675 952.77467584 631.16890334 948.98828125 634.3203125 C946.59807124 636.33954689 944.34400058 638.48374158 942.0625 640.625 C934.76976629 647.26390241 926.92162843 653.13753223 919 659 C918.34854004 659.48694336 917.69708008 659.97388672 917.02587891 660.47558594 C902.9962263 670.91275921 887.6677662 681.1661169 872 689 C872.01047363 689.9386792 872.02094727 690.8773584 872.03173828 691.84448242 C872.93145601 780.79676569 852.74904391 864.27618661 790 930 C789.36707031 930.67417969 788.73414063 931.34835937 788.08203125 932.04296875 C783.13176599 937.18136761 777.56832724 941.55529435 772 946 C770.94848966 946.86499989 769.8977252 947.73090715 768.84765625 948.59765625 C717.2628227 990.71864511 646.88194576 1008.20176174 581.1875 1002.25 C523.93836136 996.2145002 471.01368565 973.07747103 428.4765625 934.25390625 C426.79747795 932.7257804 425.10419177 931.21314142 423.3984375 929.71484375 C418.88865035 925.74323362 414.69606628 921.73667696 410.828125 917.13671875 C408.71072452 914.66189382 406.48000994 912.31126845 404.25 909.9375 C398.25174807 903.38556328 393.13614478 896.23551954 388 889 C384.61157076 892.10732637 382.25570847 895.54643228 379.875 899.4375 C367.40436966 919.27572265 351.13862325 939.13114755 333 954 C332.14535156 954.7425 331.29070313 955.485 330.41015625 956.25 C294.80992591 986.83274821 251.16403637 1004.56609358 203.87890625 1001.55053711 C173.74079809 999.21099448 146.46479173 990.34701491 123 971 C122.30132813 970.443125 121.60265625 969.88625 120.8828125 969.3125 C93.73091534 947.10828188 80.67746843 909.64540287 77.15404183 875.84916949 C75.79537873 861.4505416 75.70879461 847.08883113 75.72730291 832.63844895 C75.72982076 828.90717327 75.72065911 825.17592236 75.71292114 821.44465637 C75.70097806 815.00458061 75.69577371 808.56452939 75.69503975 802.12444305 C75.69370378 792.80270236 75.67850473 783.48102054 75.65954458 774.15930083 C75.62883256 759.01457374 75.60460332 743.86984516 75.58666992 728.72509766 C75.58559724 727.82204306 75.58452456 726.91898846 75.58341938 725.98856857 C75.57158197 715.89832522 75.56137432 705.80808127 75.55297852 695.71783447 C75.54990372 692.04870604 75.54681508 688.37957762 75.54370117 684.71044922 C75.54293583 683.80487552 75.54217049 682.89930183 75.54138196 681.96628651 C75.52829316 666.85725081 75.50365373 651.74825842 75.46995777 636.63925481 C75.44971282 627.34050889 75.43937212 618.04185563 75.44194698 608.7430875 C75.44298334 602.37922451 75.43332447 596.0154349 75.41530795 589.65159753 C75.40528582 585.98442201 75.40011059 582.31740894 75.40807533 578.65022469 C75.41661765 574.66985596 75.40198557 570.68975851 75.38526917 566.70941162 C75.39148098 565.55902554 75.3976928 564.40863946 75.40409285 563.2233932 C75.32080637 552.32791691 73.0463055 542.37899695 65.3671875 534.27734375 C57.54682607 527.14082558 48.89765188 525.62514834 38.54296875 525.71875 C24.33765168 526.84640472 12.57078286 533.98269367 2 543 C1.360625 543.51691406 0.72125 544.03382813 0.0625 544.56640625 C-18.76582629 559.9905039 -31.81648529 583.76294233 -43 605 C-43.49226074 605.93392578 -43.98452148 606.86785156 -44.49169922 607.83007812 C-73.26150238 662.87731758 -92.22141784 723.12394429 -108 783 C-108.26232422 783.99473328 -108.52464844 784.98946655 -108.79492188 786.01434326 C-122.73907909 839.04939119 -135.50097018 893.20303867 -141.02734375 947.8684082 C-142.20694628 958.87268944 -145.31678328 966.75231508 -154 974 C-176.70271786 988.91442437 -205.76765616 990.71822568 -231.75341797 985.50488281 C-244.88377028 982.55404945 -255.84982544 976.9073673 -264.1875 966.1875 C-267.65974005 960.08114681 -268.29795862 953.91160043 -268.24888897 946.99541569 C-268.25149625 946.22704686 -268.25410354 945.45867803 -268.25678983 944.6670253 C-268.26306971 942.10052841 -268.25513855 939.53427815 -268.24723816 936.9677887 C-268.24882719 935.10470408 -268.25129173 933.24162003 -268.25455457 931.3785376 C-268.2609649 926.26263379 -268.25490149 921.1468092 -268.24679029 916.03091061 C-268.24020717 910.50729378 -268.24516412 904.98368571 -268.24867249 899.46006775 C-268.25372007 888.62011646 -268.24805985 877.78019565 -268.23882218 866.94024814 C-268.22839791 854.24381228 -268.22850972 841.54738289 -268.22899476 828.85094356 C-268.22951122 805.41424545 -268.21946881 781.97756541 -268.20449232 758.5408736 C-268.19098816 737.33169012 -268.18462596 716.12251783 -268.18530273 694.91333008 C-268.18534315 693.56174775 -268.18538351 692.21016543 -268.18542381 690.8585831 C-268.18544416 690.1902812 -268.18546452 689.5219793 -268.18548548 688.83342583 C-268.18558634 685.46641974 -268.18567691 682.09941366 -268.18575573 678.73240757 C-268.18577244 678.06759778 -268.18578916 677.40278798 -268.18580638 676.71783244 C-268.18625642 654.99228141 -268.17908564 633.26673224 -268.17139288 611.54118278 C-268.16884539 604.00631436 -268.16745929 596.47144686 -268.16706113 588.93657804 C-268.16381553 529.28358857 -267.93858986 469.64628451 -267 410 C-267.73079773 410.00516632 -268.46159546 410.01033264 -269.21453857 410.01565552 C-270.18627014 410.01967377 -271.15800171 410.02369202 -272.15917969 410.02783203 C-273.11685242 410.03299835 -274.07452515 410.03816467 -275.06121826 410.04348755 C-330.42279542 409.22425717 -391.9374705 388.50377694 -433 351 C-433.51014648 350.53513184 -434.02029297 350.07026367 -434.54589844 349.59130859 C-454.95809324 330.72588442 -471.29521905 303.97466542 -473.22167969 275.75244141 C-474.06064628 250.86668452 -470.80670819 229.31155412 -454 210 C-453.566875 209.42507813 -453.13375 208.85015625 -452.6875 208.2578125 C-441.37198652 193.64194092 -421.6421079 184.21304069 -404 180 C-397.9734572 179.68045902 -393.61181675 179.92208619 -389 184 C-386.58498788 187.70977387 -384.81368085 191.65592828 -383.03076172 195.69335938 C-381.02175807 200.18911174 -378.87508298 204.62076161 -376.75 209.0625 C-376.27957275 210.04822998 -375.80914551 211.03395996 -375.32446289 212.04956055 C-360.52941154 242.9300022 -343.17336296 271.64250001 -320 297 C-318.96166016 298.14662109 -318.96166016 298.14662109 -317.90234375 299.31640625 C-305.0594575 312.81370708 -289.67257406 322.28743671 -272 328 C-269.99961898 328.66552252 -267.99956344 329.33202509 -266 330 C-266.00276538 329.39521128 -266.00553076 328.79042255 -266.00837994 328.1673069 C-266.07518912 313.32045171 -266.12454375 298.47361139 -266.15543652 283.62664223 C-266.17078041 276.44618898 -266.19162472 269.26583722 -266.22631836 262.08544922 C-266.2566098 255.81307245 -266.27566507 249.5407693 -266.28226548 243.26832139 C-266.28611207 239.95970473 -266.29655549 236.6514624 -266.31719017 233.34288406 C-266.69875073 169.52894085 -249.26485162 106.68678413 -204 60 C-203.19175781 59.15308594 -203.19175781 59.15308594 -202.3671875 58.2890625 C-194.45966712 50.02046812 -186.33398077 42.61809169 -177 36 C-176.18039795 35.40590332 -176.18039795 35.40590332 -175.34423828 34.79980469 C-150.18137404 16.66269813 -121.23990638 5.27926763 -91 -1 C-90.17580566 -1.17789063 -89.35161133 -1.35578125 -88.50244141 -1.5390625 C-60.54892718 -7.29772638 -27.74665554 -6.30496003 0 0 Z M-99.125 94.25 C-130.59706232 130.85131192 -133.73467106 186.29963903 -134.5625 232.1875 C-134.58367889 233.29942719 -134.60485779 234.41135437 -134.62667847 235.55697632 C-135.20722173 266.70162507 -135.09584295 297.85147504 -135 329 C-121.75017135 325.33157014 -121.75017135 325.33157014 -109 320.25 C-108.2663623 319.91419922 -107.53272461 319.57839844 -106.77685547 319.23242188 C-94.27080409 313.42709091 -82.22971697 307.03680161 -71 299 C-70.03964844 298.31421875 -69.07929688 297.6284375 -68.08984375 296.921875 C-50.53602386 284.06295029 -34.32825777 269.23954089 -21 252 C-19.85724609 250.60007812 -19.85724609 250.60007812 -18.69140625 249.171875 C9.23372784 214.32130766 25.59174028 171.40181987 21.78173828 126.42333984 C19.57277009 107.74610613 11.52263972 91.19235942 -3 79 C-34.77938719 56.27556149 -74.1249935 67.63866496 -99.125 94.25 Z M565.15234375 498.33984375 C554.37950464 511.65436904 551.41323554 527.3177219 553 544 C555.14211773 559.79068036 563.45740626 573.40314689 574 585 C574.5775 585.6703125 575.155 586.340625 575.75 587.03125 C603.8761721 617.66868746 652.43245092 631.07758128 692.5703125 632.91015625 C693.70210937 632.93980469 694.83390625 632.96945312 696 633 C697.19367188 633.03996094 698.38734375 633.07992187 699.6171875 633.12109375 C708.08626675 633.26830678 716.43730618 632.75048792 724.875 632.0625 C725.94032959 631.97572998 727.00565918 631.88895996 728.10327148 631.79956055 C733.21587039 631.53152061 733.21587039 631.53152061 738 630 C737.49629187 622.81000403 736.24108348 616.08029319 734.375 609.125 C733.97522949 607.62670654 733.97522949 607.62670654 733.56738281 606.09814453 C727.74479614 584.75204136 719.97663256 563.12700336 707 545 C706.32582031 544.04351563 705.65164063 543.08703125 704.95703125 542.1015625 C684.14228585 513.43984228 652.28920394 487.76480593 616.55102539 481.72241211 C597.12629756 478.83880651 578.78162145 483.69444486 565.15234375 498.33984375 Z M1749 510 C1748.24203125 510.67546875 1747.4840625 511.3509375 1746.703125 512.046875 C1708.45891839 548.12119754 1697.6369796 608.92449371 1695.92984009 659.06048584 C1695.79360179 664.20671745 1695.75459155 669.35212869 1695.75 674.5 C1695.74899292 675.29526093 1695.74798584 676.09052185 1695.74694824 676.90988159 C1695.7711954 705.57322674 1698.72027146 733.76932118 1708 761 C1736.58942884 753.32227353 1759.83944488 737.24053099 1781 717 C1781.94875 716.0925 1782.8975 715.185 1783.875 714.25 C1790.07647544 708.18633512 1795.70139256 701.86390064 1801 695 C1801.41717285 694.46455566 1801.8343457 693.92911133 1802.26416016 693.37744141 C1833.68324005 652.80852943 1853.63827714 601.82942276 1848.71582031 550.00830078 C1846.52579499 533.63595328 1840.67813343 518.70292919 1830 506 C1829.44699219 505.33484375 1828.89398437 504.6696875 1828.32421875 503.984375 C1823.70487554 498.91301969 1818.15737368 495.90276188 1812 493 C1811.30390625 492.65710938 1810.6078125 492.31421875 1809.890625 491.9609375 C1788.4534364 483.07032052 1764.62058937 495.91272002 1749 510 Z M475 638 C463.94697659 685.30694017 469.99013871 737.01396331 484 783 C484.26506348 783.87769043 484.53012695 784.75538086 484.80322266 785.65966797 C492.72325421 811.32652884 505.2719253 835.74846963 523 856 C523.70511719 856.83789062 524.41023438 857.67578125 525.13671875 858.5390625 C542.41891623 878.5826883 567.4618206 893.13173213 594 896 C625.49893511 897.57768579 651.67684874 890.9100639 676 870 C676.79921875 869.32324219 677.5984375 868.64648438 678.421875 867.94921875 C717.61083085 833.81488937 737.91942598 782.95348346 742 732 C741.16903809 732.09087891 740.33807617 732.18175781 739.48193359 732.27539062 C675.84918546 739.03837517 610.4103645 734.8184047 553 704 C552.27184082 703.61585938 551.54368164 703.23171875 550.79345703 702.8359375 C531.10154765 692.42093744 514.19259296 679.26015432 498 664 C497.2678125 663.31035156 496.535625 662.62070312 495.78125 661.91015625 C489.16303604 655.48891295 483.29834255 648.35538535 478 640.8125 C477.34 639.884375 476.68 638.95625 476 638 C475.67 638 475.34 638 475 638 Z M2332 1123 C2331.44248047 1123.45455566 2330.88496094 1123.90911133 2330.31054688 1124.37744141 C2317.29399374 1135.07170645 2305.34115058 1146.67436295 2295 1160 C2294.236875 1160.93457031 2293.47375 1161.86914062 2292.6875 1162.83203125 C2264.5243802 1197.99079779 2248.30019343 1241.18322279 2252.21826172 1286.52587891 C2254.25201334 1302.94958491 2261.49877555 1320.24897962 2274.4375 1331.03125 C2289.51483674 1342.51058593 2306.25492094 1346.72219145 2325 1345 C2339.49315215 1343.0159956 2353.12091307 1336.80080575 2364 1327 C2364.88300781 1326.20980469 2365.76601562 1325.41960937 2366.67578125 1324.60546875 C2400.88457175 1292.28928077 2407.09606875 1237.13428332 2408.40234375 1192.69921875 C2409.36176498 1156.14813798 2409.11057585 1119.56048799 2409 1083 C2383.13997488 1083 2351.3006971 1107.21974065 2332 1123 Z " fill="#FF7227" transform="translate(512,73)"/>
</svg>
