<?xml version="1.0" standalone="no"?>
<!DOCTYPE svg PUBLIC "-//W3C//DTD SVG 20010904//EN"
 "http://www.w3.org/TR/2001/REC-SVG-20010904/DTD/svg10.dtd">
<svg version="1.0" xmlns="http://www.w3.org/2000/svg"
 width="866.000000pt" height="650.000000pt" viewBox="0 0 866.000000 650.000000"
 preserveAspectRatio="xMidYMid meet">

<g transform="translate(0.000000,650.000000) scale(0.100000,-0.100000)"
fill="#000000" stroke="none">
<path d="M3465 3980 c-97 -21 -149 -57 -191 -132 -29 -52 -29 -56 -32 -234 -2
-116 1 -197 8 -224 18 -65 93 -133 231 -207 220 -119 239 -143 239 -308 0
-115 -10 -143 -60 -166 -54 -26 -155 -12 -186 25 -21 24 -24 37 -24 117 l0 89
-106 0 -106 0 4 -117 c3 -96 8 -126 25 -158 29 -54 78 -99 138 -127 44 -20 65
-23 180 -23 122 0 133 2 187 28 64 31 101 70 132 137 19 40 21 64 21 215 0
140 -3 178 -18 217 -27 70 -96 127 -238 198 -215 108 -219 113 -219 300 l0
132 29 29 c26 26 36 29 91 29 74 0 114 -19 129 -61 6 -18 11 -87 11 -154 l0
-122 78 17 c135 29 136 32 130 194 -3 91 -7 110 -33 162 -33 64 -94 114 -163
134 -51 15 -208 21 -257 10z"/>
<path d="M4337 3977 c-76 -18 -133 -60 -171 -127 l-31 -55 -3 -524 c-2 -464
-1 -531 14 -577 22 -70 63 -117 131 -151 48 -23 73 -28 156 -31 143 -6 215 15
282 82 62 63 75 101 82 239 l6 107 -107 0 -106 0 0 -90 c0 -84 -2 -92 -27
-120 -24 -26 -36 -31 -83 -34 -63 -3 -114 13 -129 42 -8 14 -11 180 -11 515
l0 495 31 26 c26 22 40 26 94 26 53 0 69 -4 92 -24 l28 -24 3 -154 3 -154 87
18 c119 25 122 30 122 173 0 184 -35 262 -142 314 -55 27 -77 32 -163 36 -63
3 -121 0 -158 -8z"/>
<path d="M250 3250 l0 -730 95 0 95 0 0 462 c0 254 3 458 7 454 4 -4 53 -141
108 -304 l100 -297 76 -3 76 -3 63 183 c34 101 81 239 105 308 l44 125 0 -462
1 -463 100 0 100 0 -2 728 -3 727 -96 3 -96 3 -144 -398 c-120 -333 -145 -394
-152 -373 -5 14 -71 192 -146 395 l-137 370 -97 3 -97 3 0 -731z"/>
<path d="M1635 3968 c-5 -14 -48 -233 -190 -963 -47 -242 -88 -450 -90 -462
-5 -23 -4 -23 100 -23 58 0 105 3 105 8 0 4 20 117 45 252 25 135 68 369 95
520 28 151 53 286 56 300 4 16 26 -80 60 -265 29 -159 53 -296 53 -302 1 -10
-22 -13 -83 -13 -57 0 -87 -4 -94 -13 -12 -14 -42 -129 -42 -159 0 -16 13 -18
129 -18 l128 0 7 -42 c4 -24 16 -94 27 -155 l21 -113 104 0 c103 0 104 0 99
23 -2 12 -35 182 -71 377 -37 195 -97 513 -133 705 l-66 350 -128 3 c-96 2
-128 0 -132 -10z"/>
<path d="M2317 3974 c-4 -4 -7 -333 -7 -731 l0 -723 100 0 100 0 2 460 3 461
144 -383 c79 -211 157 -418 173 -460 l30 -78 89 0 89 0 -2 728 -3 727 -97 3
-98 3 -2 -446 -3 -445 -167 443 -166 442 -89 3 c-49 1 -92 0 -96 -4z"/>
<path d="M5195 3968 c-4 -12 -59 -294 -219 -1118 -31 -157 -58 -295 -61 -307
-5 -23 -4 -23 100 -23 58 0 105 2 105 5 0 4 71 391 165 904 19 101 35 185 37
187 2 1 25 -119 52 -269 27 -150 51 -284 53 -299 l6 -28 -86 0 c-58 0 -88 -4
-96 -13 -9 -12 -41 -141 -41 -168 0 -5 56 -9 129 -9 l128 0 16 -87 c9 -49 21
-118 28 -155 l11 -68 105 0 c104 0 105 0 100 23 -3 12 -47 240 -97 507 -50
267 -110 584 -133 705 l-43 220 -127 3 c-97 2 -128 0 -132 -10z"/>
<path d="M5876 3965 c-3 -9 -5 -336 -3 -728 l2 -712 108 -3 107 -3 0 636 0
635 99 0 c92 0 102 -2 130 -26 l31 -26 0 -235 0 -235 -29 -29 c-27 -26 -36
-29 -96 -29 -100 0 -105 -5 -105 -105 l0 -85 103 0 c63 0 123 6 154 15 72 21
137 82 163 152 20 54 21 72 18 327 l-3 271 -31 55 c-38 68 -100 112 -179 128
-33 7 -147 12 -261 12 -172 0 -203 -2 -208 -15z"/>
<path d="M6767 3973 c-4 -3 -7 -332 -7 -730 l0 -723 295 0 295 0 0 100 0 100
-190 0 -190 0 0 525 0 525 190 0 190 0 0 105 0 105 -288 0 c-159 0 -292 -3
-295 -7z"/>
<path d="M7550 3250 l0 -731 243 3 244 3 58 30 c77 40 119 99 135 192 8 48 11
210 8 543 -3 471 -3 475 -26 525 -30 65 -73 108 -136 137 -48 21 -67 23 -288
26 l-238 4 0 -732z m431 530 c48 -26 49 -38 49 -530 0 -492 -1 -504 -49 -530
-11 -5 -65 -10 -120 -10 l-101 0 0 540 0 540 101 0 c55 0 109 -5 120 -10z"/>
<path d="M8253 3968 c9 -7 18 -31 20 -53 l4 -40 1 47 c1 26 7 49 15 51 6 3 -3
6 -22 6 -30 1 -33 -1 -18 -11z"/>
<path d="M8322 3928 c1 -41 2 -45 5 -18 l5 35 17 -34 18 -33 14 33 14 34 6
-35 c6 -31 7 -29 8 18 1 61 -10 67 -28 15 l-14 -37 -19 37 c-10 20 -21 37 -23
37 -3 0 -4 -24 -3 -52z"/>
<path d="M7022 3354 c-20 -14 -22 -24 -22 -100 l0 -84 160 0 160 0 0 100 0
100 -138 0 c-108 0 -142 -3 -160 -16z"/>
</g>
</svg>
