<?xml version="1.0" encoding="UTF-8"?>
<svg version="1.1" xmlns="http://www.w3.org/2000/svg" width="3840" height="2160">
<path d="M0 0 C3.95876402 0.0161273 7.91650985 -0.00000238 11.87524414 -0.01904297 C35.29768538 -0.03864939 58.45665876 1.94173949 81.58032227 5.70361328 C82.5535997 5.85943375 82.5535997 5.85943375 83.54653931 6.0184021 C172.88491645 20.38261176 257.59650173 58.83592138 339.39282227 129.39111328 C340.21008789 130.11556641 341.02735352 130.84001953 341.86938477 131.58642578 C349.22010066 138.17453138 356.21899892 145.10894797 363.20532227 152.07861328 C363.70518646 152.57588928 364.20505066 153.07316528 364.72006226 153.58551025 C370.49758398 159.33945122 376.1237287 165.16400271 381.39282227 171.39111328 C382.30530315 172.44734442 383.21804882 173.50334688 384.13110352 174.55908203 C441.69454253 242.08038455 481.27521355 324.53439709 503.39282227 462.39111328 C503.48708496 463.56125977 503.58134766 464.73140625 503.6784668 465.93701172 C504.54909965 478.03865269 504.63608823 490.13685486 504.64282227 502.26611328 C504.64383438 503.91568024 504.64383438 503.91568024 504.64486694 505.59857178 C504.60681145 544.87540175 499.74722118 583.2191306 490.39282227 621.39111328 C490.14338867 622.42268555 489.89395508 623.45425781 489.63696289 624.51708984 C482.19540015 654.8859352 471.38008892 683.99507753 458.39282227 712.39111328 C457.77262207 713.76589844 457.77262207 713.76589844 457.13989258 715.16845703 C445.43202116 741.07948364 430.87637741 765.48872108 414.54467773 788.734375 C412.78806124 791.26095396 411.08976094 793.82415062 409.39282227 796.39111328 C406.15469619 793.40004621 403.95940106 790.32358733 401.70532227 786.54345703 C401.36605209 785.97889801 401.02678192 785.41433899 400.67723083 784.83267212 C399.95265802 783.6258657 399.23063141 782.41752744 398.51095581 781.20779419 C396.6201413 778.0300141 394.71049772 774.86357147 392.80297852 771.69580078 C392.42456314 771.06628006 392.04614777 770.43675934 391.65626526 769.78816223 C388.45142887 764.46491809 385.16577316 759.19605059 381.83032227 753.95361328 C381.34354004 753.18750732 380.85675781 752.42140137 380.35522461 751.63208008 C379.44164399 750.19439933 378.5279167 748.75681176 377.61401367 747.31933594 C370.88532679 736.69495189 364.43265085 725.89234812 357.89672852 715.14892578 C344.42922736 693.01465302 330.84483101 670.95249918 317.20141602 648.92626953 C311.35061984 639.48005536 305.54490567 630.00754137 299.76782227 620.51611328 C298.86906372 619.03957275 298.86906372 619.03957275 297.95214844 617.53320312 C294.89680392 612.51188483 291.84496573 607.48848299 288.79907227 602.46142578 C282.9694037 592.84793897 277.08783676 583.27560107 271.06103516 573.78442383 C260.7615953 557.5374913 250.79603973 541.08021294 240.82546997 524.63012695 C227.73723766 503.03860459 214.45126692 481.56726908 201.11938477 460.12548828 C195.19550779 450.5898553 189.34235804 441.01739804 183.58032227 431.38305664 C180.68358874 426.54008028 177.77799196 421.70329383 174.83032227 416.89111328 C174.2309082 415.91142578 173.63149414 414.93173828 173.01391602 413.92236328 C171.56305576 411.65692365 170.01855823 409.53189739 168.39282227 407.39111328 C166.20407932 411.07055516 164.01706456 414.75101728 161.83154297 418.43237305 C161.09013796 419.68069144 160.34828762 420.92874547 159.60595703 422.17651367 C157.82975847 425.16239568 156.06110059 428.15205932 154.30932617 431.15234375 C153.15031089 433.11100576 151.96242687 435.05350198 150.72241211 436.96191406 C150.02365967 438.07348877 150.02365967 438.07348877 149.31079102 439.20751953 C148.91013428 439.81152588 148.50947754 440.41553223 148.09667969 441.0378418 C145.91142646 448.34400059 149.47854452 458.03730323 151.05297852 465.27783203 C151.46027233 467.17724583 151.86756512 469.07665984 152.27481174 470.97608376 C152.70465427 472.97687663 153.13665205 474.97719305 153.5692749 476.97738647 C154.46052331 481.09895857 155.34454148 485.2220603 156.22729492 489.34545898 C158.41186334 499.54472246 160.60493919 509.74214552 162.80541992 519.93798828 C163.7919067 524.50957183 164.77277267 529.08231991 165.74874878 533.65615845 C166.25911078 536.0379578 166.77715879 538.41800269 167.29541016 540.7980957 C167.59655279 542.20791331 167.89728261 543.61781919 168.19750977 545.02783203 C168.45516113 546.22110107 168.7128125 547.41437012 168.97827148 548.64379883 C169.39282227 551.39111328 169.39282227 551.39111328 168.39282227 553.39111328 C163.55557315 546.40211074 159.28542403 539.14855833 155.08032227 531.76611328 C153.74373364 529.43165748 152.40449168 527.0987304 151.06469727 524.76611328 C150.10853516 523.10128906 150.10853516 523.10128906 149.13305664 521.40283203 C147.07052845 517.83333879 144.96762578 514.29119594 142.83032227 510.76611328 C135.03582764 497.87351821 127.40740099 484.8678834 120.08032227 471.70361328 C114.17365637 461.10436674 107.96796259 450.67532206 101.81732178 440.21656799 C98.05284437 433.81519259 94.29850177 427.40789582 90.5446167 421.00030518 C85.27105644 411.99946923 79.99493662 403.00014473 74.69775391 394.01318359 C71.85081767 389.18046721 69.02488575 384.33559545 66.19995117 379.48999023 C64.52635585 376.62009758 62.85065965 373.7514462 61.17407227 370.88330078 C55.11191125 360.50769671 49.07524143 350.1182256 43.08032227 339.70361328 C36.65469014 328.54467584 30.15619493 317.4298853 23.63616943 306.32598877 C23.11352509 305.43590118 23.11352509 305.43590118 22.58032227 304.52783203 C22.23366516 303.93750183 21.88700806 303.34717163 21.52984619 302.73895264 C15.79494676 292.96953458 10.0952814 283.17948928 4.39282227 273.39111328 C1.6922516 275.82142481 0.06405059 278.44789003 -1.72436523 281.59814453 C-2.32410156 282.64760254 -2.92383789 283.69706055 -3.54174805 284.77832031 C-4.18208984 285.90866699 -4.82243164 287.03901367 -5.48217773 288.20361328 C-6.84709315 290.59423779 -8.21561011 292.9827962 -9.58374023 295.37158203 C-10.09886169 296.27257629 -10.09886169 296.27257629 -10.62438965 297.19177246 C-13.65752328 302.49317509 -16.74316658 307.76190895 -19.85717773 313.01611328 C-20.36651855 313.87575684 -20.87585938 314.73540039 -21.40063477 315.62109375 C-22.50403675 317.48147693 -23.60807077 319.34148535 -24.71264648 321.20117188 C-26.50493708 324.21896426 -28.29558082 327.23772656 -30.08575439 330.2567749 C-32.17564497 333.78106746 -34.26636934 337.30486517 -36.35717773 340.82861328 C-36.94867615 341.82565277 -36.94867615 341.82565277 -37.55212402 342.84283447 C-41.74553373 349.9099928 -45.9507016 356.96964392 -50.18530273 364.01220703 C-54.02641126 370.40345686 -57.81682374 376.82333807 -61.58059692 383.26049805 C-62.64906318 385.08774401 -63.71869913 386.91430127 -64.78857422 388.74072266 C-68.21584055 394.59235107 -71.63964657 400.44599664 -75.0609436 406.30111694 C-76.56799025 408.87965716 -78.07615605 411.45754184 -79.58447266 414.03533936 C-80.63158002 415.82596362 -81.67702689 417.61754967 -82.72241211 419.40917969 C-83.37661133 420.52728027 -84.03081055 421.64538086 -84.70483398 422.79736328 C-85.33276855 423.90853516 -85.96070313 425.01970703 -86.60766602 426.16455078 C-88.60717773 429.39111328 -88.60717773 429.39111328 -91.0559082 432.24267578 C-94.24946587 436.20736563 -96.60184151 439.55530306 -96.61154175 444.71026611 C-95.89864409 451.02769892 -94.22234435 457.14951854 -92.63293457 463.29260254 C-91.46223113 467.8828412 -90.45685478 472.50566163 -89.4597168 477.13623047 C-89.27337048 478.00104664 -89.08702415 478.86586281 -88.89503098 479.75688553 C-88.50874127 481.55204811 -88.12281029 483.34728791 -87.73722076 485.14260101 C-86.74447902 489.74648715 -85.73211714 494.34604106 -84.72045898 498.94580078 C-84.51713581 499.87182476 -84.31381264 500.79784874 -84.10432816 501.75193405 C-83.05551722 506.52761244 -82.00352343 511.30256919 -80.94750977 516.07666016 C-79.91055793 520.76592401 -78.88121117 525.45680103 -77.856884 530.14883804 C-77.46821205 531.92212931 -77.0766587 533.69479162 -76.68214798 535.46679306 C-76.13644301 537.91905433 -75.60042562 540.37324385 -75.06665039 542.828125 C-74.90259705 543.55417435 -74.7385437 544.28022369 -74.56951904 545.02827454 C-73.86247275 548.32641993 -73.51937224 550.12769681 -74.60717773 553.39111328 C-77.35180777 550.08959639 -79.66340698 546.78817044 -81.78686523 543.05908203 C-82.37854492 542.02589844 -82.97022461 540.99271484 -83.57983398 539.92822266 C-84.20760742 538.82285156 -84.83538086 537.71748047 -85.48217773 536.57861328 C-86.48957794 534.81628232 -87.49856831 533.05486796 -88.50762939 531.29348755 C-89.19638016 530.09102257 -89.8846498 528.88828189 -90.57244873 527.68527222 C-93.88168194 521.89965465 -97.24046185 516.14344834 -100.60717773 510.39111328 C-105.49305589 502.03418121 -110.34118273 493.65631887 -115.16967773 485.26611328 C-120.24006639 476.46077636 -125.3611248 467.68814812 -130.54174805 458.94726562 C-134.81515897 451.73669948 -139.06819661 444.51441429 -143.30889893 437.28457642 C-144.03315177 436.04999573 -144.75770599 434.81559178 -145.48260498 433.58139038 C-150.58850896 424.88748491 -155.62191054 416.15466195 -160.60717773 407.39111328 C-168.56525004 419.49063137 -176.17143363 431.78054569 -183.66235352 444.17382812 C-187.1589289 449.95814528 -190.66357409 455.73756771 -194.16967773 461.51611328 C-194.53085693 462.11142853 -194.89203613 462.70674377 -195.26416016 463.32009888 C-203.78169615 477.35502177 -212.42215246 491.31099762 -221.13867188 505.22314453 C-230.61339228 520.34968676 -239.9398662 535.56218669 -249.08789062 550.88867188 C-254.53377783 560.00987126 -260.10865162 569.04200527 -265.75488281 578.04052734 C-271.13994011 586.62653108 -276.46045532 595.25100859 -281.76416016 603.88745117 C-285.35676837 609.73676904 -288.96166035 615.57793825 -292.58666992 621.40722656 C-297.7993923 629.79228122 -302.92046394 638.22651562 -307.98217773 646.70361328 C-313.51712769 655.96928727 -319.16692655 665.15410281 -324.90698242 674.29394531 C-330.2455988 682.79654646 -335.51485498 691.34043859 -340.76928711 699.89526367 C-344.32883996 705.68993497 -347.89770157 711.4784505 -351.4855957 717.25561523 C-357.45380121 726.86586534 -363.34163267 736.52325641 -369.20236206 746.19924927 C-373.96376216 754.05920502 -378.75749016 761.89769844 -383.60717773 769.70361328 C-387.39754869 775.80480108 -391.1615505 781.91948454 -394.85717773 788.07861328 C-395.22842773 788.69712158 -395.59967773 789.31562988 -395.98217773 789.95288086 C-397.2497377 792.07452028 -398.50148031 794.17971843 -399.60717773 796.39111328 C-400.26717773 796.39111328 -400.92717773 796.39111328 -401.60717773 796.39111328 C-403.07307809 794.49247837 -404.40430112 792.60189557 -405.72045898 790.60205078 C-406.12623169 789.99627701 -406.53200439 789.39050323 -406.95007324 788.76637268 C-408.2816519 786.77171205 -409.60154923 784.76968401 -410.91967773 782.76611328 C-411.37224945 782.08163116 -411.82482117 781.39714905 -412.29110718 780.69192505 C-454.91388559 716.17919969 -482.36630658 643.9403133 -492.79467773 567.20361328 C-492.94960693 566.06617676 -493.10453613 564.92874023 -493.26416016 563.75683594 C-493.75312716 559.97233247 -494.19604696 556.18470244 -494.60717773 552.39111328 C-494.6954483 551.58293152 -494.78371887 550.77474976 -494.87466431 549.94207764 C-496.57293176 533.91613162 -496.96946424 517.9986155 -496.91967773 501.89111328 C-496.91785492 500.66165985 -496.9160321 499.43220642 -496.91415405 498.16549683 C-496.86735766 479.38002398 -496.23322729 461.01219195 -493.60717773 442.39111328 C-493.42757163 441.05464474 -493.24889405 439.71805115 -493.07104492 438.38134766 C-486.30956475 387.95142048 -472.9661164 338.64551107 -451.60717773 292.39111328 C-450.96594971 290.98539063 -450.96594971 290.98539063 -450.31176758 289.55126953 C-437.53566214 261.64170388 -421.94054818 235.0049659 -403.8972168 210.171875 C-402.7650704 208.60906731 -401.64958291 207.03421948 -400.53686523 205.45751953 C-394.61834002 197.12453319 -388.12054808 189.26110762 -381.60717773 181.39111328 C-381.12313477 180.80507324 -380.6390918 180.2190332 -380.14038086 179.61523438 C-369.76989168 167.0957413 -358.69061304 155.28754497 -347.19775391 143.79638672 C-345.53640065 142.1328252 -343.88327084 140.46136224 -342.23022461 138.78955078 C-336.4060113 132.93557699 -330.50008751 127.44623336 -324.01025391 122.32666016 C-321.56684455 120.3586271 -319.27244731 118.28433464 -316.98217773 116.14111328 C-309.91945919 109.72451095 -302.25208668 104.08693261 -294.60717773 98.39111328 C-293.8846582 97.8490625 -293.16213867 97.30701172 -292.41772461 96.74853516 C-280.58037581 87.89449658 -268.29516337 79.96822497 -255.60717773 72.39111328 C-254.8119873 71.91432129 -254.01679688 71.4375293 -253.19750977 70.94628906 C-198.38052378 38.21648155 -139.50499049 16.93639626 -76.66967773 6.14111328 C-75.99081512 6.02182465 -75.31195251 5.90253601 -74.61251831 5.77963257 C-49.89337977 1.48573299 -25.06040553 -0.12072828 0 0 Z " fill="#4580FF" transform="translate(584.607177734375,681.60888671875)"/>
<path d="M0 0 C0.81985382 -0.00365067 1.63970764 -0.00730133 2.48440552 -0.01106262 C5.19904192 -0.01917874 7.91308321 -0.00554584 10.62768555 0.0090332 C12.51474507 0.00955183 14.40180514 0.00903402 16.28886414 0.00752258 C20.24750822 0.00761236 24.2059489 0.01805093 28.16455078 0.03613281 C33.23201485 0.05877355 38.29918043 0.05937308 43.3666811 0.05261517 C47.26580951 0.04926798 51.16487026 0.05592018 55.06398582 0.0657444 C56.93184238 0.06958726 58.79970647 0.07074841 60.6675663 0.06915855 C63.28373067 0.06878641 65.89951751 0.08145146 68.515625 0.09765625 C69.28415298 0.09517883 70.05268097 0.09270142 70.84449768 0.09014893 C76.02969364 0.14123406 80.86673675 0.28309412 84.68690491 4.11068726 C85.14955246 4.80981232 85.61220001 5.50893738 86.08886719 6.22924805 C86.62705582 7.02543549 87.16524445 7.82162292 87.71974182 8.64193726 C88.56362709 9.94320053 88.56362709 9.94320053 89.42456055 11.27075195 C90.33110634 12.6270018 90.33110634 12.6270018 91.25596619 14.01065063 C93.19066943 16.91308674 95.10259544 19.82976042 97.0144043 22.74731445 C98.27271828 24.64150875 99.5324711 26.53474805 100.79370117 28.42700195 C107.43506197 38.41375256 113.97610052 48.46587141 120.50253296 58.52796936 C124.66707723 64.94610143 128.88190807 71.32785448 133.1394043 77.68481445 C134.4037447 79.57672985 135.66806733 81.46865712 136.93237305 83.3605957 C137.57585693 84.32263916 138.21934082 85.28468262 138.88232422 86.27587891 C141.15832673 89.6811567 143.4305072 93.08896395 145.7019043 96.49731445 C148.84569385 101.21469822 151.99200253 105.93038307 155.14151001 110.64395142 C157.68350748 114.44854983 160.22421778 118.25400675 162.7644043 122.05981445 C163.31327301 122.88214569 163.86214172 123.70447693 164.42764282 124.55172729 C173.71890259 138.47740545 182.94018218 152.44821467 192.1394043 166.43481445 C202.78744382 182.6280692 202.78744382 182.6280692 213.6394043 198.68481445 C224.89941855 215.14175836 235.89096925 231.78091188 246.9519043 248.37231445 C247.2819043 166.86231445 247.6119043 85.35231445 247.9519043 1.37231445 C253.53719054 0.75172709 258.53053516 0.24671862 264.06054688 0.24291992 C264.70892517 0.2411676 265.35730347 0.23941528 266.02532959 0.23760986 C268.1323935 0.23326859 270.23937105 0.23609991 272.34643555 0.23950195 C273.82614661 0.2388271 275.30585756 0.23785557 276.78556824 0.23660278 C279.86926338 0.23513665 282.95292936 0.23724682 286.03662109 0.24194336 C289.98528495 0.24766517 293.93388118 0.24433935 297.88254261 0.2383709 C300.93058278 0.23475729 303.97860691 0.23590712 307.02664757 0.23849869 C308.48307999 0.23916444 309.93951389 0.23835184 311.3959446 0.23601913 C313.42737423 0.23347678 315.45880901 0.23803944 317.49023438 0.24291992 C318.64445389 0.24371552 319.7986734 0.24451111 320.98786926 0.24533081 C323.52150865 0.35387567 325.52895877 0.71533991 327.9519043 1.37231445 C327.97476846 50.52941021 327.99240139 99.68650543 328.00296963 148.84360546 C328.00422041 154.64052865 328.00551472 160.43745183 328.00683594 166.234375 C328.0072294 167.96554749 328.0072294 167.96554749 328.00763082 169.73169316 C328.011988 188.44514678 328.01987581 207.15859734 328.02905709 225.87204915 C328.03839229 245.05853433 328.04395962 264.2450179 328.04599279 283.43150526 C328.0473683 295.28075333 328.05172038 307.12999275 328.05982076 318.97923816 C328.06508658 327.09294391 328.06670897 335.20664515 328.06540567 343.32035249 C328.06476203 348.00897424 328.06578271 352.69758085 328.07110977 357.38619995 C328.07594303 361.67122299 328.07624344 365.95622057 328.07280319 370.24124474 C328.07237742 371.79845329 328.07367378 373.35566336 328.07678748 374.91286885 C328.08075038 377.01559839 328.07866839 379.11823375 328.07495213 381.22096157 C328.07533185 382.39315823 328.07571157 383.56535489 328.07610279 384.77307266 C327.9519043 387.37231445 327.9519043 387.37231445 326.9519043 388.37231445 C324.58466144 388.69550776 322.24102568 388.95386077 319.86303711 389.16821289 C319.11897834 389.23641267 318.37491957 389.30461245 317.60831356 389.37487888 C253.89594358 394.95309897 253.89594358 394.95309897 239.43481445 384.3894043 C229.57108762 375.27497178 224.02829421 362.84989008 219.13867188 350.56225586 C216.42012962 343.82908229 212.53571317 338.21243655 208.33279419 332.337677 C205.67504659 328.55501654 203.17743672 324.66526701 200.65112305 320.79418945 C199.51286845 319.06016598 198.37402035 317.32653198 197.23461914 315.59326172 C196.64944519 314.70261017 196.06427124 313.81195862 195.46136475 312.89431763 C184.68773838 296.50289349 173.81940479 280.18026858 162.8269043 263.93481445 C154.14956189 251.11014766 145.53799625 238.25128708 137.08520508 225.27758789 C130.19107557 214.70202527 123.20299393 204.18980852 116.2019043 193.68481445 C115.64097076 192.84221069 115.08003723 191.99960693 114.50210571 191.13146973 C112.88775024 188.70695087 111.27168552 186.28358088 109.6550293 183.8605957 C109.18282455 183.1512941 108.71061981 182.44199249 108.22410583 181.7111969 C105.89746144 178.22912204 103.53632819 174.77880545 101.11175537 171.36418152 C95.08571218 162.76804523 89.32758238 153.98796394 83.5144043 145.24731445 C82.293809 143.41390933 81.07310679 141.58057538 79.85229492 139.74731445 C76.88426399 135.28980156 73.91755741 130.83140965 70.9519043 126.37231445 C70.95016805 126.92420281 70.9484318 127.47609117 70.94664294 128.04470342 C70.84371953 160.72009666 70.7356298 193.39546821 70.62078736 226.07082167 C70.607017 229.99008541 70.59329002 233.9093493 70.57958984 237.82861328 C70.57686154 238.60890143 70.57413324 239.38918957 70.57132225 240.19312281 C70.52719088 252.84419801 70.48657671 265.4952822 70.44725168 278.14637315 C70.40685302 291.11780412 70.36269943 304.08921836 70.31502575 317.06062466 C70.28570402 325.07117897 70.25934668 333.08173197 70.23672532 341.09230805 C70.21909583 347.22436702 70.19625403 353.35639626 70.17141342 359.48843002 C70.16202136 362.01165626 70.15435391 364.53488956 70.14848518 367.05812645 C70.14026046 370.48661679 70.12599432 373.91502844 70.11012268 377.3434906 C70.10914457 378.35611526 70.10816647 379.36873993 70.10715872 380.41205019 C70.10168428 381.32320748 70.09620983 382.23436478 70.0905695 383.1731329 C70.08791145 383.96560923 70.08525341 384.75808555 70.08251482 385.57457632 C69.9519043 387.37231445 69.9519043 387.37231445 68.9519043 388.37231445 C66.48746373 388.46731994 64.05115803 388.49789431 61.58642578 388.48583984 C60.81574768 388.48598587 60.04506958 388.4861319 59.2510376 388.48628235 C56.69166291 388.48558305 54.13236009 388.47778991 51.57299805 388.4699707 C49.80322815 388.46810658 48.03345773 388.46668265 46.26368713 388.46568298 C41.59639064 388.46185733 36.92912506 388.45202666 32.26184082 388.440979 C27.50293394 388.43076589 22.74402209 388.42618558 17.98510742 388.42114258 C8.64069277 388.41040443 -0.7036989 388.39332745 -10.0480957 388.37231445 C-11.44617456 385.57615674 -11.17616327 383.28307186 -11.17952347 380.15314579 C-11.1815761 379.50508977 -11.18362874 378.85703375 -11.18574357 378.18933967 C-11.19144141 375.99681829 -11.18995292 373.80435918 -11.1885376 371.61183167 C-11.19111963 370.03244435 -11.19413234 368.45305769 -11.197541 366.87367195 C-11.2056331 362.51717645 -11.20740179 358.16069741 -11.20813847 353.80419528 C-11.20998516 349.1122365 -11.21753047 344.42028634 -11.22427368 339.72833252 C-11.23787255 329.46204918 -11.24388396 319.19576973 -11.24828434 308.92947888 C-11.25104378 302.52420738 -11.25528054 296.11893739 -11.25978851 289.71366692 C-11.27198252 271.99327597 -11.28228202 254.27288624 -11.2856636 236.55249119 C-11.28588317 235.41772101 -11.28610274 234.28295082 -11.28632896 233.11379367 C-11.28654723 231.97625117 -11.28676551 230.83870866 -11.2869904 229.66669518 C-11.28743388 227.36145564 -11.28788044 225.0562161 -11.28833008 222.75097656 C-11.28855151 221.60748904 -11.28877294 220.46400152 -11.28900108 219.28586286 C-11.29295154 200.74523395 -11.31041252 182.20464429 -11.3336896 163.66403056 C-11.35737296 144.6469725 -11.36986405 125.62993415 -11.37103152 106.6128611 C-11.37194991 95.92802319 -11.37774338 85.24323642 -11.39585114 74.55841255 C-11.41121141 65.46251027 -11.41639674 56.36667493 -11.40811303 47.27076215 C-11.4041922 42.62639003 -11.40520557 37.98215289 -11.41917038 33.33779716 C-11.43182379 29.09092 -11.43078794 24.84428043 -11.41857967 20.597404 C-11.41660772 19.05636856 -11.41976942 17.51531678 -11.42842403 15.97430439 C-11.43940271 13.88835075 -11.43211153 11.80325269 -11.4200325 9.71732426 C-11.42062959 8.55608447 -11.42122668 7.39484469 -11.42184186 6.19841582 C-11.0480957 3.37231445 -11.0480957 3.37231445 -9.746557 1.4991402 C-6.80350652 -0.45339476 -3.41437424 -0.03369295 0 0 Z " fill="#2C3038" transform="translate(1385.048095703125,906.627685546875)"/>
<path d="M0 0 C1.22956169 -0.00503792 1.22956169 -0.00503792 2.48396301 -0.01017761 C5.20384218 -0.01970461 7.92365986 -0.02163183 10.64355469 -0.02270508 C12.53204372 -0.02591728 14.4205325 -0.02928133 16.309021 -0.03279114 C20.27356544 -0.03878737 24.23808806 -0.04063062 28.20263672 -0.04003906 C33.27794713 -0.0399376 38.35311714 -0.05357084 43.42839432 -0.07081127 C47.33179361 -0.08194352 51.23515915 -0.08395786 55.13857269 -0.08342934 C57.00922885 -0.08460833 58.8798859 -0.08902561 60.75052643 -0.0967617 C63.37154376 -0.10658288 65.99225882 -0.10367476 68.61328125 -0.09765625 C69.76842979 -0.10608551 69.76842979 -0.10608551 70.94691467 -0.11468506 C76.01317041 -0.08519365 80.89256981 0.0397804 84.69276428 3.72213745 C85.10715256 4.3488736 85.52154083 4.97560974 85.94848633 5.62133789 C86.4362001 6.34183319 86.92391388 7.06232849 87.42640686 7.80465698 C87.93763596 8.59510406 88.44886505 9.38555115 88.97558594 10.19995117 C89.80944069 11.44689255 89.80944069 11.44689255 90.66014099 12.71902466 C92.49825475 15.47613979 94.31290764 18.24790369 96.12792969 21.02026367 C97.42080928 22.96910402 98.71510419 24.9170061 100.01074219 26.86401367 C103.38556175 31.94467149 106.74050184 37.03811065 110.08868408 42.13635254 C113.18816923 46.8542461 116.29739305 51.56571076 119.40527344 56.27807617 C123.00234179 61.73434982 126.5970013 67.19217626 130.18481445 72.65454102 C138.550261 85.38307309 147.02667625 98.03245695 155.56542969 110.64526367 C166.83678792 127.29518996 177.96181213 144.03650635 188.99902344 160.8425293 C190.12398832 162.55544299 191.24898782 164.26833394 192.37402344 165.98120117 C192.919599 166.81188614 193.46517456 167.64257111 194.02728271 168.49842834 C199.80939485 177.29281717 205.65078538 186.0475003 211.49801636 194.79867554 C213.98143769 198.51662722 216.46084951 202.23724967 218.94042969 205.95776367 C219.90915958 207.41090208 220.87790743 208.86402851 221.84667969 210.31713867 C230.25292969 222.92651367 238.65917969 235.53588867 247.06542969 248.14526367 C247.39542969 166.63526367 247.72542969 85.12526367 248.06542969 1.14526367 C253.65071593 0.52467631 258.64406055 0.01966784 264.17407227 0.01586914 C264.82245056 0.01411682 265.47082886 0.0123645 266.13885498 0.01055908 C268.24591889 0.00621781 270.35289644 0.00904913 272.45996094 0.01245117 C273.939672 0.01177632 275.41938295 0.01080478 276.89909363 0.009552 C279.98278877 0.00808587 283.06645475 0.01019604 286.15014648 0.01489258 C290.09881034 0.02061439 294.04740657 0.01728857 297.996068 0.01132011 C301.04410817 0.00770651 304.0921323 0.00885634 307.14017296 0.01144791 C308.59660538 0.01211366 310.05303928 0.01130106 311.50946999 0.00896835 C313.54089962 0.006426 315.5723344 0.01098866 317.60375977 0.01586914 C318.75797928 0.01666473 319.91219879 0.01746033 321.10139465 0.01828003 C323.63503404 0.12682489 325.64248416 0.48828913 328.06542969 1.14526367 C328.08829385 50.30235943 328.10592679 99.45945465 328.11649502 148.61655467 C328.1177458 154.41347786 328.11904011 160.21040104 328.12036133 166.00732422 C328.12075479 167.73849671 328.12075479 167.73849671 328.12115621 169.50464237 C328.12551339 188.218096 328.1334012 206.93154656 328.14258248 225.64499836 C328.15191768 244.83148355 328.15748501 264.01796712 328.15951818 283.20445448 C328.16089369 295.05370255 328.16524577 306.90294197 328.17334615 318.75218738 C328.17861197 326.86589312 328.18023436 334.97959437 328.17893106 343.09330171 C328.17828743 347.78192346 328.1793081 352.47053007 328.18463516 357.15914917 C328.18946842 361.44417221 328.18976883 365.72916979 328.18632858 370.01419396 C328.18590282 371.5714025 328.18719917 373.12861258 328.19031287 374.68581807 C328.19427577 376.78854761 328.19219378 378.89118296 328.18847752 380.99391079 C328.18885724 382.16610745 328.18923696 383.33830411 328.18962818 384.54602188 C328.06542969 387.14526367 328.06542969 387.14526367 327.06542969 388.14526367 C324.61385729 388.29341172 322.18929643 388.37685592 319.73510742 388.41748047 C318.58373543 388.4417939 318.58373543 388.4417939 317.40910339 388.46659851 C310.3087476 388.6071015 303.20712614 388.68498135 296.10568142 388.74551678 C291.33400113 388.78645598 286.56437808 388.84671612 281.79370117 388.95458984 C277.18224714 389.05851729 272.57262625 389.1129487 267.96006966 389.13297462 C266.20526051 389.14888113 264.45051649 389.18205299 262.69637871 389.2331295 C249.08159292 389.61043107 249.08159292 389.61043107 244.39981079 386.20812988 C242.2834367 383.63391325 240.68003205 381.05720496 239.06542969 378.14526367 C237.92815078 376.47675733 236.78042515 374.81532097 235.62207031 373.16137695 C234.4835697 371.43275035 233.35026202 369.70069446 232.22167969 367.96557617 C231.60828735 367.03155975 230.99489502 366.09754333 230.36291504 365.13522339 C228.42571202 362.18329057 226.49538191 359.2269408 224.56542969 356.27026367 C223.27293179 354.29729888 221.97996641 352.32464026 220.68652344 350.35229492 C218.81070278 347.49149408 216.93527482 344.63044393 215.06176758 341.76812744 C210.76459678 335.20330048 206.43163129 328.66441022 202.06542969 322.14526367 C200.84793778 320.31326165 199.63049208 318.48122893 198.41308594 316.64916992 C194.88069759 311.35015777 191.31761446 306.07229354 187.74902344 300.79760742 C176.03111867 283.47491593 164.33706128 266.1405924 152.87792969 248.64526367 C152.40549835 247.9241037 151.93306702 247.20294373 151.44631958 246.45993042 C149.59684582 243.63643092 147.74753009 240.81282802 145.89851379 237.98902893 C136.34193709 223.40173164 126.62484912 208.92198115 116.85449219 194.47729492 C116.21555023 193.53207977 115.57660828 192.58686462 114.91830444 191.61300659 C111.72928629 186.89536569 108.53763146 182.1795619 105.34033203 177.4675293 C99.51615082 168.86718236 93.76092643 160.24576261 88.33093262 151.38960266 C85.13735096 146.18674507 81.70162172 141.1891969 78.17089844 136.20776367 C75.68801523 132.59629719 73.38821613 128.86172197 71.06542969 125.14526367 C70.73542969 211.60526367 70.40542969 298.06526367 70.06542969 387.14526367 C66.55910139 388.31403977 63.41100252 388.28522968 59.76416016 388.2746582 C58.65400543 388.27728668 58.65400543 388.27728668 57.52142334 388.27996826 C55.07513078 388.28436972 52.62891048 388.28145538 50.18261719 388.27807617 C48.48536159 388.27874956 46.78810609 388.27971987 45.09085083 388.28097534 C41.53500449 388.28244988 37.97918327 388.28030503 34.42333984 388.27563477 C29.85541734 388.26992894 25.28755347 388.27322341 20.7196331 388.27920723 C17.21619216 388.28281201 13.71276524 388.28167479 10.20932388 388.27907944 C8.52433388 388.27841039 6.83934263 388.27923783 5.1543541 388.28155899 C2.80550485 388.2840851 0.45675217 388.28024594 -1.89208984 388.2746582 C-2.59443756 388.27668243 -3.29678528 388.27870667 -4.02041626 388.28079224 C-8.82030574 388.25952825 -8.82030574 388.25952825 -9.93457031 387.14526367 C-10.03245408 385.09673976 -10.0582825 383.04477183 -10.05761814 380.99391079 C-10.05877199 380.3410447 -10.05992583 379.68817862 -10.06111464 379.01552871 C-10.06378765 376.80064645 -10.05925357 374.58583508 -10.05482483 372.37095642 C-10.05526039 370.77792025 -10.05613502 369.18488415 -10.057414 367.59184843 C-10.0596619 363.19309123 -10.05563366 358.79435814 -10.05063593 354.39560401 C-10.04633583 349.66006269 -10.04777754 344.92452283 -10.04853821 340.1889801 C-10.04906372 331.9772859 -10.04591405 323.76559961 -10.04030037 315.55390739 C-10.03218909 303.68103425 -10.02957053 291.80816495 -10.02831238 279.93528933 C-10.02612127 260.67446806 -10.0194596 241.41365101 -10.01000977 222.15283203 C-10.00083716 203.43766298 -9.99375559 184.72249507 -9.98950195 166.00732422 C-9.98923923 164.85460665 -9.98897651 163.70188908 -9.98870582 162.51424067 C-9.98740083 156.73165981 -9.98613711 150.94907894 -9.98489392 145.16649806 C-9.97451948 97.15941701 -9.95689957 49.15234055 -9.93457031 1.14526367 C-6.79670569 -0.42366864 -3.44496935 -0.00200619 0 0 Z " fill="#2C3038" transform="translate(3289.9345703125,906.854736328125)"/>
<path d="M0 0 C1.15035736 -0.00281982 2.30071472 -0.00563965 3.4859314 -0.00854492 C4.73426254 -0.00652069 5.98259369 -0.00449646 7.26875305 -0.00241089 C8.60825142 -0.00376733 9.94774941 -0.00554863 11.2872467 -0.00772095 C14.91822596 -0.01227208 18.54917673 -0.01051373 22.18015647 -0.00734186 C26.00028288 -0.00479948 29.82040694 -0.00716165 33.64053345 -0.00872803 C40.06885715 -0.01054711 46.49716937 -0.00815323 52.92549133 -0.00338745 C60.30973197 0.00202456 67.69394485 0.00031389 75.07818478 -0.00521386 C81.44882843 -0.00978863 87.81946383 -0.01037352 94.1901086 -0.00777519 C97.98062232 -0.00623231 101.77112313 -0.00596241 105.56163597 -0.00931168 C148.17065843 -0.04173785 148.17065843 -0.04173785 163.81684875 2.87698364 C164.7825177 3.05253784 165.74818665 3.22809204 166.74311829 3.40896606 C175.12100298 5.00027667 183.13660939 7.16618797 191.12934875 10.12698364 C191.81690247 10.3781897 192.50445618 10.62939575 193.21284485 10.88821411 C209.6022465 16.97506717 223.23151822 25.35529384 236.12934875 37.12698364 C236.87829407 37.79342896 237.62723938 38.45987427 238.39888 39.14651489 C258.00486714 57.51504327 269.22750738 86.97098285 270.25532532 113.36160278 C271.06737368 151.88507425 264.31288683 186.08143041 236.94184875 214.75198364 C226.05423334 225.25730919 213.92171385 232.99987181 200.12934875 239.12698364 C199.08649719 239.59749146 198.04364563 240.06799927 196.9691925 240.55276489 C190.51509671 243.24266546 183.90473546 245.0830857 177.12934875 246.75198364 C176.35438049 246.94622925 175.57941223 247.14047485 174.78096008 247.34060669 C171.90863166 248.01137634 169.02713807 248.57582094 166.12934875 249.12698364 C165.50082001 249.25646393 164.87229126 249.38594421 164.22471619 249.51934814 C144.98515673 253.37075952 125.33230975 252.45561946 105.81684875 252.31448364 C93.70997375 252.25260864 81.60309875 252.19073364 69.12934875 252.12698364 C69.12934875 296.67698364 69.12934875 341.22698364 69.12934875 387.12698364 C43.51294776 395.66578397 15.13140629 388.12698364 -11.87065125 388.12698364 C-11.87065125 260.41698364 -11.87065125 132.70698364 -11.87065125 1.12698364 C-7.62575668 0.41950121 -4.20929179 0.00159527 0 0 Z M69.12934875 77.12698364 C68.79934875 109.79698364 68.46934875 142.46698364 68.12934875 176.12698364 C83.93841125 176.21979614 83.93841125 176.21979614 100.06684875 176.31448364 C103.35774475 176.34179565 106.64864075 176.36910767 110.03926086 176.39724731 C145.14820623 176.66824471 145.14820623 176.66824471 175.12934875 160.12698364 C175.7635675 159.52112427 176.39778625 158.91526489 177.05122375 158.29104614 C187.01452549 147.85938407 188.44279972 136.23897832 188.2816925 122.52542114 C188.00909543 111.81528477 184.27414542 102.20786329 177.12934875 94.12698364 C174.62573388 91.84629338 171.96787076 89.96884732 169.12934875 88.12698364 C168.34946594 87.61006958 167.56958313 87.09315552 166.7660675 86.56057739 C145.98919388 73.98095285 118.82288947 76.98654739 95.56684875 77.06448364 C86.84247375 77.08510864 78.11809875 77.10573364 69.12934875 77.12698364 Z " fill="#2C3038" transform="translate(2970.870651245117,906.8730163574219)"/>
<path d="M0 0 C0.64808624 -0.00175232 1.29617249 -0.00350464 1.96389771 -0.00531006 C4.0818356 -0.00967089 6.19968838 -0.00681216 8.31762695 -0.00341797 C9.80019649 -0.00409242 11.28276592 -0.00506363 12.76533508 -0.00631714 C15.86098288 -0.00778608 18.95660168 -0.00566456 22.05224609 -0.00097656 C26.01666143 0.00473526 29.98100928 0.00142746 33.94542217 -0.00454903 C37.00204476 -0.00816359 40.05865136 -0.00701218 43.11527443 -0.00442123 C44.57728903 -0.00375522 46.03930509 -0.00456899 47.50131798 -0.00690079 C49.54254503 -0.0094436 51.5837772 -0.00488001 53.625 0 C55.36537788 0.00119339 55.36537788 0.00119339 57.14091492 0.00241089 C59.68079789 0.1107314 61.69002266 0.47063961 64.1184082 1.12939453 C64.14127236 50.28649029 64.1589053 99.44358551 64.16947353 148.60068553 C64.17072431 154.39760872 64.17201863 160.1945319 64.17333984 165.99145508 C64.17373331 167.72262757 64.17373331 167.72262757 64.17413472 169.48877323 C64.17849191 188.20222685 64.18637972 206.91567742 64.195561 225.62912922 C64.2048962 244.81561441 64.21046353 264.00209798 64.2124967 283.18858534 C64.2138722 295.03783341 64.21822428 306.88707283 64.22632467 318.73631824 C64.23159048 326.85002398 64.23321288 334.96372523 64.23190958 343.07743257 C64.23126594 347.76605432 64.23228662 352.45466093 64.23761368 357.14328003 C64.24244694 361.42830307 64.24274734 365.71330065 64.2393071 369.99832482 C64.23888133 371.55553336 64.24017769 373.11274344 64.24329139 374.66994893 C64.24725428 376.77267847 64.24517229 378.87531382 64.24145603 380.97804165 C64.24183575 382.15023831 64.24221547 383.32243497 64.2426067 384.53015274 C64.1184082 387.12939453 64.1184082 387.12939453 63.1184082 388.12939453 C60.82329324 388.22910608 58.52506271 388.2573932 56.2277832 388.25878906 C55.50747925 388.26054138 54.78717529 388.2622937 54.04504395 388.26409912 C51.65280786 388.26851742 49.2606451 388.26557974 46.8684082 388.26220703 C45.21313462 388.26288008 43.55786113 388.26385011 41.90258789 388.2651062 C38.42894553 388.26658314 34.95532884 388.26442874 31.48168945 388.25976562 C27.01908322 388.25406833 22.55653713 388.25734736 18.09393311 388.26333809 C14.6745559 388.2669438 11.25519306 388.26580507 7.83581543 388.2632103 C6.18990064 388.26254106 4.54398457 388.26336935 2.89807129 388.26568985 C0.60168989 388.26821655 -1.69459279 388.26437557 -3.9909668 388.25878906 C-5.30033203 388.25799347 -6.60969727 388.25719788 -7.95874023 388.25637817 C-10.8815918 388.12939453 -10.8815918 388.12939453 -11.8815918 387.12939453 C-12.04033135 384.91251459 -12.13293017 382.69084155 -12.19799805 380.46923828 C-12.21877914 379.80477188 -12.23956024 379.14030548 -12.26097107 378.45570374 C-12.32652838 376.3262091 -12.38537965 374.19658785 -12.4440918 372.06689453 C-12.48727119 370.62612606 -12.53088528 369.18537054 -12.57495117 367.74462891 C-12.68221573 364.20635413 -12.78346551 360.66793584 -12.8815918 357.12939453 C-13.62022461 357.97501953 -14.35885742 358.82064453 -15.11987305 359.69189453 C-33.62727467 380.54196625 -57.16202696 391.01358011 -84.93237305 392.96923828 C-119.84832175 394.86533616 -151.56839685 382.96895106 -177.5690918 359.72705078 C-205.33792149 332.9561634 -219.44570469 293.94061441 -220.1940918 255.81689453 C-219.01348031 214.74145329 -202.60216756 177.47386146 -172.7565918 149.12939453 C-149.96013587 128.90110679 -120.5457743 117.27334683 -89.9597168 117.94189453 C-61.1128792 119.6990623 -36.35542481 129.46020051 -15.8815918 150.12939453 C-15.5515918 150.78939453 -15.2215918 151.44939453 -14.8815918 152.12939453 C-14.5515918 102.29939453 -14.2215918 52.46939453 -13.8815918 1.12939453 C-9.00317103 0.43247728 -4.84713409 0.00331689 0 0 Z M-127.00268555 212.42236328 C-138.81960147 229.44756648 -143.22074809 249.29249688 -139.6628418 269.72705078 C-135.52785526 287.73491715 -125.99643916 302.40734086 -110.6940918 312.94189453 C-95.03978493 322.3746179 -76.12883158 324.56714574 -58.49487305 320.29345703 C-46.96400258 316.57864687 -37.28082288 310.93165974 -28.8815918 302.12939453 C-28.32342773 301.59056641 -27.76526367 301.05173828 -27.19018555 300.49658203 C-14.94423191 287.77102186 -11.23853678 268.86724111 -11.40869141 251.85791016 C-11.92083984 236.70164752 -17.05214691 220.2197899 -27.8815918 209.12939453 C-28.5415918 209.12939453 -29.2015918 209.12939453 -29.8815918 209.12939453 C-29.8815918 208.46939453 -29.8815918 207.80939453 -29.8815918 207.12939453 C-30.5415918 207.12939453 -31.2015918 207.12939453 -31.8815918 207.12939453 C-31.8815918 206.46939453 -31.8815918 205.80939453 -31.8815918 205.12939453 C-60.19283304 182.14315164 -102.80994721 183.58300297 -127.00268555 212.42236328 Z " fill="#2C3038" transform="translate(2467.881591796875,906.87060546875)"/>
<path d="M0 0 C1.14440804 -0.00262848 1.14440804 -0.00262848 2.31193542 -0.00531006 C4.836398 -0.00971451 7.3607906 -0.00679493 9.88525391 -0.00341797 C11.64018772 -0.00409155 13.39512144 -0.00506203 15.15005493 -0.00631714 C18.83035164 -0.00779232 22.51062408 -0.00564582 26.19091797 -0.00097656 C30.90417609 0.00471222 35.61737715 0.00144598 40.33063316 -0.00454903 C43.95604887 -0.00816663 47.5814511 -0.00701038 51.20686722 -0.00442123 C52.94437288 -0.00375485 54.68187977 -0.0045703 56.419384 -0.00690079 C58.85123673 -0.00944603 61.28299783 -0.00555993 63.71484375 0 C64.43086258 -0.00202423 65.14688141 -0.00404846 65.88459778 -0.00613403 C69.53093632 0.0092754 72.96855594 0.11968928 76.48681641 1.12939453 C77.64257812 2.83959961 77.64257812 2.83959961 78.41650391 5.14892578 C78.72885986 6.04587158 79.04121582 6.94281738 79.36303711 7.86694336 C79.69263428 8.88167725 80.02223145 9.89641113 80.36181641 10.94189453 C80.73201904 12.0243042 81.10222168 13.10671387 81.48364258 14.22192383 C82.34024285 16.73406066 83.18831039 19.24783933 84.02636719 21.76611328 C85.64740091 26.6271163 87.31526806 31.47172305 88.98291016 36.31689453 C94.52982272 52.45783347 100.00336307 68.62254475 105.36877441 84.82470703 C111.13699287 102.24007081 117.08109243 119.59428653 123.04931641 136.94189453 C123.28537975 137.62810883 123.5214431 138.31432312 123.76465988 139.02133179 C129.06446681 154.42587125 134.37849872 169.82545702 139.70947266 185.21923828 C141.3437829 189.93922265 142.97791829 194.65926748 144.61181641 199.37939453 C145.00602783 200.51806976 145.40023926 201.656745 145.80639648 202.82992554 C151.12240801 218.19275282 156.35271323 233.58040307 161.45898438 249.01416016 C166.00945887 262.76284199 170.72741299 276.45169961 175.48681641 290.12939453 C178.63222172 282.59549596 181.2664141 274.9501294 183.79931641 267.19189453 C187.83573073 254.9371847 192.03230014 242.74303503 196.29931641 230.56689453 C206.14294597 202.46053791 215.81863911 174.29647828 225.48681641 146.12939453 C225.84769348 145.07812378 226.20857056 144.02685303 226.5803833 142.94372559 C232.54353677 125.5688592 238.48877612 108.18956974 244.26315308 90.75094604 C250.24768216 72.67913223 256.49627704 54.70221484 262.81529236 36.74484253 C264.50480776 31.94049678 266.17999115 27.13168698 267.83457947 22.31520081 C268.53489179 20.27960417 269.24010859 18.24578922 269.94750977 16.21264648 C270.78402401 13.80669781 271.61217533 11.39781893 272.43041992 8.9855957 C272.97653931 7.42869019 272.97653931 7.42869019 273.53369141 5.84033203 C273.84145508 4.94620605 274.14921875 4.05208008 274.46630859 3.13085938 C275.48681641 1.12939453 275.48681641 1.12939453 278.48681641 0.12939453 C280.97008695 0.03349854 283.42498826 -0.00707258 285.90820312 0 C286.66138824 -0.00175232 287.41457336 -0.00350464 288.19058228 -0.00531006 C290.68257954 -0.00971422 293.17450591 -0.00679503 295.66650391 -0.00341797 C297.39901747 -0.00409156 299.13153095 -0.00506205 300.86404419 -0.00631714 C304.49726256 -0.00779228 308.13045636 -0.00564594 311.76367188 -0.00097656 C316.41639609 0.00471211 321.06906251 0.00144603 325.72178459 -0.00454903 C329.30087721 -0.00816683 332.87995619 -0.00701029 336.45904922 -0.00442123 C338.17422619 -0.0037549 339.88940441 -0.00457013 341.60457993 -0.00690079 C344.00530005 -0.00944634 346.40592739 -0.0055595 348.80664062 0 C349.86664276 -0.00303635 349.86664276 -0.00303635 350.94805908 -0.00613403 C354.58659755 0.00943881 357.94796669 0.26760488 361.48681641 1.12939453 C359.41695552 8.35950919 357.00253632 15.41134788 354.38916016 22.46142578 C353.58517508 24.64736852 352.78122117 26.83332273 351.97729492 29.01928711 C351.56053497 30.14912018 351.14377502 31.27895325 350.71438599 32.44302368 C342.42687591 54.86951587 342.42687591 54.86951587 334.54931641 77.44189453 C320.13161933 119.95845784 304.16486068 162.00243727 288.4074707 204.03881836 C287.73518433 205.84709106 287.73518433 205.84709106 287.04931641 207.69189453 C286.71682892 208.58617157 286.38434143 209.48044861 286.04177856 210.40182495 C283.19038495 218.11719443 280.48865986 225.87688068 277.83056641 233.66064453 C272.84964086 248.18575957 267.66838799 262.63468845 262.42431641 277.06689453 C261.74062922 278.95218492 261.05694315 280.83747572 260.37336063 282.72280407 C253.76612408 300.94170919 247.08773742 319.1339892 240.34179688 337.30200195 C237.13790887 345.93359836 233.95333321 354.57071676 230.83837891 363.23486328 C230.5546492 364.02256607 230.27091949 364.81026886 229.97859192 365.62184143 C228.66606458 369.26709535 227.35910647 372.91415161 226.06274414 376.56518555 C225.61186953 377.82104107 225.16079251 379.07682395 224.70947266 380.33251953 C224.3254126 381.41178711 223.94135254 382.49105469 223.5456543 383.60302734 C222.48681641 386.12939453 222.48681641 386.12939453 220.48681641 388.12939453 C217.61129654 388.3386409 214.83131705 388.42303035 211.95385742 388.41992188 C211.07080933 388.4266391 210.18776123 388.43335632 209.2779541 388.4402771 C206.34882027 388.45932889 203.41991465 388.46318482 200.49072266 388.46533203 C198.46052454 388.4717547 196.43032736 388.47848265 194.40013123 388.48550415 C190.14051161 388.49749471 185.8809732 388.50118312 181.62133789 388.5 C176.15546662 388.49979665 170.69011436 388.52710768 165.22436619 388.56154442 C161.03026423 388.58375014 156.83628845 388.5878395 152.64213371 388.58678055 C150.62663928 388.58914572 148.61114183 388.59802044 146.59570503 388.61344528 C143.77982045 388.63297865 140.96507167 388.62731745 138.14916992 388.61523438 C137.31218063 388.62647339 136.47519135 388.6377124 135.61283875 388.64929199 C129.99700061 388.58786312 129.99700061 388.58786312 127.56182861 386.39953613 C126.45317186 384.05834615 125.47028188 381.77103054 124.62426758 379.32128906 C124.12102715 377.88197021 124.12102715 377.88197021 123.60762024 376.41357422 C123.25193466 375.37362305 122.89624908 374.33367187 122.52978516 373.26220703 C121.96030403 371.62662842 121.96030403 371.62662842 121.37931824 369.95800781 C120.5632211 367.61269883 119.75018075 365.2663244 118.93988037 362.91900635 C116.81099148 356.75452032 114.65807825 350.59843729 112.50634766 344.44189453 C111.86312561 342.59931564 111.86312561 342.59931564 111.20690918 340.71951294 C107.52569044 330.19353358 103.73632595 319.71061876 99.86181641 309.25439453 C99.57719543 308.48550903 99.29257446 307.71662354 98.99932861 306.92443848 C96.31075667 299.66751459 93.59871016 292.41952555 90.87353516 285.17626953 C90.27629639 283.58854736 90.27629639 283.58854736 89.66699219 281.96875 C88.97692756 280.13852617 88.2844062 278.30922388 87.58789062 276.48144531 C85.36885115 270.62120044 83.28511084 264.71875944 81.22509766 258.80126953 C78.74191183 251.66985441 76.20960765 244.55867326 73.61962891 237.46533203 C73.29153732 236.56664398 72.96344574 235.66795593 72.62541199 234.74203491 C71.29117709 231.09102007 69.95503583 227.44070791 68.6171875 223.79101562 C64.67420129 213.02772895 60.81335012 202.24233138 57.08447266 191.40283203 C52.47366436 178.00596106 47.65748444 164.68822574 42.79931641 151.37939453 C41.91679422 148.95666681 41.0343904 146.53389598 40.15209961 144.11108398 C34.91743242 129.74538432 29.64136008 115.39539863 24.33779907 101.05502319 C19.164502 87.05761401 14.12295495 73.01464357 9.12402344 58.95410156 C8.50408909 57.21044208 7.88413465 55.46678974 7.26416016 53.72314453 C6.95702087 52.85922089 6.64988159 51.99529724 6.33343506 51.10519409 C4.05305002 44.69921507 1.7454134 38.30339111 -0.57177734 31.91064453 C-1.22940746 30.09288305 -1.88696081 28.27509379 -2.54443359 26.45727539 C-3.48979582 23.84356859 -4.43662615 21.23045142 -5.38867188 18.61917114 C-6.25598692 16.23996141 -7.11757825 13.85875048 -7.97802734 11.47705078 C-8.23660019 10.77290039 -8.49517303 10.06875 -8.76158142 9.34326172 C-9.79845004 6.45892134 -10.51318359 4.22115592 -10.51318359 1.12939453 C-6.94559746 -0.05980085 -3.71202173 -0.01043512 0 0 Z " fill="#2C3038" transform="translate(2565.51318359375,906.87060546875)"/>
<path d="M0 0 C33.73046547 -0.65910105 68.23586645 8.95544582 94.8359375 30.12109375 C95.74730469 30.83007812 96.65867187 31.5390625 97.59765625 32.26953125 C125.40324757 54.37439464 142.61404475 85.28044084 146.8203125 120.51831055 C150.57156284 155.51044259 142.83848273 192.6946393 120.56298828 220.65649414 C119.33499331 222.15656127 118.08575886 223.63916271 116.8359375 225.12109375 C116.10632812 225.99121094 115.37671875 226.86132812 114.625 227.7578125 C94.34445116 251.07678291 67.79524619 265.83211834 37.8359375 273.12109375 C36.80726563 273.37560303 36.80726563 273.37560303 35.7578125 273.63525391 C-2.05553249 282.66988924 -43.48304287 275.14134356 -76.625 255.328125 C-106.03662472 237.19541035 -126.15274209 209.94891184 -136.1640625 177.12109375 C-136.49212891 176.20392578 -136.82019531 175.28675781 -137.15820312 174.34179688 C-140.63191049 163.21918825 -140.56844328 151.05286104 -140.5390625 139.49609375 C-140.53918335 138.75840759 -140.5393042 138.02072144 -140.53942871 137.26068115 C-140.51065091 124.86380659 -139.43601676 113.12799733 -136.1640625 101.12109375 C-135.8753125 100.02023437 -135.5865625 98.919375 -135.2890625 97.78515625 C-124.59185116 62.15962206 -98.15488223 34.23051307 -65.9140625 16.87109375 C-45.31962884 6.17871469 -23.13780678 0.885521 0 0 Z M-43.1640625 91.12109375 C-43.71707031 91.63929687 -44.27007813 92.1575 -44.83984375 92.69140625 C-56.64778989 104.84945322 -61.1640625 123.75745658 -61.1640625 140.12109375 C-59.90346143 159.28616933 -53.01657864 177.59485066 -38.40625 190.5703125 C-24.039281 201.9175922 -7.35453914 206.46363413 10.8359375 205.12109375 C25.05508835 203.39426033 38.63123119 197.34931321 48.8359375 187.12109375 C48.8359375 186.46109375 48.8359375 185.80109375 48.8359375 185.12109375 C49.8259375 184.79109375 50.8159375 184.46109375 51.8359375 184.12109375 C64.36259972 168.09916436 69.27931029 149.04722341 67.43359375 128.9140625 C64.66101161 111.3181327 56.45721107 94.80166998 41.8984375 83.99609375 C39.15013633 81.94704246 39.15013633 81.94704246 36.8359375 82.12109375 C36.8359375 81.46109375 36.8359375 80.80109375 36.8359375 80.12109375 C8.67187334 67.4872139 -20.45803227 68.53562651 -43.1640625 91.12109375 Z " fill="#2C3038" transform="translate(1889.1640625,1023.87890625)"/>
<path d="M0 0 C8.05758276 -0.35434876 16.19958484 1.47067735 24.04296875 3.16015625 C25.71632871 4.83351621 25.1625977 6.87403534 25.16738892 9.1076355 C25.16379364 9.81469635 25.16019836 10.5217572 25.15649414 11.25024414 C25.15664017 11.99166153 25.15678619 12.73307892 25.15693665 13.4969635 C25.1562374 15.95894246 25.14844449 18.42084668 25.140625 20.8828125 C25.13876086 22.58532164 25.13733694 24.28783132 25.13633728 25.99034119 C25.13251177 30.48008698 25.12268122 34.96980063 25.1116333 39.45953369 C25.10141988 44.03747116 25.09683981 48.61541381 25.09179688 53.19335938 C25.08105897 62.18230582 25.06398216 71.17122837 25.04296875 80.16015625 C24.3199205 80.09032532 23.59687225 80.02049438 22.85191345 79.94854736 C15.74976959 79.27944981 8.73896966 78.9453183 1.60546875 78.91015625 C0.56326172 78.88953125 -0.47894531 78.86890625 -1.55273438 78.84765625 C-17.30262563 78.76954148 -31.26387225 83.77973304 -42.70703125 94.74609375 C-58.9145144 112.13537255 -62.04438427 134.7490036 -62.16235352 157.58642578 C-62.17225311 158.78757523 -62.18215271 159.98872467 -62.19235229 161.22627258 C-62.21834345 164.48796088 -62.24028507 167.74964489 -62.26035428 171.011374 C-62.28238266 174.43199562 -62.30968804 177.85257525 -62.33641052 181.27316284 C-62.38611156 187.73622074 -62.43113313 194.19930224 -62.47443289 200.66240585 C-62.52399968 208.02649153 -62.57884503 215.39053502 -62.63411248 222.75457978 C-62.74758525 237.88973253 -62.85449837 253.02492513 -62.95703125 268.16015625 C-72.71854113 268.18328071 -82.48004455 268.20107186 -92.24157619 268.21196842 C-96.77377219 268.21719703 -101.30594952 268.22429426 -105.83813477 268.2355957 C-110.20825955 268.24642539 -114.57836633 268.25243326 -118.94850349 268.25503349 C-120.61954088 268.2568876 -122.29057722 268.26050793 -123.96160698 268.26588631 C-126.29400676 268.27309784 -128.62633118 268.27414715 -130.95874023 268.27368164 C-131.65645035 268.27727692 -132.35416046 268.28087219 -133.07301331 268.28457642 C-137.84297909 268.27420841 -137.84297909 268.27420841 -138.95703125 267.16015625 C-139.05359182 265.74751384 -139.08074982 264.33006116 -139.08007908 262.91412258 C-139.08207013 261.9925151 -139.08406118 261.07090762 -139.08611256 260.12137264 C-139.08319972 259.09707513 -139.08028688 258.07277762 -139.07728577 257.0174408 C-139.07814019 255.93852855 -139.07899462 254.8596163 -139.07987493 253.74800974 C-139.08153293 250.10274199 -139.07600316 246.45751943 -139.07055664 242.81225586 C-139.07027481 240.21115622 -139.07043242 237.6100565 -139.07099915 235.00895691 C-139.07152457 229.39353396 -139.0683759 223.77812259 -139.06276131 218.16270256 C-139.05464873 210.04365817 -139.05203134 201.92461939 -139.05077332 193.80557138 C-139.04858241 180.63429376 -139.0419213 167.46302231 -139.0324707 154.29174805 C-139.02329757 141.4938968 -139.01621626 128.69604723 -139.01196289 115.89819336 C-139.01170017 115.10988925 -139.01143744 114.32158514 -139.01116676 113.50939303 C-139.00986176 109.55486886 -139.00859804 105.60034468 -139.00735486 101.6458205 C-138.99698105 68.81726027 -138.97854211 35.98871153 -138.95703125 3.16015625 C-114.53703125 3.16015625 -90.11703125 3.16015625 -64.95703125 3.16015625 C-64.62703125 15.04015625 -64.29703125 26.92015625 -63.95703125 39.16015625 C-61.64703125 35.53015625 -59.33703125 31.90015625 -56.95703125 28.16015625 C-45.15906697 12.33157072 -27.70603401 3.92481536 -8.51953125 0.7578125 C-5.68368232 0.39840803 -2.84734606 0.23301634 0 0 Z " fill="#2C3038" transform="translate(2210.95703125,1026.83984375)"/>
<path d="M0 0 C1.43665555 1.03531228 2.85462061 2.09719405 4.25 3.1875 C4.86617187 3.66574219 5.48234375 4.14398437 6.1171875 4.63671875 C13.47859877 11.13111936 18.69486904 22.04513731 20.09765625 31.70703125 C20.91572634 45.02689041 17.12860622 56.92462077 8.33984375 67.0390625 C-0.3989095 76.02282752 -11.83753381 81.18079441 -24.4375 81.4375 C-36.13483804 81.27966485 -48.44806291 76.48943709 -56.75 68.1875 C-65.07839765 58.10190196 -69.11240109 47.32453938 -68.75 34.1875 C-67.70852428 24.99447396 -65.1681084 17.67560366 -59.75 10.1875 C-59.0075 9.135625 -58.265 8.08375 -57.5 7 C-41.75153493 -9.10638473 -19.05949934 -11.90819641 0 0 Z M-49.75 12.1875 C-52.07419564 15.03463966 -53.97166659 17.97431191 -55.75 21.1875 C-56.09160156 21.79078125 -56.43320313 22.3940625 -56.78515625 23.015625 C-60.55985219 31.09171863 -59.89208141 41.66960865 -57.3125 50 C-53.37978728 59.29172617 -46.04914128 66.38481544 -36.75 70.1875 C-28.61902778 73.09801846 -19.86330938 73.1223788 -11.75 70.1875 C-1.4835443 65.02567478 4.56455682 58.51607674 8.49609375 47.7578125 C11.18344028 38.59577096 10.50673238 29.76701285 6.5625 21.0625 C1.20705136 11.40321809 -6.20211235 5.90427049 -16.765625 2.546875 C-28.8656039 0.35554024 -40.93419782 3.46836232 -49.75 12.1875 Z " fill="#2C3038" transform="translate(3731.75,914.8125)"/>
<path d="M0 0 C3.45816686 -0.08847317 6.91603579 -0.14087725 10.375 -0.1875 C11.34050781 -0.21263672 12.30601562 -0.23777344 13.30078125 -0.26367188 C20.11720419 -0.33229358 28.25231143 -0.22282801 33.68920898 4.45263672 C37.95307603 9.45102593 38.2894892 12.94714257 38.21484375 19.30859375 C37.74414009 25.20522683 34.00655478 28.02623209 30 32 C30.27787354 32.49927002 30.55574707 32.99854004 30.84204102 33.51293945 C32.09271499 35.77382371 33.32770852 38.04290555 34.5625 40.3125 C35.21895508 41.49102539 35.21895508 41.49102539 35.88867188 42.69335938 C36.50258789 43.8293457 36.50258789 43.8293457 37.12890625 44.98828125 C37.51119385 45.68477783 37.89348145 46.38127441 38.28735352 47.09887695 C39 49 39 49 38 52 C34.37 52 30.74 52 27 52 C25.49498012 49.21093539 23.9958193 46.41899281 22.5 43.625 C22.07074219 42.8309375 21.64148437 42.036875 21.19921875 41.21875 C20.79316406 40.45820312 20.38710937 39.69765625 19.96875 38.9140625 C19.59169922 38.2123291 19.21464844 37.5105957 18.82617188 36.78759766 C18 35 18 35 18 33 C16.02 33 14.04 33 12 33 C12 38.61 12 44.22 12 50 C7.76121589 52.11939205 5.64467095 52.43006213 1 52 C-1.18097619 48.72853571 -1.23204249 47.92645281 -1.13525391 44.16137695 C-1.11508209 43.1805867 -1.09491028 42.19979645 -1.0741272 41.18928528 C-1.04193085 40.13295395 -1.0097345 39.07662262 -0.9765625 37.98828125 C-0.95153656 36.90491989 -0.92651062 35.82155853 -0.90072632 34.70536804 C-0.81847022 31.24076307 -0.72190135 27.77672332 -0.625 24.3125 C-0.56676625 21.96551798 -0.50946285 19.61851267 -0.453125 17.27148438 C-0.31288303 11.51400912 -0.16088421 5.7569334 0 0 Z M12 11 C12 14.63 12 18.26 12 22 C13.7325 22.061875 15.465 22.12375 17.25 22.1875 C18.22453125 22.22230469 19.1990625 22.25710938 20.203125 22.29296875 C23.37468742 21.96075202 24.67040307 21.11327721 27 19 C26.81584568 16.05908413 26.81584568 16.05908413 26 13 C22.94848421 10.89168 20.39081503 10.77918908 16.75 10.875 C14.39875 10.936875 14.39875 10.936875 12 11 Z " fill="#2C3038" transform="translate(3690,926)"/>
</svg>
