<svg id="svg" version="1.1" xmlns="http://www.w3.org/2000/svg" xmlns:xlink="http://www.w3.org/1999/xlink" width="400" height="132.8125" viewBox="0, 0, 400,132.8125"><g id="svgg"><path id="path0" d="M68.237 44.348 C 67.588 44.423,66.735 44.558,66.342 44.646 C 65.948 44.735,65.530 44.771,65.414 44.726 C 64.515 44.381,61.424 46.025,59.780 47.723 C 57.695 49.875,56.907 51.818,56.727 55.250 C 56.437 60.801,58.692 63.867,66.167 68.083 C 72.905 71.884,73.915 72.580,75.068 74.221 L 75.750 75.191 75.750 76.817 C 75.750 80.080,73.406 81.723,70.114 80.766 C 68.021 80.158,67.494 79.170,67.372 75.625 L 67.288 73.167 61.894 73.167 L 56.500 73.167 56.503 75.792 C 56.512 84.312,61.121 88.202,71.250 88.239 C 81.925 88.277,86.493 84.108,86.121 74.667 C 85.904 69.161,83.615 66.563,74.917 61.949 C 69.468 59.059,67.742 57.702,67.330 55.986 C 66.673 53.246,68.266 51.167,71.024 51.167 C 73.798 51.167,75.000 52.587,75.000 55.864 L 75.000 57.333 80.083 57.333 L 85.167 57.333 85.164 55.125 C 85.155 47.027,78.977 43.094,68.237 44.348 M328.244 44.519 C 321.321 45.247,317.339 48.691,316.657 54.540 C 316.338 57.272,316.531 78.009,316.887 79.250 C 318.584 85.165,325.149 88.330,333.667 87.340 C 334.629 87.228,335.942 87.078,336.583 87.007 C 340.808 86.536,344.423 83.115,345.418 78.645 C 345.637 77.661,345.710 76.049,345.784 70.542 L 345.877 63.667 338.522 63.667 L 331.167 63.667 331.167 66.578 L 331.167 69.490 333.292 69.537 L 335.417 69.583 335.415 73.417 L 335.414 77.250 334.898 78.167 C 333.331 80.947,328.618 80.909,327.118 78.104 C 326.622 77.178,326.445 56.182,326.919 54.552 C 327.449 52.727,328.902 51.750,331.083 51.750 C 333.995 51.750,335.169 53.084,335.300 56.542 L 335.374 58.500 340.543 58.500 L 345.712 58.500 345.618 56.042 C 345.290 47.519,339.052 43.381,328.244 44.519 M201.532 44.766 C 195.694 45.745,192.350 48.704,191.568 53.583 C 190.528 60.063,192.824 63.647,200.917 68.175 C 208.638 72.496,210.066 73.712,210.288 76.157 C 210.560 79.158,209.133 80.749,206.167 80.750 C 202.955 80.750,202.109 79.742,202.030 75.820 L 201.977 73.167 196.572 73.167 L 191.167 73.167 191.170 75.708 C 191.179 84.102,195.900 88.055,205.917 88.057 C 216.500 88.060,221.535 83.073,220.495 73.618 C 219.975 68.895,217.531 66.352,209.250 61.920 C 203.828 59.017,202.388 57.896,201.893 56.192 C 201.108 53.495,202.772 51.328,205.620 51.337 C 208.348 51.346,209.500 52.782,209.500 56.177 L 209.500 57.505 214.542 57.461 L 219.583 57.417 219.544 55.250 C 219.430 48.909,216.736 45.895,210.179 44.770 C 208.228 44.435,203.519 44.433,201.532 44.766 M100.108 48.625 C 99.781 50.344,99.430 52.237,99.328 52.833 C 99.226 53.429,98.768 55.904,98.308 58.333 C 97.849 60.762,97.112 64.737,96.669 67.167 C 96.227 69.596,95.486 73.608,95.022 76.083 C 94.559 78.558,93.927 81.952,93.619 83.625 L 93.058 86.667 98.579 86.667 L 104.099 86.667 104.556 83.708 C 104.807 82.081,105.419 78.012,105.916 74.667 C 106.414 71.321,107.156 66.408,107.565 63.750 C 108.572 57.209,109.669 49.797,109.668 49.542 C 109.663 48.701,110.141 49.515,110.304 50.625 C 110.408 51.335,110.978 55.254,111.572 59.333 C 112.166 63.413,113.028 69.300,113.489 72.417 C 113.949 75.533,114.598 79.958,114.932 82.250 C 115.266 84.542,115.573 86.473,115.613 86.542 C 115.742 86.762,126.500 86.694,126.500 86.473 C 126.500 86.162,125.722 81.800,124.751 76.667 C 124.257 74.054,123.620 70.604,123.337 69.000 C 123.053 67.396,122.526 64.546,122.164 62.667 C 121.802 60.788,121.240 57.750,120.915 55.917 C 120.590 54.083,120.018 50.990,119.642 49.042 L 118.960 45.500 109.832 45.500 L 100.704 45.500 100.108 48.625 M135.927 45.708 C 135.874 45.884,134.977 84.856,134.994 86.208 L 135.000 86.667 140.073 86.667 L 145.146 86.667 145.232 85.958 C 145.279 85.569,145.360 77.267,145.412 67.511 C 145.464 57.754,145.543 49.735,145.587 49.691 C 145.784 49.494,145.925 50.066,146.592 53.788 C 146.983 55.967,147.579 59.175,147.916 60.917 C 148.253 62.658,148.891 66.071,149.333 68.500 C 149.775 70.929,150.511 74.904,150.967 77.333 C 151.424 79.762,152.000 82.856,152.249 84.208 L 152.701 86.667 157.921 86.667 L 163.140 86.667 163.231 86.208 C 163.281 85.956,163.403 85.262,163.502 84.667 C 163.601 84.071,164.051 81.671,164.500 79.333 C 164.950 76.996,165.587 73.583,165.915 71.750 C 166.244 69.917,166.879 66.504,167.328 64.167 C 167.777 61.829,168.265 59.204,168.412 58.333 C 169.003 54.836,170.045 49.667,170.158 49.667 C 170.312 49.667,170.500 60.650,170.500 69.667 C 170.500 73.487,170.550 78.875,170.610 81.640 L 170.720 86.667 175.777 86.667 L 180.833 86.667 180.832 85.458 C 180.831 84.794,180.644 75.925,180.417 65.750 C 180.189 55.575,180.003 46.856,180.002 46.375 L 180.000 45.500 171.604 45.500 L 163.208 45.500 163.119 45.958 C 163.070 46.210,162.754 48.142,162.416 50.250 C 162.079 52.358,161.214 57.721,160.495 62.167 C 159.775 66.612,158.951 71.750,158.662 73.583 C 157.897 78.444,158.014 78.617,156.748 70.750 C 156.232 67.542,155.329 61.992,154.742 58.417 C 154.155 54.842,153.481 50.642,153.243 49.083 C 153.006 47.525,152.771 46.081,152.721 45.875 L 152.631 45.500 144.310 45.500 C 137.798 45.500,135.976 45.545,135.927 45.708 M230.376 62.208 C 230.424 77.157,230.458 79.011,230.704 79.808 C 232.132 84.442,235.265 86.866,240.833 87.645 C 249.060 88.795,255.866 86.548,257.992 81.980 C 259.140 79.514,259.073 80.684,259.127 62.206 L 259.176 45.495 254.046 45.539 L 248.917 45.583 248.833 61.833 C 248.740 80.060,248.854 78.553,247.483 79.726 C 245.964 81.026,243.021 80.898,241.728 79.475 C 240.685 78.326,240.754 79.542,240.705 61.708 L 240.660 45.500 235.491 45.500 L 230.323 45.500 230.376 62.208 M270.944 45.611 C 270.883 45.672,270.833 54.860,270.833 66.028 L 270.833 86.333 275.907 86.333 L 280.981 86.333 280.905 83.125 C 280.863 81.360,280.755 74.967,280.666 68.917 C 280.576 62.867,280.485 56.792,280.464 55.417 C 280.444 54.042,280.492 52.879,280.572 52.833 C 280.652 52.788,281.146 54.175,281.670 55.917 C 282.195 57.658,283.242 61.108,283.997 63.583 C 285.501 68.508,287.226 74.175,289.298 81.000 C 290.036 83.429,290.719 85.623,290.816 85.875 L 290.992 86.333 298.246 86.333 L 305.500 86.333 305.500 65.917 L 305.500 45.500 300.510 45.500 C 297.765 45.500,295.492 45.556,295.459 45.625 C 295.425 45.694,295.533 52.913,295.698 61.667 C 295.971 76.180,295.978 78.200,295.753 77.975 C 295.652 77.874,294.503 74.109,293.242 69.750 C 292.659 67.733,291.575 64.021,290.833 61.500 C 290.092 58.979,289.149 55.754,288.739 54.333 C 288.329 52.913,287.570 50.344,287.052 48.625 L 286.111 45.500 278.583 45.500 C 274.443 45.500,271.006 45.550,270.944 45.611 " stroke="none" fill="#fafbfb" fill-rule="evenodd"></path><path id="path1" d="M278.583 0.179 C 270.388 0.355,259.004 1.077,248.417 2.093 C 247.042 2.225,244.829 2.413,243.500 2.512 C 240.252 2.752,231.422 3.719,226.036 4.426 C 223.627 4.742,221.401 5.000,221.089 5.000 C 220.480 5.000,213.745 5.950,207.665 6.894 C 205.603 7.215,203.432 7.525,202.839 7.584 C 202.246 7.643,199.021 8.179,195.672 8.775 C 192.323 9.371,189.021 9.926,188.333 10.008 C 187.646 10.091,184.421 10.676,181.167 11.310 C 177.912 11.944,174.537 12.589,173.667 12.743 C 172.796 12.897,170.246 13.422,168.000 13.909 C 165.754 14.397,163.579 14.844,163.167 14.903 C 162.209 15.041,153.765 16.969,147.083 18.577 C 144.242 19.261,141.504 19.908,141.000 20.015 C 140.496 20.122,138.334 20.688,136.195 21.272 C 134.057 21.856,132.182 22.334,132.029 22.334 C 131.875 22.335,130.175 22.795,128.250 23.357 C 126.325 23.918,124.150 24.513,123.417 24.677 C 122.683 24.841,120.508 25.456,118.583 26.043 C 116.658 26.630,114.708 27.201,114.250 27.312 C 113.144 27.580,101.176 31.367,97.042 32.759 C 96.102 33.075,94.527 33.604,93.542 33.935 C 92.556 34.266,90.250 35.078,88.417 35.740 C 86.583 36.402,84.708 37.061,84.250 37.204 C 83.314 37.497,79.345 39.024,75.583 40.538 C 74.208 41.092,72.596 41.715,72.000 41.924 C 71.404 42.133,70.129 42.654,69.167 43.083 C 68.204 43.511,67.042 44.008,66.583 44.186 L 65.750 44.510 67.000 44.380 C 79.208 43.110,84.972 46.445,85.285 54.958 L 85.378 57.500 80.106 57.500 L 74.833 57.500 74.833 55.745 C 74.833 53.096,74.161 51.916,72.350 51.390 C 69.545 50.575,67.333 52.145,67.333 54.953 C 67.333 57.042,68.493 58.277,72.525 60.483 C 77.799 63.369,78.454 63.745,80.000 64.765 C 84.857 67.970,86.256 70.432,86.242 75.750 C 86.221 83.957,82.524 87.588,73.423 88.338 C 62.451 89.243,56.333 84.756,56.333 75.807 L 56.333 73.167 61.902 73.167 L 67.471 73.167 67.527 75.819 C 67.594 78.976,67.836 79.536,69.489 80.375 C 72.217 81.758,75.226 80.435,75.650 77.667 C 76.171 74.255,74.955 73.077,65.583 67.919 C 58.413 63.973,55.841 59.925,56.679 53.905 C 57.022 51.439,58.389 48.610,59.733 47.585 C 61.143 46.509,60.568 46.656,57.357 48.190 C 56.041 48.819,54.895 49.333,54.811 49.333 C 54.560 49.333,44.575 54.314,42.380 55.534 C 41.260 56.157,40.285 56.667,40.214 56.667 C 40.142 56.667,39.446 57.048,38.667 57.513 C 37.887 57.978,36.500 58.774,35.583 59.281 C 34.667 59.788,33.486 60.495,32.960 60.852 C 32.434 61.208,31.941 61.500,31.864 61.500 C 31.786 61.500,30.888 62.044,29.868 62.708 C 28.848 63.373,27.466 64.266,26.798 64.693 C 26.130 65.120,25.396 65.634,25.167 65.834 C 24.938 66.034,24.525 66.315,24.250 66.458 C 23.975 66.601,22.446 67.700,20.852 68.900 C 19.257 70.101,17.743 71.238,17.486 71.427 C 16.586 72.088,14.090 74.261,12.856 75.458 C 12.171 76.123,11.564 76.667,11.507 76.667 C 11.374 76.667,8.403 79.903,7.005 81.570 C 5.783 83.028,2.895 87.198,2.737 87.731 C 2.680 87.925,2.270 88.833,1.826 89.750 C -0.036 93.595,-0.622 99.839,0.559 103.250 C 1.779 106.774,4.667 110.826,7.750 113.339 C 9.023 114.376,9.827 114.959,11.624 116.148 C 12.746 116.890,14.021 117.674,14.457 117.889 C 14.893 118.105,16.037 118.697,17.000 119.206 C 17.962 119.715,19.050 120.224,19.417 120.337 C 19.783 120.451,20.158 120.599,20.250 120.667 C 21.039 121.250,31.575 124.968,33.250 125.254 C 33.617 125.317,34.967 125.652,36.250 125.998 C 38.854 126.701,43.302 127.700,45.083 127.981 C 45.725 128.083,47.450 128.391,48.917 128.667 C 52.864 129.409,56.700 130.004,58.583 130.166 C 59.500 130.244,61.825 130.499,63.750 130.733 C 70.258 131.521,77.918 132.132,86.000 132.508 C 92.187 132.796,122.489 132.630,128.583 132.274 C 135.822 131.852,140.422 131.528,146.667 130.999 C 149.829 130.731,153.429 130.431,154.667 130.332 C 163.815 129.600,180.190 127.642,191.500 125.927 C 193.563 125.614,195.923 125.273,196.746 125.169 C 197.569 125.065,200.981 124.507,204.329 123.928 C 207.677 123.350,211.354 122.724,212.500 122.537 C 215.242 122.090,223.287 120.544,228.917 119.383 C 231.392 118.873,233.979 118.347,234.667 118.214 C 237.572 117.654,239.459 117.243,243.000 116.397 C 245.063 115.905,246.900 115.503,247.083 115.503 C 247.491 115.505,256.241 113.367,261.917 111.879 C 264.208 111.278,266.688 110.653,267.427 110.490 C 268.166 110.327,270.116 109.802,271.760 109.322 C 273.405 108.843,275.236 108.345,275.831 108.216 C 276.425 108.087,278.112 107.616,279.581 107.169 C 283.221 106.060,284.276 105.753,285.250 105.518 C 285.708 105.408,287.588 104.833,289.427 104.242 C 291.267 103.651,292.856 103.167,292.960 103.167 C 293.063 103.167,294.709 102.635,296.616 101.985 C 298.523 101.335,300.346 100.747,300.667 100.679 C 301.253 100.555,305.747 99.023,310.083 97.470 C 311.367 97.011,313.467 96.272,314.750 95.828 C 316.033 95.384,318.021 94.641,319.167 94.177 C 320.312 93.713,321.335 93.333,321.438 93.333 C 321.542 93.333,322.798 92.851,324.231 92.261 C 325.663 91.671,327.303 91.023,327.876 90.821 C 328.448 90.618,329.387 90.239,329.963 89.977 C 330.538 89.714,331.044 89.500,331.088 89.500 C 331.132 89.500,331.561 89.310,332.041 89.079 C 332.521 88.847,333.187 88.584,333.520 88.495 C 334.558 88.215,336.690 87.135,336.000 87.237 C 325.559 88.796,318.575 85.813,316.713 79.000 C 316.259 77.339,316.261 54.860,316.715 53.083 C 318.181 47.351,322.389 44.630,330.167 44.385 C 340.490 44.059,345.416 47.816,345.783 56.292 L 345.885 58.667 340.526 58.667 L 335.167 58.667 335.163 56.708 C 335.159 54.540,334.948 53.812,334.069 52.943 C 331.960 50.855,327.714 51.816,327.029 54.537 C 326.770 55.567,326.752 76.618,327.010 77.546 C 327.832 80.506,333.169 80.957,334.787 78.204 L 335.250 77.417 335.303 73.547 L 335.355 69.677 333.219 69.630 L 331.083 69.583 331.038 66.542 L 330.992 63.500 338.425 63.500 L 345.858 63.500 345.792 70.792 C 345.720 78.851,345.714 78.900,344.581 81.303 C 344.208 82.093,343.652 82.891,343.003 83.567 C 341.711 84.912,341.737 84.969,343.292 84.190 C 344.002 83.835,344.771 83.486,345.000 83.415 C 345.553 83.244,356.018 78.076,357.083 77.448 C 357.542 77.178,358.517 76.654,359.250 76.283 C 359.983 75.913,361.296 75.187,362.167 74.669 C 363.037 74.152,363.887 73.677,364.054 73.615 C 364.221 73.552,365.110 73.032,366.029 72.459 C 366.948 71.886,368.049 71.227,368.475 70.996 C 368.901 70.764,369.828 70.183,370.534 69.704 C 371.240 69.225,371.853 68.833,371.895 68.833 C 372.025 68.833,374.730 66.989,375.094 66.652 C 375.283 66.477,375.520 66.333,375.619 66.333 C 375.719 66.333,376.464 65.825,377.275 65.204 C 378.086 64.583,378.959 63.941,379.216 63.779 C 379.801 63.407,381.893 61.754,384.167 59.868 C 398.030 48.369,403.125 36.592,398.387 27.000 C 396.092 22.355,391.383 17.855,385.656 14.833 C 380.011 11.855,371.293 8.431,366.833 7.440 C 366.238 7.308,363.762 6.708,361.333 6.108 C 358.904 5.508,356.467 4.949,355.917 4.866 C 355.367 4.783,353.079 4.372,350.833 3.952 C 346.840 3.206,344.614 2.871,341.250 2.511 C 340.333 2.412,338.083 2.150,336.250 1.927 C 321.963 0.189,303.770 -0.362,278.583 0.179 M209.558 44.583 C 216.635 45.511,219.655 48.761,219.664 55.458 L 219.667 57.667 214.500 57.667 L 209.333 57.667 209.332 56.042 C 209.331 54.033,209.143 53.326,208.387 52.489 C 206.599 50.510,202.706 51.281,202.020 53.751 C 201.200 56.705,203.050 58.701,209.667 61.997 C 218.199 66.248,220.838 69.664,220.610 76.167 C 220.317 84.498,215.827 88.165,205.917 88.165 C 195.919 88.165,191.083 84.226,191.083 76.083 L 191.083 73.083 196.542 73.039 L 202.000 72.995 202.004 75.123 C 202.006 76.293,202.086 77.586,202.180 77.997 C 202.987 81.497,209.028 81.684,210.006 78.238 C 210.979 74.814,209.619 73.205,202.281 69.101 C 194.075 64.512,191.881 62.188,191.283 57.458 C 190.126 48.290,197.609 43.017,209.558 44.583 M119.285 46.500 C 119.396 47.096,119.974 50.171,120.569 53.333 C 121.164 56.496,121.770 59.796,121.916 60.667 C 122.062 61.538,122.513 63.975,122.919 66.083 C 123.325 68.192,123.963 71.638,124.337 73.741 C 124.710 75.845,125.347 79.271,125.751 81.356 C 126.155 83.440,126.536 85.526,126.598 85.990 L 126.710 86.833 121.105 86.833 C 118.022 86.833,115.500 86.791,115.500 86.740 C 115.500 86.689,115.091 83.970,114.592 80.699 C 114.093 77.427,113.489 73.325,113.250 71.583 C 113.011 69.842,112.486 66.279,112.084 63.667 C 111.682 61.054,111.084 56.967,110.757 54.583 C 110.126 49.999,110.007 49.271,109.905 49.373 C 109.870 49.408,109.573 51.270,109.246 53.510 C 108.918 55.750,108.388 59.233,108.068 61.250 C 107.747 63.267,107.192 66.942,106.834 69.417 C 106.477 71.892,105.808 76.317,105.348 79.250 C 104.888 82.183,104.452 85.071,104.380 85.667 L 104.250 86.750 98.625 86.794 C 94.465 86.826,93.000 86.788,93.000 86.646 C 93.000 86.267,93.695 82.341,94.502 78.167 C 94.953 75.829,95.552 72.604,95.834 71.000 C 96.115 69.396,96.677 66.358,97.083 64.250 C 97.489 62.142,98.012 59.329,98.247 58.000 C 98.742 55.185,100.501 45.848,100.594 45.540 C 100.644 45.374,102.581 45.340,109.870 45.374 L 119.083 45.417 119.285 46.500 M153.542 50.250 C 155.452 61.909,156.698 69.613,157.087 72.167 C 157.656 75.902,157.858 77.031,157.941 76.948 C 157.980 76.909,158.235 75.423,158.507 73.647 C 158.779 71.870,159.297 68.692,159.656 66.583 C 160.016 64.475,160.507 61.438,160.748 59.833 C 161.168 57.028,162.917 46.480,163.089 45.708 L 163.173 45.333 171.572 45.333 L 179.972 45.333 180.063 46.542 C 180.114 47.206,180.308 55.137,180.496 64.167 C 180.684 73.196,180.885 81.990,180.943 83.708 L 181.049 86.833 175.802 86.833 L 170.555 86.833 170.444 75.208 C 170.383 68.815,170.334 60.437,170.333 56.592 C 170.333 52.746,170.270 49.671,170.192 49.758 C 170.114 49.845,169.844 51.117,169.591 52.583 C 169.338 54.050,168.695 57.538,168.161 60.333 C 167.627 63.129,167.070 66.129,166.922 67.000 C 166.774 67.871,166.211 70.908,165.670 73.750 C 165.130 76.592,164.378 80.638,163.999 82.743 C 163.621 84.847,163.274 86.628,163.229 86.701 C 163.038 87.010,152.695 86.855,152.602 86.542 C 152.482 86.135,151.288 79.842,150.666 76.333 C 150.382 74.729,149.820 71.729,149.418 69.667 C 149.015 67.604,148.527 64.980,148.332 63.836 C 148.138 62.692,147.539 59.467,147.002 56.669 C 146.465 53.872,145.963 51.208,145.887 50.750 C 145.659 49.367,145.548 52.911,145.523 62.348 C 145.510 66.985,145.450 74.391,145.389 78.806 L 145.279 86.833 140.033 86.833 L 134.786 86.833 134.888 84.875 C 134.944 83.798,135.147 74.929,135.339 65.167 C 135.531 55.404,135.727 46.947,135.774 46.373 L 135.860 45.330 144.305 45.373 L 152.750 45.417 153.542 50.250 M240.833 61.667 C 240.880 70.703,240.983 78.065,241.066 78.250 C 242.328 81.060,246.832 81.284,248.295 78.610 C 248.561 78.124,248.590 76.822,248.667 61.750 L 248.750 45.417 254.046 45.373 L 259.343 45.329 259.294 62.123 C 259.240 80.667,259.299 79.617,258.178 81.863 C 256.130 85.964,252.387 87.773,245.583 87.945 C 236.918 88.166,232.245 85.647,230.626 79.886 C 230.274 78.634,229.910 46.409,230.238 45.554 C 230.309 45.370,231.276 45.337,235.537 45.373 L 240.750 45.417 240.833 61.667 M286.604 46.667 C 286.805 47.354,287.543 49.867,288.244 52.250 C 290.536 60.042,294.085 72.153,295.020 75.370 C 295.412 76.719,295.762 77.794,295.796 77.759 C 295.858 77.697,295.614 61.210,295.394 50.625 L 295.284 45.333 300.475 45.333 L 305.667 45.333 305.667 65.835 L 305.667 86.337 298.233 86.293 L 290.799 86.250 290.147 84.167 C 289.789 83.021,289.055 80.621,288.518 78.833 C 287.980 77.046,287.150 74.308,286.673 72.750 C 283.955 63.866,283.248 61.550,282.167 58.000 C 280.341 51.998,280.489 52.108,280.585 56.833 C 280.631 59.079,280.744 65.904,280.835 72.000 C 280.927 78.096,281.028 83.815,281.059 84.708 L 281.116 86.333 275.975 86.333 L 270.833 86.333 270.833 65.832 L 270.833 45.330 278.536 45.373 L 286.238 45.417 286.604 46.667 " stroke="none" fill="#044ca4" fill-rule="evenodd"></path><path id="path2" d="M100.611 45.444 C 100.550 45.506,100.501 45.637,100.503 45.736 C 100.504 45.841,100.561 45.829,100.639 45.706 C 100.745 45.538,102.687 45.504,109.954 45.539 C 115.004 45.563,119.100 45.527,119.058 45.458 C 118.962 45.304,100.765 45.290,100.611 45.444 M138.750 45.454 C 146.446 45.570,152.795 45.572,152.724 45.458 C 152.682 45.390,148.845 45.350,144.198 45.371 C 139.552 45.392,137.100 45.429,138.750 45.454 M167.387 45.458 C 169.753 45.484,173.578 45.484,175.887 45.458 C 178.195 45.432,176.258 45.411,171.583 45.411 C 166.908 45.411,165.020 45.432,167.387 45.458 M235.499 45.457 L 240.665 45.505 240.709 61.252 L 240.753 77.000 240.751 61.208 L 240.750 45.417 235.542 45.413 L 230.333 45.409 235.499 45.457 M248.743 45.542 C 248.700 45.656,248.684 52.875,248.708 61.583 L 248.752 77.417 248.793 61.461 L 248.833 45.505 254.125 45.458 L 259.417 45.412 254.120 45.373 C 250.006 45.342,248.805 45.380,248.743 45.542 M273.500 45.453 C 280.537 45.570,286.295 45.572,286.224 45.458 C 286.182 45.390,282.683 45.350,278.448 45.371 C 274.214 45.391,271.987 45.428,273.500 45.453 M297.875 45.458 C 299.319 45.486,301.681 45.486,303.125 45.458 C 304.569 45.430,303.387 45.408,300.500 45.408 C 297.612 45.408,296.431 45.430,297.875 45.458 M135.728 47.917 C 135.728 48.833,135.756 49.187,135.790 48.703 C 135.824 48.218,135.823 47.468,135.789 47.036 C 135.755 46.604,135.727 47.000,135.728 47.917 M180.050 47.333 C 180.050 47.837,180.081 48.044,180.119 47.792 C 180.158 47.540,180.158 47.127,180.119 46.875 C 180.081 46.623,180.050 46.829,180.050 47.333 M217.000 47.750 C 217.311 48.071,217.603 48.333,217.649 48.333 C 217.695 48.333,217.478 48.071,217.167 47.750 C 216.856 47.429,216.564 47.167,216.518 47.167 C 216.472 47.167,216.689 47.429,217.000 47.750 M59.240 48.042 L 58.750 48.583 59.292 48.094 C 59.590 47.825,59.833 47.581,59.833 47.552 C 59.833 47.423,59.696 47.537,59.240 48.042 M193.991 48.125 L 193.417 48.750 194.042 48.176 C 194.385 47.860,194.667 47.578,194.667 47.551 C 194.667 47.423,194.526 47.543,193.991 48.125 M319.324 48.125 L 318.750 48.750 319.375 48.176 C 319.719 47.860,320.000 47.578,320.000 47.551 C 320.000 47.423,319.859 47.543,319.324 48.125 M295.389 50.333 C 295.389 51.021,295.419 51.302,295.455 50.958 C 295.491 50.615,295.491 50.052,295.455 49.708 C 295.419 49.365,295.389 49.646,295.389 50.333 M145.525 51.625 C 145.552 53.780,145.629 53.599,145.703 51.208 C 145.729 50.360,145.694 49.667,145.625 49.667 C 145.556 49.667,145.511 50.548,145.525 51.625 M180.218 54.750 C 180.219 55.300,180.250 55.505,180.287 55.205 C 180.325 54.906,180.324 54.456,180.286 54.205 C 180.248 53.955,180.217 54.200,180.218 54.750 M56.557 55.917 C 56.558 56.650,56.587 56.929,56.622 56.537 C 56.657 56.145,56.657 55.545,56.621 55.204 C 56.585 54.863,56.557 55.183,56.557 55.917 M74.892 56.083 C 74.892 56.908,74.920 57.267,74.955 56.880 C 74.990 56.493,74.990 55.818,74.956 55.380 C 74.922 54.942,74.893 55.258,74.892 56.083 M191.225 56.000 C 191.225 56.779,191.254 57.098,191.289 56.708 C 191.324 56.319,191.324 55.681,191.289 55.292 C 191.254 54.902,191.225 55.221,191.225 56.000 M135.553 55.833 C 135.553 56.429,135.584 56.673,135.621 56.375 C 135.658 56.077,135.658 55.590,135.621 55.292 C 135.584 54.994,135.553 55.237,135.553 55.833 M316.372 55.667 C 316.372 55.987,316.406 56.119,316.448 55.958 C 316.490 55.798,316.490 55.535,316.448 55.375 C 316.406 55.215,316.372 55.346,316.372 55.667 M345.728 57.000 C 345.728 57.962,345.756 58.356,345.790 57.875 C 345.823 57.394,345.823 56.606,345.790 56.125 C 345.756 55.644,345.728 56.038,345.728 57.000 M335.227 57.167 C 335.227 58.038,335.255 58.394,335.289 57.958 C 335.324 57.523,335.324 56.810,335.289 56.375 C 335.255 55.940,335.227 56.296,335.227 57.167 M326.745 66.250 C 326.745 71.933,326.766 74.282,326.792 71.470 C 326.817 68.658,326.817 64.008,326.792 61.137 C 326.766 58.266,326.745 60.567,326.745 66.250 M280.559 58.583 C 280.559 59.408,280.587 59.767,280.622 59.380 C 280.657 58.993,280.657 58.318,280.623 57.880 C 280.588 57.442,280.560 57.758,280.559 58.583 M68.000 57.385 C 68.000 57.414,68.244 57.658,68.542 57.927 L 69.083 58.417 68.594 57.875 C 68.138 57.370,68.000 57.257,68.000 57.385 M203.000 57.917 C 203.311 58.237,203.603 58.500,203.649 58.500 C 203.695 58.500,203.478 58.237,203.167 57.917 C 202.856 57.596,202.564 57.333,202.518 57.333 C 202.472 57.333,202.689 57.596,203.000 57.917 M211.875 57.625 C 213.319 57.652,215.681 57.652,217.125 57.625 C 218.569 57.597,217.387 57.574,214.500 57.574 C 211.612 57.574,210.431 57.597,211.875 57.625 M295.557 59.750 C 295.558 60.483,295.587 60.763,295.622 60.371 C 295.657 59.979,295.657 59.379,295.621 59.037 C 295.585 58.696,295.557 59.017,295.557 59.750 M180.385 62.083 C 180.386 62.633,180.417 62.838,180.454 62.539 C 180.491 62.239,180.490 61.789,180.452 61.539 C 180.414 61.288,180.384 61.533,180.385 62.083 M135.385 63.417 C 135.386 63.967,135.417 64.172,135.454 63.872 C 135.491 63.572,135.490 63.122,135.452 62.872 C 135.414 62.622,135.384 62.867,135.385 63.417 M331.069 66.500 C 331.069 68.196,331.094 68.890,331.124 68.042 C 331.154 67.194,331.154 65.806,331.124 64.958 C 331.094 64.110,331.069 64.804,331.069 66.500 M170.402 68.583 C 170.401 70.142,170.426 70.802,170.457 70.050 C 170.488 69.298,170.488 68.023,170.458 67.217 C 170.427 66.410,170.402 67.025,170.402 68.583 M280.727 68.167 C 280.727 69.037,280.755 69.394,280.789 68.958 C 280.824 68.523,280.824 67.810,280.789 67.375 C 280.755 66.940,280.727 67.296,280.727 68.167 M295.731 69.833 C 295.731 70.979,295.758 71.448,295.790 70.875 C 295.823 70.302,295.823 69.365,295.790 68.792 C 295.758 68.219,295.731 68.688,295.731 69.833 M180.555 69.583 C 180.555 70.225,180.586 70.467,180.622 70.121 C 180.658 69.775,180.657 69.250,180.620 68.955 C 180.583 68.659,180.554 68.942,180.555 69.583 M135.218 70.750 C 135.219 71.300,135.250 71.505,135.287 71.205 C 135.325 70.906,135.324 70.456,135.286 70.205 C 135.248 69.955,135.217 70.200,135.218 70.750 M145.403 73.167 C 145.403 74.862,145.427 75.556,145.458 74.708 C 145.488 73.860,145.488 72.473,145.458 71.625 C 145.427 70.777,145.403 71.471,145.403 73.167 M193.886 73.125 C 195.427 73.152,197.902 73.152,199.386 73.125 C 200.869 73.097,199.608 73.075,196.583 73.075 C 193.558 73.075,192.344 73.097,193.886 73.125 M180.723 77.000 C 180.723 77.688,180.752 77.969,180.788 77.625 C 180.824 77.281,180.824 76.719,180.788 76.375 C 180.752 76.031,180.723 76.313,180.723 77.000 M316.372 76.500 C 316.372 76.821,316.406 76.952,316.448 76.792 C 316.490 76.631,316.490 76.369,316.448 76.208 C 316.406 76.048,316.372 76.179,316.372 76.500 M230.205 76.667 C 230.205 76.987,230.240 77.119,230.282 76.958 C 230.323 76.798,230.323 76.535,230.282 76.375 C 230.240 76.215,230.205 76.346,230.205 76.667 M280.894 77.750 C 280.895 78.667,280.923 79.020,280.956 78.536 C 280.990 78.052,280.990 77.302,280.956 76.869 C 280.921 76.437,280.894 76.833,280.894 77.750 M86.205 77.167 C 86.205 77.487,86.240 77.619,86.282 77.458 C 86.323 77.298,86.323 77.035,86.282 76.875 C 86.240 76.715,86.205 76.846,86.205 77.167 M259.209 77.583 C 259.211 77.950,259.245 78.080,259.285 77.873 C 259.324 77.666,259.323 77.366,259.281 77.206 C 259.239 77.047,259.207 77.217,259.209 77.583 M135.050 78.167 C 135.050 78.671,135.081 78.877,135.119 78.625 C 135.158 78.373,135.158 77.960,135.119 77.708 C 135.081 77.456,135.050 77.662,135.050 78.167 M330.711 80.120 C 330.964 80.158,331.339 80.157,331.544 80.117 C 331.749 80.078,331.542 80.046,331.083 80.048 C 330.625 80.049,330.457 80.081,330.711 80.120 M205.792 80.784 C 205.998 80.824,206.335 80.824,206.542 80.784 C 206.748 80.745,206.579 80.712,206.167 80.712 C 205.754 80.712,205.585 80.745,205.792 80.784 M71.375 80.948 C 71.535 80.990,71.798 80.990,71.958 80.948 C 72.119 80.906,71.987 80.872,71.667 80.872 C 71.346 80.872,71.215 80.906,71.375 80.948 M180.890 84.417 C 180.891 85.150,180.920 85.429,180.956 85.037 C 180.991 84.645,180.990 84.045,180.954 83.704 C 180.919 83.363,180.890 83.683,180.890 84.417 M217.575 84.542 L 216.917 85.250 217.625 84.591 C 218.015 84.229,218.333 83.910,218.333 83.883 C 218.333 83.757,218.188 83.883,217.575 84.542 M134.883 85.333 C 134.883 85.837,134.915 86.044,134.953 85.792 C 134.991 85.540,134.991 85.127,134.953 84.875 C 134.915 84.623,134.883 84.829,134.883 85.333 M330.125 87.623 C 330.698 87.656,331.635 87.656,332.208 87.623 C 332.781 87.591,332.313 87.564,331.167 87.564 C 330.021 87.564,329.552 87.591,330.125 87.623 M70.961 88.454 C 71.261 88.491,71.711 88.490,71.961 88.452 C 72.212 88.414,71.967 88.384,71.417 88.385 C 70.867 88.386,70.662 88.417,70.961 88.454 " stroke="none" fill="#6294c7" fill-rule="evenodd"></path><path id="path3" d="M170.381 65.083 C 170.382 65.542,170.415 65.709,170.453 65.456 C 170.491 65.203,170.490 64.828,170.451 64.623 C 170.411 64.418,170.380 64.625,170.381 65.083 M145.381 69.417 C 145.382 69.875,145.415 70.043,145.453 69.789 C 145.491 69.536,145.490 69.161,145.451 68.956 C 145.411 68.751,145.380 68.958,145.381 69.417 " stroke="none" fill="#7ba4cd" fill-rule="evenodd"></path><path id="path4" d="M205.042 44.456 C 205.477 44.490,206.190 44.490,206.625 44.456 C 207.060 44.422,206.704 44.393,205.833 44.393 C 204.963 44.393,204.606 44.422,205.042 44.456 M259.247 61.083 C 259.247 69.700,259.267 73.201,259.292 68.862 C 259.316 64.524,259.316 57.474,259.292 53.196 C 259.267 48.917,259.247 52.467,259.247 61.083 M305.581 65.917 C 305.581 77.192,305.601 81.829,305.625 76.221 C 305.649 70.614,305.649 61.389,305.625 55.721 C 305.601 50.054,305.581 54.642,305.581 65.917 M230.247 60.750 C 230.247 69.092,230.267 72.480,230.292 68.279 C 230.316 64.078,230.316 57.253,230.292 53.112 C 230.267 48.971,230.247 52.408,230.247 60.750 M295.390 47.250 C 295.391 47.983,295.420 48.263,295.456 47.871 C 295.491 47.479,295.490 46.879,295.454 46.537 C 295.419 46.196,295.390 46.517,295.390 47.250 M342.333 47.719 C 342.333 47.748,342.577 47.991,342.875 48.260 L 343.417 48.750 342.927 48.208 C 342.471 47.703,342.333 47.590,342.333 47.719 M180.052 49.583 C 180.053 50.133,180.084 50.338,180.121 50.039 C 180.158 49.739,180.157 49.289,180.119 49.039 C 180.081 48.788,180.051 49.033,180.052 49.583 M135.723 51.167 C 135.723 51.854,135.752 52.135,135.788 51.792 C 135.824 51.448,135.824 50.885,135.788 50.542 C 135.752 50.198,135.723 50.479,135.723 51.167 M280.396 52.911 C 280.344 53.046,280.341 53.252,280.388 53.370 C 280.435 53.487,280.480 53.410,280.487 53.198 C 280.495 52.952,280.569 52.856,280.692 52.933 C 280.812 53.006,280.840 52.978,280.766 52.859 C 280.607 52.603,280.509 52.617,280.396 52.911 M219.542 54.083 C 219.544 54.450,219.578 54.580,219.618 54.373 C 219.658 54.166,219.656 53.866,219.615 53.706 C 219.573 53.547,219.540 53.717,219.542 54.083 M85.201 55.706 L 85.167 57.329 80.042 57.375 L 74.917 57.422 80.047 57.461 C 84.188 57.492,85.194 57.457,85.262 57.278 C 85.309 57.157,85.322 56.388,85.291 55.570 L 85.235 54.083 85.201 55.706 M201.712 55.000 C 201.712 55.413,201.745 55.581,201.784 55.375 C 201.824 55.169,201.824 54.831,201.784 54.625 C 201.745 54.419,201.712 54.587,201.712 55.000 M209.393 56.000 C 209.393 56.871,209.422 57.227,209.456 56.792 C 209.490 56.356,209.490 55.644,209.456 55.208 C 209.422 54.773,209.393 55.129,209.393 56.000 M295.558 56.500 C 295.558 57.279,295.587 57.598,295.622 57.208 C 295.657 56.819,295.657 56.181,295.622 55.792 C 295.587 55.402,295.558 55.721,295.558 56.500 M180.218 57.083 C 180.219 57.633,180.250 57.838,180.287 57.539 C 180.325 57.239,180.324 56.789,180.286 56.539 C 180.248 56.288,180.217 56.533,180.218 57.083 M316.411 66.167 C 316.411 71.529,316.432 73.723,316.458 71.042 C 316.484 68.360,316.484 63.973,316.458 61.292 C 316.432 58.610,316.411 60.804,316.411 66.167 M135.555 58.417 C 135.555 59.058,135.586 59.300,135.622 58.955 C 135.658 58.609,135.657 58.084,135.620 57.788 C 135.583 57.492,135.554 57.775,135.555 58.417 M170.403 61.333 C 170.403 63.029,170.427 63.723,170.458 62.875 C 170.488 62.027,170.488 60.640,170.458 59.792 C 170.427 58.944,170.403 59.637,170.403 61.333 M337.875 58.625 C 339.319 58.652,341.681 58.652,343.125 58.625 C 344.569 58.597,343.387 58.574,340.500 58.574 C 337.612 58.574,336.431 58.597,337.875 58.625 M280.559 62.083 C 280.559 62.908,280.587 63.267,280.622 62.880 C 280.657 62.493,280.657 61.818,280.623 61.380 C 280.588 60.942,280.560 61.258,280.559 62.083 M145.403 65.500 C 145.403 67.287,145.428 68.019,145.458 67.125 C 145.488 66.231,145.488 64.769,145.458 63.875 C 145.428 62.981,145.403 63.712,145.403 65.500 M180.388 64.583 C 180.389 65.225,180.419 65.467,180.455 65.121 C 180.491 64.775,180.490 64.250,180.454 63.955 C 180.417 63.659,180.387 63.942,180.388 64.583 M334.792 63.625 C 336.831 63.651,340.169 63.651,342.208 63.625 C 344.248 63.598,342.579 63.577,338.500 63.577 C 334.421 63.577,332.752 63.598,334.792 63.625 M295.726 65.750 C 295.725 66.575,295.754 66.934,295.788 66.547 C 295.823 66.160,295.824 65.485,295.789 65.047 C 295.755 64.609,295.726 64.925,295.726 65.750 M135.385 65.750 C 135.386 66.300,135.417 66.505,135.454 66.205 C 135.491 65.906,135.490 65.456,135.452 65.205 C 135.414 64.955,135.384 65.200,135.385 65.750 M333.246 69.622 L 335.326 69.677 335.377 72.963 L 335.428 76.250 335.422 72.917 L 335.417 69.583 333.291 69.576 L 331.166 69.568 333.246 69.622 M280.727 71.833 C 280.727 72.704,280.755 73.060,280.789 72.625 C 280.824 72.190,280.824 71.477,280.789 71.042 C 280.755 70.606,280.727 70.962,280.727 71.833 M180.555 72.250 C 180.555 72.892,180.586 73.134,180.622 72.788 C 180.658 72.442,180.657 71.917,180.620 71.621 C 180.583 71.325,180.554 71.608,180.555 72.250 M135.218 73.083 C 135.219 73.633,135.250 73.838,135.287 73.539 C 135.325 73.239,135.324 72.789,135.286 72.539 C 135.248 72.288,135.217 72.533,135.218 73.083 M74.000 73.083 C 74.311 73.404,74.603 73.667,74.649 73.667 C 74.695 73.667,74.478 73.404,74.167 73.083 C 73.856 72.762,73.564 72.500,73.518 72.500 C 73.472 72.500,73.689 72.762,74.000 73.083 M56.400 75.500 C 56.400 76.829,56.425 77.373,56.457 76.708 C 56.489 76.044,56.489 74.956,56.457 74.292 C 56.425 73.627,56.400 74.171,56.400 75.500 M67.398 75.167 C 67.398 76.313,67.424 76.781,67.457 76.208 C 67.489 75.635,67.489 74.698,67.457 74.125 C 67.424 73.552,67.398 74.021,67.398 75.167 M191.065 75.333 C 191.065 76.571,191.092 77.077,191.124 76.458 C 191.156 75.840,191.156 74.827,191.124 74.208 C 191.092 73.590,191.065 74.096,191.065 75.333 M295.894 75.083 C 295.895 76.000,295.923 76.354,295.956 75.869 C 295.990 75.385,295.990 74.635,295.956 74.203 C 295.921 73.770,295.894 74.167,295.894 75.083 M86.205 75.500 C 86.205 75.821,86.240 75.952,86.282 75.792 C 86.323 75.631,86.323 75.369,86.282 75.208 C 86.240 75.048,86.205 75.179,86.205 75.500 M345.709 75.583 C 345.711 75.950,345.745 76.080,345.785 75.873 C 345.824 75.666,345.823 75.366,345.781 75.206 C 345.739 75.047,345.707 75.217,345.709 75.583 M180.724 79.917 C 180.724 80.650,180.754 80.929,180.789 80.537 C 180.824 80.145,180.824 79.545,180.788 79.204 C 180.752 78.863,180.723 79.183,180.724 79.917 M135.052 80.250 C 135.053 80.800,135.084 81.005,135.121 80.705 C 135.158 80.406,135.157 79.956,135.119 79.705 C 135.081 79.455,135.051 79.700,135.052 80.250 M170.570 83.250 C 170.570 85.083,170.594 85.856,170.624 84.967 C 170.654 84.078,170.654 82.578,170.624 81.634 C 170.595 80.689,170.570 81.417,170.570 83.250 M280.899 82.333 C 280.899 83.571,280.925 84.077,280.957 83.458 C 280.989 82.840,280.989 81.827,280.957 81.208 C 280.925 80.590,280.899 81.096,280.899 82.333 M244.377 80.620 C 244.631 80.658,245.006 80.657,245.211 80.617 C 245.416 80.578,245.208 80.546,244.750 80.548 C 244.292 80.549,244.124 80.581,244.377 80.620 M319.333 83.750 C 319.644 84.071,319.936 84.333,319.982 84.333 C 320.028 84.333,319.811 84.071,319.500 83.750 C 319.189 83.429,318.897 83.167,318.851 83.167 C 318.805 83.167,319.022 83.429,319.333 83.750 M256.158 84.458 L 255.583 85.083 256.208 84.509 C 256.552 84.193,256.833 83.912,256.833 83.884 C 256.833 83.757,256.692 83.877,256.158 84.458 M145.167 86.331 C 145.167 86.653,145.027 86.663,140.042 86.708 L 134.917 86.755 140.125 86.794 L 145.333 86.833 145.333 86.417 C 145.333 86.188,145.296 86.000,145.250 86.000 C 145.204 86.000,145.167 86.149,145.167 86.331 M126.500 86.504 C 126.500 86.619,124.685 86.660,121.016 86.629 C 117.999 86.604,115.566 86.640,115.609 86.708 C 115.776 86.978,126.667 86.855,126.667 86.583 C 126.667 86.446,126.629 86.333,126.583 86.333 C 126.537 86.333,126.500 86.410,126.500 86.504 M180.833 86.472 C 180.833 86.615,179.480 86.677,175.708 86.706 L 170.583 86.745 175.656 86.792 C 180.407 86.835,181.322 86.766,180.947 86.392 C 180.885 86.329,180.833 86.365,180.833 86.472 M95.698 86.791 C 97.227 86.819,99.777 86.819,101.364 86.791 C 102.951 86.764,101.700 86.742,98.583 86.741 C 95.467 86.741,94.168 86.764,95.698 86.791 M155.302 86.791 C 156.798 86.819,159.198 86.819,160.635 86.791 C 162.073 86.764,160.850 86.741,157.917 86.741 C 154.983 86.741,153.807 86.764,155.302 86.791 " stroke="none" fill="#84a4d4" fill-rule="evenodd"></path></g></svg>