<?xml version="1.0" encoding="UTF-8"?>
<svg version="1.1" xmlns="http://www.w3.org/2000/svg" width="512" height="256">
<path d="M0 0 C-2.33286259 14.64921785 -4.93372692 29.23743654 -7.6875 43.8125 C-7.8435672 44.6421225 -7.9996344 45.471745 -8.16043091 46.32650757 C-8.6083145 48.7038399 -9.05937971 51.08054307 -9.51171875 53.45703125 C-9.64699982 54.17480743 -9.78228088 54.89258362 -9.92166138 55.6321106 C-10.47191843 58.50198914 -11.07449897 61.22349691 -12 64 C-36.09 64 -60.18 64 -85 64 C-86.815 54.55375 -88.63 45.1075 -90.5 35.375 C-91.07427734 32.40161621 -91.64855469 29.42823242 -92.24023438 26.36474609 C-92.69184383 24.00106012 -93.14304348 21.63729581 -93.59375 19.2734375 C-93.83125977 18.05180908 -94.06876953 16.83018066 -94.31347656 15.5715332 C-94.53680664 14.39469971 -94.76013672 13.21786621 -94.99023438 12.00537109 C-95.18564819 10.98833099 -95.38106201 9.97129089 -95.58239746 8.9234314 C-96.01765513 5.87640507 -96.21552851 3.07224285 -96 0 C-93.9453125 -1.6875 -93.9453125 -1.6875 -91 -3 C-89.90429688 -3.495 -88.80859375 -3.99 -87.6796875 -4.5 C-60.0959748 -15.66509723 -25.97171065 -15.52370015 0 0 Z " fill="#1572E6" transform="translate(164,84)"/>
<path d="M0 0 C0.99515625 0.32613281 1.9903125 0.65226563 3.015625 0.98828125 C32.30710577 10.28146232 60.55507402 9.84962526 90.03979492 1.54077148 C92.01794523 0.99504936 94.00922332 0.49769417 96 0 C96 4.95 96 9.9 96 15 C65.76417213 25.9604876 31.57265371 25.93667322 1 16 C0 15 0 15 -0.09765625 11.62109375 C-0.09098369 10.22652923 -0.07902532 8.83198257 -0.0625 7.4375 C-0.05798828 6.72658203 -0.05347656 6.01566406 -0.04882812 5.28320312 C-0.03700864 3.52209987 -0.01907263 1.76103964 0 0 Z " fill="#1572E6" transform="translate(68,161)"/>
<path d="M0 0 C0 3.3 0 6.6 0 10 C-1.299375 9.484375 -2.59875 8.96875 -3.9375 8.4375 C-8.83649217 6.82507581 -13.03630801 6.40969091 -18 8 C-21.83153374 11.0163138 -24.61167596 14.22625684 -25.30078125 19.1484375 C-25.32710142 24.14926936 -25.00479199 27.79329122 -22 32 C-17.63135974 34.97861836 -14.21769009 35.31306141 -9 35 C-8.67 32.36 -8.34 29.72 -8 27 C-10.97 27 -13.94 27 -17 27 C-17 24.03 -17 21.06 -17 18 C-14.5622037 17.94602665 -12.12560315 17.90634384 -9.6875 17.875 C-8.99720703 17.85824219 -8.30691406 17.84148437 -7.59570312 17.82421875 C-3.82864604 17.78782206 -2.21568296 17.85621136 1 20 C1.34057617 22.24658203 1.34057617 22.24658203 1.29296875 25.0078125 C1.2784668 26.48701172 1.2784668 26.48701172 1.26367188 27.99609375 C1.23853516 29.02863281 1.21339844 30.06117188 1.1875 31.125 C1.16719727 32.68541016 1.16719727 32.68541016 1.14648438 34.27734375 C1.11105228 36.85207627 1.06165221 39.4257833 1 42 C-6.6262465 44.90910011 -15.62877537 45.39915712 -23.5 42.9375 C-28.52306643 40.62495336 -31.71899365 36.7360362 -34.03515625 31.7890625 C-36.64677445 24.67088453 -36.71007371 18.40808701 -34.1015625 11.27734375 C-31.53591342 5.97318271 -27.76696103 1.43178054 -22.3125 -1 C-15.19316061 -3.15106746 -6.80876359 -3.02611715 0 0 Z " fill="#1572E6" transform="translate(365,107)"/>
<path d="M0 0 C0 3.3 0 6.6 0 10 C-1.505625 9.505 -3.01125 9.01 -4.5625 8.5 C-9.36196256 7.05675736 -14.28150681 5.6407534 -19 8 C-19.03101181 10.4209933 -19.03101181 10.4209933 -18 13 C-15.69448526 14.25535881 -13.69837992 15.14752764 -11.25 16 C-5.12340108 18.25581885 -1.1252295 20.67355383 2.4375 26.25 C3.30145035 30.47375727 2.65302675 34.03273579 1 38 C-1.69474765 41.34085673 -4.78106889 43.23846009 -9 44 C-16.38381444 44.54851193 -22.26030021 44.11063067 -29 41 C-29 37.7 -29 34.4 -29 31 C-28.2265625 31.30035156 -27.453125 31.60070312 -26.65625 31.91015625 C-20.21638976 34.26134285 -15.72551956 35.55204297 -9 34 C-8.67 32.35 -8.34 30.7 -8 29 C-9.64548828 28.32904297 -9.64548828 28.32904297 -11.32421875 27.64453125 C-12.77891561 27.03449708 -14.23332784 26.42378386 -15.6875 25.8125 C-16.40873047 25.52052734 -17.12996094 25.22855469 -17.87304688 24.92773438 C-22.47722582 22.97253509 -25.7934163 20.98523786 -29 17 C-30.52452669 12.78556324 -30.26965859 8.95279369 -29.0625 4.6875 C-22.12542759 -4.35171556 -9.86051051 -3.58564018 0 0 Z " fill="#1572E6" transform="translate(240,107)"/>
<path d="M0 0 C3.3 0 6.6 0 10 0 C10.33 6.93 10.66 13.86 11 21 C12.8871875 18.525 12.8871875 18.525 14.8125 16 C19.0523499 11.20653912 19.0523499 11.20653912 23.046875 10.3359375 C25.761393 10.37109965 28.32447305 10.54991135 31 11 C30.10635485 12.20995254 29.20994221 13.41786111 28.3125 14.625 C27.77109375 15.35460937 27.2296875 16.08421875 26.671875 16.8359375 C25.20795633 18.73082289 23.67517338 20.48330725 22.0625 22.25 C19.73546352 24.69584551 19.73546352 24.69584551 20.22827148 26.97412109 C21.49605209 30.30219559 23.84060349 32.8865966 26.0625 35.625 C31 41.74130286 31 41.74130286 31 44 C27.10133034 44.78702116 23.87054124 45.0122954 20 44 C16.30441687 40.38888734 13.65797433 36.41026852 11 32 C10.67 35.96 10.34 39.92 10 44 C6.7 44 3.4 44 0 44 C0 29.48 0 14.96 0 0 Z " fill="#1572E6" transform="translate(438,106)"/>
<path d="M0 0 C3.10731115 3.02962837 4.26989364 5.26880622 5.5 9.4375 C5.5 12.4075 5.5 15.3775 5.5 18.4375 C-4.895 18.9325 -4.895 18.9325 -15.5 19.4375 C-11.20440874 24.77424967 -11.20440874 24.77424967 -6.5625 24.875 C-2.98200104 24.65079418 0.16167565 23.77282974 3.5 22.4375 C3.5 25.4075 3.5 28.3775 3.5 31.4375 C-2.63836102 34.09192639 -9.39137988 34.57916316 -15.84765625 32.78515625 C-19.93866766 31.00346343 -22.87810937 28.76642474 -24.875 24.62109375 C-26.6303921 18.48819261 -26.47510748 11.81464286 -23.9375 5.9375 C-18.76514482 -2.68309196 -8.70307038 -3.88529928 0 0 Z M-14.875 8.375 C-16.60314537 10.13079129 -16.60314537 10.13079129 -16.5 11.4375 C-12.21 11.4375 -7.92 11.4375 -3.5 11.4375 C-3.83 10.1175 -4.16 8.7975 -4.5 7.4375 C-8.377135 5.4989325 -11.52545958 5.64248019 -14.875 8.375 Z " fill="#1572E6" transform="translate(270.5,117.5625)"/>
<path d="M0 0 C3.10731115 3.02962837 4.26989364 5.26880622 5.5 9.4375 C5.5 12.4075 5.5 15.3775 5.5 18.4375 C-4.895 18.9325 -4.895 18.9325 -15.5 19.4375 C-11.20440874 24.77424967 -11.20440874 24.77424967 -6.5625 24.875 C-2.98200104 24.65079418 0.16167565 23.77282974 3.5 22.4375 C3.5 25.4075 3.5 28.3775 3.5 31.4375 C-2.82900075 34.10234242 -9.89821875 34.73642682 -16.375 32.1875 C-21.37700035 29.3863798 -23.66349012 26.83762055 -25.5 21.4375 C-26.29454042 15.25671461 -26.0295808 9.53765052 -22.8125 4.09765625 C-17.19725013 -3.00496635 -7.84504493 -3.5022522 0 0 Z M-14.875 8.375 C-16.60314537 10.13079129 -16.60314537 10.13079129 -16.5 11.4375 C-12.21 11.4375 -7.92 11.4375 -3.5 11.4375 C-3.83 10.1175 -4.16 8.7975 -4.5 7.4375 C-8.377135 5.4989325 -11.52545958 5.64248019 -14.875 8.375 Z " fill="#1572E6" transform="translate(429.5,117.5625)"/>
<path d="M0 0 C2.91258804 2.76695864 4.22484288 4.54952865 5.5 8.375 C5.5 11.675 5.5 14.975 5.5 18.375 C-4.895 18.87 -4.895 18.87 -15.5 19.375 C-11.20440874 24.71174967 -11.20440874 24.71174967 -6.5625 24.8125 C-2.98200104 24.58829418 0.16167565 23.71032974 3.5 22.375 C3.5 25.345 3.5 28.315 3.5 31.375 C-2.66277937 34.03998567 -9.35499513 34.46470178 -15.84765625 32.7578125 C-20.42488159 30.82425563 -22.96071336 28.30400412 -24.875 23.71484375 C-26.48188887 17.69905353 -26.41311512 11.69250138 -23.9375 5.9375 C-18.81800604 -2.71942207 -8.67840995 -4.02926176 0 0 Z M-14.875 8.3125 C-16.60314537 10.06829129 -16.60314537 10.06829129 -16.5 11.375 C-12.21 11.375 -7.92 11.375 -3.5 11.375 C-3.83 10.055 -4.16 8.735 -4.5 7.375 C-8.377135 5.4364325 -11.52545958 5.57998019 -14.875 8.3125 Z " fill="#1572E6" transform="translate(395.5,117.625)"/>
<path d="M0 0 C2.47292654 1.89862471 3.15723687 2.85405461 4.25390625 5.73046875 C4.48095703 8.66308594 4.48095703 8.66308594 4.44921875 12.02734375 C4.44277344 13.23261719 4.43632812 14.43789062 4.4296875 15.6796875 C4.41292969 16.93394531 4.39617187 18.18820313 4.37890625 19.48046875 C4.36988281 20.75019531 4.36085938 22.01992187 4.3515625 23.328125 C4.3279963 26.46242968 4.29509457 29.59635416 4.25390625 32.73046875 C-3.22017422 34.30050764 -11.43297177 35.29123695 -18.49609375 31.85546875 C-21.74609375 29.73046875 -21.74609375 29.73046875 -22.74609375 27.73046875 C-23.16683753 24.67106038 -23.22608798 21.78449795 -22.74609375 18.73046875 C-20.21640901 15.44871557 -18.66878044 14.03803098 -14.74609375 12.73046875 C-13.01814023 12.66243908 -11.2877401 12.6455123 -9.55859375 12.66796875 C-8.65753906 12.67699219 -7.75648438 12.68601563 -6.828125 12.6953125 C-6.14105469 12.70691406 -5.45398438 12.71851563 -4.74609375 12.73046875 C-5.40609375 11.08046875 -6.06609375 9.43046875 -6.74609375 7.73046875 C-11.96588503 7.55047595 -15.81872356 7.75952067 -20.74609375 9.73046875 C-20.74609375 6.76046875 -20.74609375 3.79046875 -20.74609375 0.73046875 C-14.51179558 -2.04033044 -6.28990763 -2.90785203 0 0 Z M-13.74609375 20.73046875 C-13.41609375 22.38046875 -13.08609375 24.03046875 -12.74609375 25.73046875 C-8.6438579 26.74586987 -8.6438579 26.74586987 -4.74609375 25.73046875 C-4.74609375 23.42046875 -4.74609375 21.11046875 -4.74609375 18.73046875 C-8.54167256 18.73046875 -10.37511992 19.23225816 -13.74609375 20.73046875 Z " fill="#1573E6" transform="translate(300.74609375,117.26953125)"/>
<path d="M0 0 C0.98291016 0.00966797 1.96582031 0.01933594 2.97851562 0.02929688 C4.00267578 0.05443359 5.02683594 0.07957031 6.08203125 0.10546875 C7.11779297 0.11900391 8.15355469 0.13253906 9.22070312 0.14648438 C11.77886737 0.1818507 14.33676454 0.23565779 16.89453125 0.29296875 C16.89453125 4.25296875 16.89453125 8.21296875 16.89453125 12.29296875 C13.26453125 12.29296875 9.63453125 12.29296875 5.89453125 12.29296875 C5.89453125 18.23296875 5.89453125 24.17296875 5.89453125 30.29296875 C1.27453125 30.29296875 -3.34546875 30.29296875 -8.10546875 30.29296875 C-8.18615713 25.85510761 -8.24582514 21.41870293 -8.29296875 16.98046875 C-8.31810547 15.71783203 -8.34324219 14.45519531 -8.36914062 13.15429688 C-8.37880859 11.94580078 -8.38847656 10.73730469 -8.3984375 9.4921875 C-8.42200317 7.81902466 -8.42200317 7.81902466 -8.44604492 6.11206055 C-8.10546875 3.29296875 -8.10546875 3.29296875 -6.90625 1.42382812 C-4.48686077 -0.09550633 -2.84652392 -0.04936169 0 0 Z " fill="#1673E5" transform="translate(172.10546875,123.70703125)"/>
<path d="M0 0 C2.97 0 5.94 0 9 0 C9 2.97 9 5.94 9 9 C11.97 9 14.94 9 18 9 C18 11.31 18 13.62 18 16 C15.03 16 12.06 16 9 16 C9.14019692 18.81288705 9.28687955 21.62516885 9.4375 24.4375 C9.47681641 25.23994141 9.51613281 26.04238281 9.55664062 26.86914062 C9.4054296 30.75239561 9.4054296 30.75239561 11 34 C12.91424457 33.8981629 12.91424457 33.8981629 15.0625 33.5625 C16.361875 33.376875 17.66125 33.19125 19 33 C19 35.97 19 38.94 19 42 C16.08913331 42.9702889 14.09776315 43.16467847 11.0625 43.1875 C10.20785156 43.20167969 9.35320312 43.21585938 8.47265625 43.23046875 C5.76626769 42.97821452 4.23983886 42.53353978 2 41 C-0.69855859 37.207415 -0.25360716 32.9695647 -0.1953125 28.515625 C-0.1924826 27.70003113 -0.18965271 26.88443726 -0.18673706 26.04412842 C-0.17556558 23.44593472 -0.15046675 20.84808905 -0.125 18.25 C-0.11496627 16.48568207 -0.10584111 14.72135872 -0.09765625 12.95703125 C-0.07563619 8.63788727 -0.04112733 4.31900259 0 0 Z " fill="#1572E6" transform="translate(309,108)"/>
<path d="M0 0 C3.43796837 -0.08078777 6.87404727 -0.14039791 10.3125 -0.1875 C11.28896484 -0.21263672 12.26542969 -0.23777344 13.27148438 -0.26367188 C14.20927734 -0.27333984 15.14707031 -0.28300781 16.11328125 -0.29296875 C16.97735596 -0.3086792 17.84143066 -0.32438965 18.73168945 -0.34057617 C21 0 21 0 22.78710938 1.13085938 C24.55382765 3.8534832 24.33837399 5.97544696 24.29296875 9.19921875 C24.28330078 10.40771484 24.27363281 11.61621094 24.26367188 12.86132812 C24.23853516 14.12396484 24.21339844 15.38660156 24.1875 16.6875 C24.16719727 18.59885742 24.16719727 18.59885742 24.14648438 20.54882812 C24.11108471 23.69939825 24.05727724 26.84975166 24 30 C19.71 30 15.42 30 11 30 C11 24.06 11 18.12 11 12 C7.37 12 3.74 12 0 12 C0 8.04 0 4.08 0 0 Z " fill="#1572E6" transform="translate(43,124)"/>
</svg>
