<?xml version="1.0" encoding="UTF-8"?>
<svg version="1.1" xmlns="http://www.w3.org/2000/svg" width="512" height="512">
<path d="M0 0 C4.89872999 2.85759249 7.79346527 7.1303958 9.5625 12.4375 C9.5625 21.0175 9.5625 29.5975 9.5625 38.4375 C39.2625 38.4375 68.9625 38.4375 99.5625 38.4375 C99.5625 29.8575 99.5625 21.2775 99.5625 12.4375 C104.07147227 3.41955546 104.07147227 3.41955546 107.125 1.5 C107.70378906 1.11972656 108.28257812 0.73945312 108.87890625 0.34765625 C114.49811227 -2.69010477 121.89172797 -2.55816692 127.953125 -0.9140625 C132.95949234 1.32160536 135.97250522 4.64656545 138.5625 9.4375 C141.62118527 18.6135558 139.5625 28.76508791 139.5625 38.4375 C169.5925 38.4375 199.6225 38.4375 230.5625 38.4375 C230.5625 29.8575 230.5625 21.2775 230.5625 12.4375 C235.07147227 3.41955546 235.07147227 3.41955546 238.125 1.5 C238.70378906 1.11972656 239.28257812 0.73945312 239.87890625 0.34765625 C245.49811227 -2.69010477 252.89172797 -2.55816692 258.953125 -0.9140625 C263.95949234 1.32160536 266.97250522 4.64656545 269.5625 9.4375 C270.64167226 12.67501678 270.67675601 15.01501771 270.66015625 18.41796875 C270.65693359 19.58134766 270.65371094 20.74472656 270.65039062 21.94335938 C270.64201172 23.15830078 270.63363281 24.37324219 270.625 25.625 C270.62048828 26.85154297 270.61597656 28.07808594 270.61132812 29.34179688 C270.59953065 32.37374668 270.58306921 35.40559906 270.5625 38.4375 C271.62984375 38.41655273 272.6971875 38.39560547 273.796875 38.37402344 C277.83742322 38.30046085 281.87791528 38.25528764 285.91894531 38.21777344 C287.6527712 38.19791802 289.38653255 38.17082427 291.12011719 38.13574219 C305.88464636 37.84489978 319.75797625 39.08734246 333 46.25 C333.66410889 46.59764404 334.32821777 46.94528809 335.01245117 47.3034668 C340.33610202 50.16233179 345.09290575 53.35124686 349.5625 57.4375 C350.45453125 58.23800781 351.3465625 59.03851563 352.265625 59.86328125 C366.38056461 73.18762998 375.99482913 91.6566331 376.84210014 111.26482582 C376.99709635 117.14271116 376.98004253 123.0202103 376.96655273 128.8996582 C376.97226326 131.15458005 376.97923015 133.409499 376.98735046 135.66441345 C377.00521448 141.75493771 377.00412707 147.84531738 376.99840808 153.93585992 C376.99530864 159.02820622 377.00141657 164.12052506 377.00744683 169.21286744 C377.02226599 181.90897864 377.01869705 194.60498792 377.00658352 207.30109283 C376.99663738 218.31388742 377.00962228 229.32651434 377.03351771 240.33928309 C377.05791977 251.67151974 377.06711525 263.0036562 377.06086498 274.33592671 C377.05749541 280.68865245 377.05991168 287.04123939 377.07711601 293.39394569 C377.0925761 299.36211524 377.08863969 305.32996367 377.06981087 311.2981205 C377.06612349 313.48623595 377.06923775 315.67437516 377.07969666 317.86246872 C377.09289656 320.85243366 377.08136768 323.84133368 377.06370544 326.83125305 C377.07331045 327.69400087 377.08291546 328.55674869 377.09281152 329.44564039 C377.01361338 335.9747534 375.42937519 341.53363287 370.74609375 346.27734375 C370.16988281 346.63957031 369.59367187 347.00179688 369 347.375 C368.42121094 347.75527344 367.84242188 348.13554687 367.24609375 348.52734375 C361.62688773 351.56510477 354.23327203 351.43316692 348.171875 349.7890625 C343.16550766 347.55339464 340.15249478 344.22843455 337.5625 339.4375 C336.27322981 335.56968942 336.41586747 331.91243489 336.41773987 327.88136292 C336.41421302 326.99705202 336.41068618 326.11274112 336.40705246 325.20163292 C336.39634337 322.22629497 336.39268056 319.25098901 336.38891602 316.27563477 C336.38261217 314.14690515 336.37584656 312.01817686 336.36865234 309.88945007 C336.35396671 305.29776344 336.34224805 300.70608195 336.33270454 296.11438179 C336.3172618 288.84795364 336.29331047 281.58156918 336.26780701 274.31517029 C336.19658586 253.64935062 336.13691253 232.98350552 336.08569336 212.31762695 C336.05734382 200.90963359 336.02193367 189.5016833 335.97903961 178.09373516 C335.95233141 170.87738496 335.93438619 163.6610835 335.92300236 156.44469368 C335.91384183 151.94157353 335.89646306 147.43851221 335.87682343 142.93542671 C335.86938303 140.85543752 335.86526899 138.7754332 335.86482811 136.69543076 C335.91403244 111.55398509 335.91403244 111.55398509 323.58203125 90.2578125 C311.89757015 79.72597716 297.97902254 79.37494938 283.0625 78.875 C281.25652344 78.81022461 281.25652344 78.81022461 279.4140625 78.74414062 C276.46363807 78.63876832 273.51313929 78.53664097 270.5625 78.4375 C270.58344727 79.18322266 270.60439453 79.92894531 270.62597656 80.69726562 C270.70966634 84.11053725 270.76132794 87.52359224 270.8125 90.9375 C270.84601563 92.11054687 270.87953125 93.28359375 270.9140625 94.4921875 C270.99115968 101.35383696 270.73856346 106.79252513 266.5625 112.4375 C264.74609375 114.27734375 264.74609375 114.27734375 263 115.375 C262.42121094 115.75527344 261.84242188 116.13554688 261.24609375 116.52734375 C255.62688773 119.56510477 248.23327203 119.43316692 242.171875 117.7890625 C237.16550766 115.55339464 234.15249478 112.22843455 231.5625 107.4375 C228.50381473 98.2614442 230.5625 88.10991209 230.5625 78.4375 C200.5325 78.4375 170.5025 78.4375 139.5625 78.4375 C139.5625 87.0175 139.5625 95.5975 139.5625 104.4375 C135.05352773 113.45544454 135.05352773 113.45544454 132 115.375 C131.42121094 115.75527344 130.84242188 116.13554688 130.24609375 116.52734375 C124.62688773 119.56510477 117.23327203 119.43316692 111.171875 117.7890625 C106.16550766 115.55339464 103.15249478 112.22843455 100.5625 107.4375 C97.50381473 98.2614442 99.5625 88.10991209 99.5625 78.4375 C69.8625 78.4375 40.1625 78.4375 9.5625 78.4375 C9.5625 87.0175 9.5625 95.5975 9.5625 104.4375 C5.05352773 113.45544454 5.05352773 113.45544454 2 115.375 C1.42121094 115.75527344 0.84242188 116.13554688 0.24609375 116.52734375 C-5.37311227 119.56510477 -12.76672797 119.43316692 -18.828125 117.7890625 C-23.83449234 115.55339464 -26.84750522 112.22843455 -29.4375 107.4375 C-30.51667226 104.19998322 -30.55175601 101.85998229 -30.53515625 98.45703125 C-30.53032227 96.71196289 -30.53032227 96.71196289 -30.52539062 94.93164062 C-30.51282227 93.10922852 -30.51282227 93.10922852 -30.5 91.25 C-30.49548828 90.02345703 -30.49097656 88.79691406 -30.48632812 87.53320312 C-30.47453065 84.50125332 -30.45806921 81.46940094 -30.4375 78.4375 C-34.35465725 78.54928894 -38.27101228 78.679437 -42.1875 78.8125 C-43.27933594 78.8434375 -44.37117188 78.874375 -45.49609375 78.90625 C-60.01646176 79.42176602 -72.62298409 81.20270688 -83.6171875 91.41796875 C-93.99711711 102.93389923 -94.59049641 116.43883247 -94.57121277 131.16351318 C-94.5746111 133.0721686 -94.5746111 133.0721686 -94.57807809 135.01938272 C-94.58417192 138.53543814 -94.58406536 142.0514697 -94.58288372 145.5675292 C-94.5826791 149.36588498 -94.58820431 153.16423321 -94.59294128 156.96258545 C-94.60123517 164.39845485 -94.60399556 171.83431633 -94.60455366 179.27018997 C-94.60502943 185.31680839 -94.60708721 191.36342421 -94.61025429 197.41004181 C-94.61905748 214.56729885 -94.6236742 231.72454965 -94.62292381 248.88180897 C-94.62286388 250.26820904 -94.62286388 250.26820904 -94.62280273 251.68261719 C-94.62274141 253.07071729 -94.62274141 253.07071729 -94.62267885 254.48685983 C-94.6222725 269.48059662 -94.63184033 284.47430829 -94.6459411 299.46803781 C-94.66031779 314.87719991 -94.66721057 330.28634976 -94.66634732 345.69551873 C-94.6660158 354.34106778 -94.66874343 362.98659049 -94.67952538 371.63213348 C-94.68864739 378.99362198 -94.69079168 386.3550722 -94.68401595 393.71656391 C-94.68075931 397.46892668 -94.68066299 401.22121607 -94.6893692 404.97357178 C-94.6987303 409.05028699 -94.69243588 413.12683356 -94.68473816 417.20355225 C-94.68988172 418.37711706 -94.69502529 419.55068187 -94.70032471 420.75980926 C-94.64028135 435.19721066 -92.57207075 447.73084869 -82.45703125 458.6171875 C-70.50405339 469.39105149 -56.4233713 469.58985292 -41.19293213 469.57121277 C-39.74264967 469.57308278 -38.29236772 469.57538424 -36.84208655 469.57807809 C-32.86996894 469.58417898 -28.89787243 469.58406452 -24.92575121 469.58288372 C-20.63659372 469.58267928 -16.34744293 469.5882026 -12.05828857 469.59294128 C-3.65988059 469.60123903 4.73852037 469.60399573 13.1369321 469.60455366 C19.96539644 469.60502924 26.79385847 469.60708608 33.62232208 469.61025429 C52.99308011 469.61905849 72.3638326 469.62367403 91.73459265 469.62292381 C92.77833918 469.62288386 93.82208572 469.6228439 94.89746094 469.62280273 C95.9424856 469.62276185 96.98751026 469.62272097 98.06420234 469.62267885 C114.99789583 469.62227246 131.93156708 469.63184102 148.86525413 469.6459411 C166.26323785 469.66031319 183.66121072 469.66721083 201.05920053 469.66634732 C210.82257543 469.66601564 220.58592702 469.66875016 230.34929657 469.67952538 C238.66232658 469.68864133 246.97532271 469.69079663 255.28835556 469.68401595 C259.52677921 469.68075628 263.76513787 469.68067408 268.0035553 469.6893692 C271.88979182 469.69725958 275.77591211 469.69577701 279.66214588 469.68708507 C281.06184234 469.68555565 282.46154759 469.68734501 283.86123368 469.69294515 C299.34510469 469.75075216 312.9728546 468.39250453 324.7421875 457.45703125 C332.51954903 448.82849926 334.72437446 438.93329968 336.15429688 427.75390625 C337.11805787 421.52045796 339.56276457 417.01146653 344.37890625 412.87890625 C350.88185404 409.60561038 357.90918721 409.14193186 364.93359375 411.09765625 C369.96194087 413.29339951 372.97381881 416.64899531 375.5625 421.4375 C380.40732507 435.9719752 375.24059178 453.6853392 368.75 466.875 C365.61582143 472.92304728 362.17530165 478.39196047 357.5625 483.4375 C356.76199219 484.32953125 355.96148437 485.2215625 355.13671875 486.140625 C341.99974365 500.0570733 324.16258091 509.25247282 304.92364919 510.71391761 C300.890126 510.82454495 296.8669318 510.84308332 292.83244324 510.82518005 C291.28169776 510.82936173 289.73095535 510.83484379 288.18021852 510.84149987 C283.95342614 510.85586402 279.72683025 510.85173825 275.50002754 510.84433305 C270.92797354 510.83958113 266.35596083 510.85212909 261.78392029 510.86235046 C252.84006689 510.87950461 243.89628386 510.88038547 234.95241829 510.87513756 C227.67883084 510.8710881 220.4052641 510.87254862 213.13167763 510.87788582 C211.57594529 510.87900845 211.57594529 510.87900845 209.98878402 510.88015376 C207.88146366 510.88168532 205.7741433 510.88322367 203.66682295 510.88476873 C183.92575816 510.89848168 164.18473305 510.89306469 144.44366918 510.88158352 C126.40718987 510.8716537 108.37081319 510.88458963 90.33434971 510.90851771 C71.78808671 510.93293561 53.24187145 510.94250989 34.6955927 510.93586498 C24.29386461 510.93237858 13.89221539 510.93456648 3.4904995 510.95211601 C-5.36470967 510.96687172 -14.2197844 510.96742957 -23.07499103 510.9500451 C-27.58741647 510.94156019 -32.09960212 510.93932376 -36.61201477 510.95469666 C-40.75311914 510.96862917 -44.89378022 510.96367198 -49.0348595 510.94445742 C-50.52263145 510.94072313 -52.01043965 510.94354404 -53.49817906 510.95406907 C-66.80784187 511.04143677 -80.02591206 509.03421362 -91.875 502.625 C-92.53910889 502.27735596 -93.20321777 501.92971191 -93.88745117 501.5715332 C-99.21110202 498.71266821 -103.96790575 495.52375314 -108.4375 491.4375 C-109.32953125 490.63699219 -110.2215625 489.83648437 -111.140625 489.01171875 C-125.85985581 475.11692573 -135.19935364 456.02808615 -135.81781673 435.6351347 C-135.83538505 433.16548371 -135.83697346 430.69568324 -135.82518005 428.22599792 C-135.82936354 426.840244 -135.83484657 425.45449351 -135.84149987 424.06874925 C-135.85584049 420.29801215 -135.85174582 416.52749572 -135.84433305 412.75674713 C-135.83957517 408.67549316 -135.8521343 404.59428517 -135.86235046 400.51304626 C-135.87949315 392.53172923 -135.88038786 384.55049108 -135.87513756 376.56916042 C-135.87108591 370.07741815 -135.87255121 363.58569908 -135.87788582 357.0939579 C-135.87863424 356.16781746 -135.87938266 355.24167702 -135.88015376 354.28747172 C-135.88168534 352.40563135 -135.88322369 350.523791 -135.88476873 348.64195064 C-135.89847756 331.01828916 -135.89306763 313.39467214 -135.88158352 295.77101169 C-135.87165442 279.67448556 -135.88458911 263.57807443 -135.90851771 247.48156603 C-135.93294465 230.92412358 -135.94250766 214.3667346 -135.93586498 197.80927449 C-135.93238054 188.52536983 -135.93455338 179.24155355 -135.95211601 169.95766258 C-135.9668831 162.05399079 -135.9674149 154.15046961 -135.9500451 146.24680062 C-135.94156937 142.220429 -135.93930078 138.19432592 -135.95469666 134.16796875 C-136.08445776 97.63949414 -136.08445776 97.63949414 -127.625 82 C-127.27735596 81.33589111 -126.92971191 80.67178223 -126.5715332 79.98754883 C-123.71266821 74.66389798 -120.52375314 69.90709425 -116.4375 65.4375 C-115.23673828 64.09945312 -115.23673828 64.09945312 -114.01171875 62.734375 C-100.85370389 48.79563856 -82.35858068 38.91217115 -62.91943359 38.19848633 C-57.98668017 38.10845103 -53.05749393 38.17413016 -48.125 38.25 C-46.40170451 38.26508674 -44.67839613 38.27876803 -42.95507812 38.29101562 C-38.78222655 38.32367627 -34.61001048 38.37523326 -30.4375 38.4375 C-30.4689209 37.31891602 -30.4689209 37.31891602 -30.50097656 36.17773438 C-30.58466634 32.76446275 -30.63632794 29.35140776 -30.6875 25.9375 C-30.72101563 24.76445312 -30.75453125 23.59140625 -30.7890625 22.3828125 C-30.86615968 15.52116304 -30.61356346 10.08247487 -26.4375 4.4375 C-24.62109375 2.59765625 -24.62109375 2.59765625 -22.875 1.5 C-22.29621094 1.11972656 -21.71742187 0.73945312 -21.12109375 0.34765625 C-14.98998289 -2.96684219 -6.30251123 -2.81448021 0 0 Z " fill="#000000" transform="translate(135.4375,1.5625)"/>
<path d="M0 0 C4.93118269 3.48790971 8.5680539 7.03910339 10.5625 12.8125 C11.95491752 24.85181734 7.58079787 31.82392594 0.625 41.1875 C-0.54052224 42.77853036 -1.70588228 44.36967954 -2.87109375 45.9609375 C-3.76030518 47.1689502 -3.76030518 47.1689502 -4.66748047 48.40136719 C-7.44746408 52.18828004 -10.19149141 56.00091978 -12.9375 59.8125 C-14.01931074 61.31135709 -15.10134259 62.81005463 -16.18359375 64.30859375 C-16.71968262 65.05093262 -17.25577148 65.79327148 -17.80810547 66.55810547 C-19.44469149 68.82244999 -21.08341165 71.08523581 -22.72265625 73.34765625 C-28.50675609 81.33522269 -34.24552761 89.35112129 -39.91821289 97.41821289 C-44.09005074 103.34229108 -48.33063377 109.21490075 -52.58203125 115.08203125 C-56.23745637 120.13332276 -59.85103602 125.21205362 -63.4375 130.3125 C-68.1431846 137.00366283 -72.90501569 143.65197349 -77.71166992 150.27099609 C-80.23823154 153.75267947 -82.74831085 157.24188466 -85.19921875 160.77734375 C-94.84598704 174.66956244 -105.31874926 185.07570515 -122.4375 188.8125 C-125.95174819 189.19431192 -129.40544463 189.23445495 -132.9375 189.1875 C-133.81019531 189.19910156 -134.68289062 189.21070313 -135.58203125 189.22265625 C-151.48702937 189.15196737 -162.26005589 181.3707854 -173.4375 170.8125 C-174.43291559 169.90407537 -175.43039202 168.99790489 -176.4296875 168.09375 C-183.17380372 161.97250466 -189.68593053 155.65696264 -196.0612793 149.15185547 C-199.06305312 146.10662566 -202.10951357 143.18797782 -205.3515625 140.3984375 C-209.79323983 136.56607612 -213.89109615 132.43327315 -218 128.25 C-222.50194956 123.66700724 -226.98139037 119.19490583 -231.97094727 115.13964844 C-235.87235039 111.60909619 -238.24811892 107.33636709 -238.640625 102.10546875 C-238.75535235 94.50478151 -238.20408906 90.02772512 -233.125 84.125 C-227.42455813 79.21996862 -222.97860777 78.46332216 -215.6328125 78.31640625 C-206.26493492 79.77083223 -200.76542476 86.01423618 -194.4375 92.625 C-189.24098475 97.98292216 -184.0736685 103.22965614 -178.3984375 108.08081055 C-173.97669629 111.98561762 -169.92434941 116.28946026 -165.79296875 120.49609375 C-161.75891502 124.5743967 -157.63411459 128.44644985 -153.28564453 132.18701172 C-150.60052438 134.54864052 -148.12496763 137.06780851 -145.625 139.625 C-140.30713304 145.36737115 -140.30713304 145.36737115 -133.0625 147.25 C-132.31226563 147.28996094 -131.56203125 147.32992187 -130.7890625 147.37109375 C-124.68445862 145.92099681 -120.88434063 138.50298191 -117.4375 133.625 C-116.28271018 132.0076996 -115.12775769 130.39051535 -113.97265625 128.7734375 C-113.38629395 127.9494043 -112.79993164 127.12537109 -112.19580078 126.27636719 C-109.97718679 123.16747349 -107.73640233 120.07501246 -105.49414062 116.9831543 C-100.2592253 109.76304415 -95.08659783 102.50186006 -89.95678711 95.20678711 C-85.78494926 89.28270892 -81.54436623 83.41009925 -77.29296875 77.54296875 C-73.63754284 72.49167614 -70.02403845 67.41289475 -66.4375 62.3125 C-60.72701546 54.19482948 -54.9239197 46.14633771 -49.10058594 38.109375 C-46.83177745 34.97594132 -44.56798996 31.83889616 -42.30444336 28.70166016 C-40.66672942 26.43281093 -39.02682303 24.16555911 -37.38671875 21.8984375 C-35.58782031 19.410489 -33.79726508 16.91717186 -32.01953125 14.4140625 C-23.67201108 2.73066655 -15.17195644 -5.24122132 0 0 Z " fill="#000000" transform="translate(370.4375,202.1875)"/>
</svg>
