<?xml version="1.0" encoding="UTF-8"?>
<svg version="1.1" xmlns="http://www.w3.org/2000/svg" width="512" height="512">
<path d="M0 0 C19.31658355 18.40173796 32.4327877 43.84874546 36.36743164 70.29321289 C36.47829102 71.01766602 36.58915039 71.74211914 36.70336914 72.48852539 C40.68925995 104.2679251 32.96760749 137.73375687 13.36743164 163.29321289 C-8.6628806 191.13851212 -37.72145737 208.13259495 -72.95385742 212.58666992 C-88.33909367 214.24009848 -107.03332263 213.92563794 -121.63256836 208.29321289 C-124.58622616 205.84111962 -125.52528446 204.63399705 -126.69506836 200.91821289 C-126.61598002 196.33108919 -124.7571615 194.3782932 -121.63256836 191.29321289 C-119.66299024 189.82594329 -117.63811289 188.43059396 -115.57006836 187.10571289 C-89.65547393 169.84041493 -71.76810178 141.73717975 -65.27514648 111.41552734 C-58.66573366 77.7889065 -65.47308327 43.65424241 -84.3762207 15.08813477 C-88.06367193 9.81993783 -92.30005341 5.03372252 -96.63256836 0.29321289 C-97.29901367 -0.44413086 -97.96545898 -1.18147461 -98.65209961 -1.94116211 C-103.12109268 -6.64536535 -108.12574669 -10.53367736 -113.3293457 -14.38330078 C-117.53446858 -17.51058756 -117.53446858 -17.51058756 -118.63256836 -19.70678711 C-119.10020775 -23.83760169 -119.09750114 -25.98533969 -116.82006836 -29.51928711 C-112.26421209 -32.64585514 -108.058246 -33.1174813 -102.63256836 -33.70678711 C-101.5897168 -33.82924805 -100.54686523 -33.95170898 -99.47241211 -34.07788086 C-62.13545539 -37.61506623 -27.40593348 -25.34660504 0 0 Z M-89.63256836 -17.70678711 C-86.92348892 -14.49866672 -84.22191515 -11.32505277 -81.32397461 -8.28491211 C-56.58973326 17.79987284 -45.33020037 53.80035735 -45.63256836 89.29321289 C-46.58119165 120.22287654 -57.09493437 150.21824276 -76.63256836 174.29321289 C-77.38666992 175.26129883 -78.14077148 176.22938477 -78.91772461 177.22680664 C-82.92580999 182.29363156 -86.97285834 186.79041691 -92.00366211 190.85571289 C-93.88228591 192.38956266 -93.88228591 192.38956266 -95.63256836 195.29321289 C-71.11177708 198.44893212 -45.73377664 191.55326118 -25.57006836 177.29321289 C-20.35440127 173.22580119 -15.4418097 168.83023302 -10.63256836 164.29321289 C-9.99448242 163.70797852 -9.35639648 163.12274414 -8.69897461 162.51977539 C-3.89534493 157.96221138 -0.21817544 152.84331739 3.36743164 147.29321289 C3.9565332 146.38700195 4.54563477 145.48079102 5.15258789 144.54711914 C20.26018018 120.07613998 23.78192109 91.07881136 17.36743164 63.29321289 C10.78101541 37.19645324 -5.67479002 13.56630535 -28.63256836 -0.70678711 C-29.39569336 -1.21467773 -30.15881836 -1.72256836 -30.94506836 -2.24584961 C-48.75369242 -13.66914465 -68.83974021 -17.21523089 -89.63256836 -17.70678711 Z " fill="#000000" transform="translate(450.632568359375,166.706787109375)"/>
<path d="M0 0 C3.03537165 1.95850743 5.46447589 4.44167442 8 7 C8.81984375 7.79535156 9.6396875 8.59070313 10.484375 9.41015625 C26.91586424 25.51799494 26.91586424 25.51799494 27.125 31.6875 C27.08375 32.780625 27.0425 33.87375 27 35 C27.78761719 34.41992188 28.57523437 33.83984375 29.38671875 33.2421875 C47.76903666 19.95355886 68.0462313 13.55869308 90.8515625 16.49609375 C112.75905888 20.51020023 130.74012792 31.14740582 144.19140625 48.890625 C156.68875842 67.78510993 161.21055604 90.23639427 156.8125 112.5 C152.98469954 127.73965418 145.77836412 139.72564036 135 151 C134.17048828 151.94166016 134.17048828 151.94166016 133.32421875 152.90234375 C120.98815827 166.40160596 101.32030205 173.12389698 83.48828125 174.21484375 C62.60794633 174.76030704 43.19772843 168.4344136 27 155 C27.144375 155.99 27.28875 156.98 27.4375 158 C27.41560606 163.46253871 23.6118073 166.31502533 20 170 C18.53660758 171.64133668 17.07845453 173.28735655 15.625 174.9375 C2.21667475 189.79475234 2.21667475 189.79475234 -3.375 190.3125 C-7 190 -7 190 -9.375 188.375 C-11.38506043 185.43721938 -11.92733979 183.5603504 -12 180 C-9.67706962 175.19480467 -6.01738152 171.57406571 -2.375 167.75 C-1.74835449 167.0904834 -1.12170898 166.4309668 -0.47607422 165.75146484 C0.77521348 164.4370816 2.0282675 163.12437731 3.28320312 161.81347656 C4.76183957 160.2515722 6.20487378 158.65610232 7.640625 157.0546875 C13.56854787 150.60858955 13.56854787 150.60858955 18.5625 149.9375 C19.696875 149.958125 20.83125 149.97875 22 150 C21.443125 149.3915625 20.88625 148.783125 20.3125 148.15625 C8.48678114 134.57265401 0.11145588 117.22963597 0.859375 98.87890625 C0.90578125 98.25886719 0.9521875 97.63882813 1 97 C0.34 97 -0.32 97 -1 97 C-1.103125 97.61875 -1.20625 98.2375 -1.3125 98.875 C-2 101 -2 101 -5 103 C-7.99838761 103.23264151 -10.90149722 103.35209236 -13.90234375 103.37109375 C-14.77645401 103.38012222 -15.65056427 103.3891507 -16.55116272 103.39845276 C-18.39955214 103.41295717 -20.24799292 103.42184247 -22.09643555 103.42553711 C-24.92389309 103.43744271 -27.74917443 103.48663167 -30.57617188 103.53710938 C-32.37238518 103.54657267 -34.16861189 103.55380815 -35.96484375 103.55859375 C-36.80973862 103.57812607 -37.65463348 103.59765839 -38.52513123 103.61778259 C-44.38183385 103.5727732 -44.38183385 103.5727732 -47.53344727 100.65258789 C-49.33810947 97.38845357 -49.61296967 95.67781805 -49 92 C-47.53125 89.34960938 -47.53125 89.34960938 -45 87 C-42.00034187 86.27305793 -39.0735267 86.34638565 -36 86.40625 C-35.12730469 86.40620972 -34.25460938 86.40616943 -33.35546875 86.40612793 C-31.51294746 86.41148218 -29.67042668 86.42906103 -27.828125 86.45800781 C-25.00970587 86.49985589 -22.19367735 86.49907673 -19.375 86.4921875 C-17.58331675 86.50268064 -15.7916458 86.51561941 -14 86.53125 C-13.15824219 86.53145142 -12.31648438 86.53165283 -11.44921875 86.53186035 C-7.9374905 86.60280617 -5.583993 86.69420489 -2.4375 88.34179688 C-1 90 -1 90 -1 93 C-0.34 93 0.32 93 1 93 C0.95359375 92.37996094 0.9071875 91.75992188 0.859375 91.12109375 C0.07391203 71.84919883 9.27072984 53.90790628 22 40 C20.86691406 40.01160156 19.73382813 40.02320313 18.56640625 40.03515625 C12.37331764 39.25130726 9.0119491 34.80224064 4.9375 30.4375 C3.7918457 29.25704102 3.7918457 29.25704102 2.62304688 28.05273438 C0.38380357 25.72920817 -1.81493882 23.37446818 -4 21 C-4.68618408 20.25991699 -5.37236816 19.51983398 -6.0793457 18.75732422 C-6.7105835 18.06010254 -7.34182129 17.36288086 -7.9921875 16.64453125 C-8.54890137 16.0306958 -9.10561523 15.41686035 -9.67919922 14.78442383 C-11.78501828 11.93942724 -12.06680636 9.47393096 -12 6 C-10.07709375 0.07103906 -5.7575885 -0.84948027 0 0 Z M30.90234375 56.25390625 C20.43340153 68.74761093 16.25069699 84.46998856 17.2109375 100.52734375 C19.25263667 117.95883198 27.76911804 132.60078653 41 144 C53.80218644 154.0267506 69.88615747 158.19235621 86 157 C103.37138998 154.14490026 118.28125649 146.32636771 129.12890625 132.234375 C139.54601547 116.48496581 142.82699812 101.30337036 140.60546875 82.6953125 C137.25364149 66.73628979 127.04524012 52.09632443 113.5625 43.0625 C84.18958522 25.90737883 53.60036041 31.8651621 30.90234375 56.25390625 Z " fill="#000000" transform="translate(73,161)"/>
<path d="M0 0 C3.5440277 2.67724346 4.85509628 4.16989423 5.62674582 8.59042072 C5.65305561 10.00928099 5.65196327 11.42881086 5.6292057 12.84773254 C5.64010651 14.02924749 5.64010651 14.02924749 5.65122753 15.23463142 C5.66953287 17.88452372 5.65209722 20.53297864 5.63491821 23.18286133 C5.64067723 25.09752806 5.64861686 27.01218927 5.65855443 28.92683887 C5.67948114 34.19636903 5.66908606 39.46544805 5.65362334 44.73498011 C5.6423376 50.41469072 5.65975874 56.09432229 5.67352295 61.77401733 C5.69578956 72.90374923 5.69093889 84.0333128 5.67645974 95.16305137 C5.66518097 104.20609659 5.6636307 113.24909454 5.66907883 122.29214478 C5.66984499 123.57779133 5.67061116 124.86343788 5.67140054 126.18804342 C5.67299912 128.7995751 5.67462018 131.41110678 5.6762635 134.02263844 C5.69012408 157.82856461 5.67573507 181.63438869 5.64955051 205.44029863 C5.62582192 227.17867281 5.62794503 248.91690054 5.65185547 270.65527344 C5.67862064 295.07074957 5.68915765 319.48612602 5.67379415 343.901618 C5.67220136 346.50369706 5.6706295 349.10577614 5.66907883 351.70785522 C5.66830745 352.98822389 5.66753607 354.26859255 5.66674132 355.58776027 C5.66241899 364.62294941 5.66972234 373.65808671 5.68147659 382.69326782 C5.69548038 393.69985891 5.69174626 404.70627165 5.66507287 415.71284223 C5.65190622 421.33168562 5.64683091 426.95023134 5.66331863 432.56907272 C5.67817206 437.70858512 5.67010613 442.84752276 5.64343087 447.9869827 C5.63782632 449.85029574 5.64073028 451.71365692 5.65280981 453.57693923 C5.66793364 456.10274683 5.65250815 458.62656514 5.6292057 461.15226746 C5.64676445 462.24704542 5.64676445 462.24704542 5.66467792 463.36394012 C5.59329768 467.21340321 5.08523668 468.8911216 2.68333089 471.95923328 C0 474 0 474 -3.5625 474.5 C-7.0902622 473.98687095 -8.55588357 473.53812091 -11 471 C-12.19495993 467.41512021 -12.14044705 464.16019937 -12.13142776 460.42959785 C-12.1334804 459.64760566 -12.13553303 458.86561347 -12.13764787 458.05992454 C-12.14333967 455.41779261 -12.14185794 452.77571245 -12.14044189 450.13357544 C-12.14302427 448.22889135 -12.14603708 446.32420781 -12.1494453 444.41952503 C-12.15753335 439.16842634 -12.15930587 433.9173413 -12.16004276 428.66623712 C-12.16189016 423.00969591 -12.16943584 417.35316185 -12.17617798 411.69662476 C-12.18977409 399.32082928 -12.19578785 386.94503703 -12.20018864 374.56923532 C-12.20294859 366.84681409 -12.20718546 359.12439411 -12.21169281 351.40197372 C-12.22388657 330.03488533 -12.23422145 308.66779848 -12.2375679 287.30070686 C-12.23778954 285.91871371 -12.23801132 284.53672055 -12.23823325 283.15472739 C-12.23845389 281.76936944 -12.23867438 280.38401148 -12.2388947 278.99865353 C-12.23933726 276.2193172 -12.23978437 273.43998086 -12.24023438 270.66064453 C-12.24034377 269.97152966 -12.24045316 269.28241479 -12.24056586 268.57241765 C-12.24419783 246.2195648 -12.26012317 223.86674435 -12.28342474 201.51390391 C-12.30800657 177.88981804 -12.32173322 154.26575725 -12.32293582 130.64165676 C-12.32385393 117.76024343 -12.32964037 104.87887253 -12.34775543 91.99747086 C-12.36312267 81.03113954 -12.36829687 70.06486378 -12.36001733 59.09852375 C-12.35609898 53.50000495 -12.35709803 47.90159812 -12.37107468 42.30309296 C-12.38374261 37.18214823 -12.38267904 32.06140043 -12.37048396 26.94045626 C-12.36851458 25.08380521 -12.37166211 23.22714055 -12.38032833 21.37050869 C-12.39133427 18.85412523 -12.38399487 16.33844747 -12.3719368 13.82208443 C-12.37953199 13.09486944 -12.38712718 12.36765446 -12.39495254 11.61840266 C-12.34950997 7.25014704 -11.68465536 4.47553649 -9 1 C-5.86128812 -0.56935594 -3.46144178 -0.35201103 0 0 Z " fill="#000000" transform="translate(300,19)"/>
<path d="M0 0 C2.625 2.00390625 2.625 2.00390625 5 4.5625 C5.85207031 5.46742188 6.70414063 6.37234375 7.58203125 7.3046875 C10.19457453 10.21689245 12.79136444 13.13810611 15.33203125 16.11328125 C17.63802297 18.72169811 20.11173621 21.13911787 22.6171875 23.5546875 C25.33052078 26.39065731 25.40290922 29.16943659 25.33984375 33.0234375 C25 35 25 35 22.9375 37.5 C19.20744147 39.40471074 17.14237933 39.65405989 13 39 C8.62216675 36.0814445 5.5100972 32.37757039 2.13671875 28.375 C0.45964475 26.51090312 -1.23044676 24.78775859 -3.04296875 23.0625 C-3.85000244 22.28821655 -3.85000244 22.28821655 -4.67333984 21.49829102 C-5.74275818 20.48000216 -6.82217056 19.47207762 -7.91259766 18.47631836 C-11.59364646 14.95146766 -13.13684411 12.0145247 -14 7 C-12.88788593 3.7254419 -11.92766429 1.76200995 -9.25 -0.4375 C-5.88595941 -1.27851015 -3.37121387 -0.75314352 0 0 Z " fill="#000000" transform="translate(218,312)"/>
<path d="M0 0 C2.9375 1.5 2.9375 1.5 5 4 C5.84349629 8.21748143 6.02352055 10.42419857 3.66796875 14.05078125 C1.86699293 16.14446646 -0.01658385 18.0786869 -2 20 C-2.58652344 20.58652344 -3.17304688 21.17304688 -3.77734375 21.77734375 C-4.92579306 22.92579306 -6.07946283 24.06904552 -7.23828125 25.20703125 C-9.13552824 27.13793229 -10.91443332 29.14223545 -12.6875 31.1875 C-13.55955078 32.18523437 -13.55955078 32.18523437 -14.44921875 33.203125 C-15.65273861 34.59763163 -16.83156387 36.01346847 -18 37.4375 C-20.95421169 39.74547789 -23.29530706 39.93500539 -27 40 C-29.94755732 38.65437601 -31.54277272 37.91445456 -33 35 C-33.89880723 28.48364756 -33.89880723 28.48364756 -31.859375 25.1171875 C-30.00150975 22.96170306 -28.03983731 20.98525972 -26 19 C-25.01167066 18.01437286 -24.02478437 17.02729736 -23.0390625 16.0390625 C-21.48439299 14.48054718 -19.92721562 12.92600987 -18.35253906 11.38769531 C-15.84007172 8.92147983 -13.48150165 6.42727345 -11.2578125 3.6953125 C-7.74546207 -0.49763179 -5.38531052 -0.45638225 0 0 Z " fill="#000000" transform="translate(238,161)"/>
<path d="M0 0 C2.6495391 0.45700469 4.08458331 1.36494373 5.90234375 3.328125 C7.13421526 7.02373954 7.08383075 10.46972225 7.10546875 14.3203125 C7.11116882 15.10326691 7.1168689 15.88622131 7.1227417 16.69290161 C7.1321822 18.34880221 7.13872191 20.00472151 7.14257812 21.66064453 C7.15228127 24.18685866 7.18331157 26.71225808 7.21484375 29.23828125 C7.2213745 30.84895351 7.22662469 32.45963158 7.23046875 34.0703125 C7.24281555 34.82255096 7.25516235 35.57478943 7.2678833 36.349823 C7.24886082 40.8545113 6.70422405 43.75457651 3.90234375 47.328125 C0.76363187 48.89748094 -1.63621447 48.68013603 -5.09765625 48.328125 C-7.80589121 46.34713085 -9.75580975 44.76384401 -10.55764771 41.39620972 C-10.74290906 39.06592123 -10.76459906 36.78658205 -10.7265625 34.44921875 C-10.72897446 33.60013443 -10.73138641 32.75105011 -10.73387146 31.87623596 C-10.73289465 30.08679519 -10.7195406 28.29732359 -10.69458008 26.50805664 C-10.66021874 23.7706035 -10.67394069 21.03637097 -10.69335938 18.29882812 C-10.68646193 16.55727795 -10.67679046 14.81573608 -10.6640625 13.07421875 C-10.66902237 12.25747177 -10.67398224 11.44072479 -10.67909241 10.59922791 C-10.60316486 6.93445042 -10.43664813 4.77451124 -8.18725586 1.8125 C-5.27911348 -0.25333779 -3.45629556 -0.18021653 0 0 Z " fill="#000000" transform="translate(154.09765625,335.671875)"/>
<path d="M0 0 C3.91851711 0.64121189 5.06308226 1.45749219 7.4375 4.5625 C9.00056827 7.68863655 8.62146478 11.02410623 8.640625 14.45703125 C8.64632507 15.2414006 8.65202515 16.02576996 8.65789795 16.83390808 C8.6673514 18.49578501 8.6738833 20.15768072 8.67773438 21.81958008 C8.68742229 24.35466538 8.71843404 26.88893379 8.75 29.42382812 C8.75653197 31.03905769 8.76178168 32.65429305 8.765625 34.26953125 C8.7779718 35.02490677 8.7903186 35.78028229 8.80303955 36.55854797 C8.7840665 41.07193785 8.24733305 43.9826564 5.4375 47.5625 C2.30807535 49.12721233 -1.17332223 49.25951958 -4.5625 48.5625 C-6.65649414 47.08251953 -6.65649414 47.08251953 -8.5625 44.5625 C-8.97236475 41.5238734 -9.14735726 38.85475397 -9.12890625 35.81640625 C-9.13510483 34.96827866 -9.14130341 34.12015106 -9.14768982 33.24632263 C-9.15478375 31.45516099 -9.15162135 29.66393336 -9.13891602 27.87280273 C-9.12506214 25.13726928 -9.15910859 22.40516578 -9.19726562 19.66992188 C-9.19821699 17.9270825 -9.19635704 16.18423885 -9.19140625 14.44140625 C-9.20466446 13.6266835 -9.21792267 12.81196075 -9.23158264 11.97254944 C-9.16210597 7.71783581 -8.92073407 6.02946145 -6.24584961 2.54272461 C-3.5625 0.5625 -3.5625 0.5625 0 0 Z " fill="#000000" transform="translate(152.5625,127.4375)"/>
<path d="M0 0 C0.87269531 -0.0038269 1.74539062 -0.00765381 2.64453125 -0.01159668 C4.48699092 -0.0143149 6.32948924 -0.00695994 8.171875 0.00976562 C10.99045934 0.03117752 13.80649485 0.00996199 16.625 -0.015625 C18.41667229 -0.01298171 20.20834299 -0.00785669 22 0 C22.84175781 -0.00809692 23.68351562 -0.01619385 24.55078125 -0.02453613 C30.38715618 0.06889601 30.38715618 0.06889601 33.52929688 2.43945312 C35.12144695 4.7039853 35.542797 5.7922417 35.5 8.53125 C35.5103125 9.19125 35.520625 9.85125 35.53125 10.53125 C34.72011424 13.58493756 33.53019712 14.62236769 31 16.53125 C28.00263779 17.13239553 25.04890723 17.09182764 22 17.0625 C21.12730469 17.0663269 20.25460937 17.07015381 19.35546875 17.07409668 C17.51300908 17.0768149 15.67051076 17.06945994 13.828125 17.05273438 C11.00954066 17.03132248 8.19350515 17.05253801 5.375 17.078125 C3.58332771 17.07548171 1.79165701 17.07035669 0 17.0625 C-0.84175781 17.07059692 -1.68351563 17.07869385 -2.55078125 17.08703613 C-8.38715618 16.99360399 -8.38715618 16.99360399 -11.52929688 14.62304688 C-13.12144695 12.3585147 -13.542797 11.2702583 -13.5 8.53125 C-13.51546875 7.54125 -13.51546875 7.54125 -13.53125 6.53125 C-11.69061453 -0.39820116 -5.94975317 -0.05723107 0 0 Z " fill="#000000" transform="translate(245,247.46875)"/>
</svg>
